<svg width="114" height="61" viewBox="0 0 114 61" fill="none" xmlns="http://www.w3.org/2000/svg">
<path fill-rule="evenodd" clip-rule="evenodd" d="M44.028 20.079H47.0954L49.7102 33.9392H47.1624L46.6596 30.8934H44.5141L43.9945 33.9392H41.3965L44.028 20.079ZM46.3914 29.148L45.5701 23.5697L44.7655 29.148H46.3914ZM58.9745 34.1274C57.533 34.1274 56.5106 33.731 55.9072 32.9382C55.3038 32.1454 55.002 31.0018 55.002 29.5074V24.545C55.002 23.0164 55.301 21.8614 55.8988 21.08C56.4966 20.2985 57.5218 19.9078 58.9745 19.9078C60.3601 19.9078 61.3407 20.2529 61.9162 20.9431C62.4916 21.6332 62.7794 22.6228 62.7794 23.9119V25.0755H60.0975V23.7921C60.0975 23.3815 60.078 23.0506 60.0389 22.7997C59.9998 22.5487 59.8992 22.3405 59.7372 22.1751C59.5751 22.0097 59.3265 21.927 58.9913 21.927C58.4884 21.927 58.1644 22.0924 58.0191 22.4232C57.8738 22.754 57.8012 23.2389 57.8012 23.8777V30.1747C57.8012 30.8249 57.885 31.3098 58.0526 31.6292C58.2203 31.9486 58.5331 32.1083 58.9913 32.1083C59.4606 32.1083 59.7623 31.9457 59.8964 31.6206C60.0305 31.2955 60.0975 30.8135 60.0975 30.1747V28.8229H62.7794V29.9694C62.7794 31.2927 62.4944 32.3165 61.9245 33.0409C61.3546 33.7653 60.3713 34.1274 58.9745 34.1274ZM72.5466 34.1274C71.1051 34.1274 70.0826 33.731 69.4792 32.9382C68.8758 32.1454 68.5741 31.0018 68.5741 29.5074V24.545C68.5741 23.0164 68.873 21.8614 69.4708 21.08C70.0687 20.2985 71.0939 19.9078 72.5466 19.9078C73.9322 19.9078 74.9127 20.2529 75.4882 20.9431C76.0637 21.6332 76.3514 22.6228 76.3514 23.9119V25.0755H73.6696V23.7921C73.6696 23.3815 73.65 23.0506 73.6109 22.7997C73.5718 22.5487 73.4712 22.3405 73.3092 22.1751C73.1472 22.0097 72.8985 21.927 72.5633 21.927C72.0605 21.927 71.7364 22.0924 71.5912 22.4232C71.4459 22.754 71.3733 23.2389 71.3733 23.8777V30.1747C71.3733 30.8249 71.4571 31.3098 71.6247 31.6292C71.7923 31.9486 72.1052 32.1083 72.5633 32.1083C73.0326 32.1083 73.3343 31.9457 73.4684 31.6206C73.6025 31.2955 73.6696 30.8135 73.6696 30.1747V28.8229H76.3514V29.9694C76.3514 31.2927 76.0665 32.3165 75.4966 33.0409C74.9267 33.7653 73.9434 34.1274 72.5466 34.1274ZM82.3473 20.079H88.2641V22.0297H85.0961V25.7086H87.5433V27.6764H85.0961V32.0227H88.2976V33.9392H82.3473V20.079ZM94.0085 20.079H95.9361L98.9531 27.2829V20.079H101.249V33.9392H99.3889L96.3719 26.2733V33.9392H94.0085V20.079ZM108.871 22.1665H106.776V20.079H113.715V22.1665H111.654V33.9392H108.871V22.1665Z" fill="#912329"/>
<path fill-rule="evenodd" clip-rule="evenodd" d="M42.6147 39.5047H41.8955V38.7591H44.2776V39.5047H43.5698V43.7092H42.6147V39.5047ZM46.6072 38.7591H47.8155C48.318 38.7591 48.6958 38.8569 48.9489 39.0525C49.2021 39.248 49.3287 39.5862 49.3287 40.0669C49.3287 40.3888 49.2865 40.6485 49.2021 40.8461C49.1177 41.0437 48.9681 41.1934 48.7533 41.2953L49.3977 43.7092H48.4254L47.896 41.4664H47.5508V43.7092H46.6072V38.7591ZM47.8327 40.8675C48.0552 40.8675 48.2115 40.8095 48.3017 40.6933C48.3918 40.5772 48.4369 40.3949 48.4369 40.1464C48.4369 39.9019 48.3966 39.7227 48.316 39.6086C48.2355 39.4945 48.0897 39.4375 47.8788 39.4375H47.5508V40.8675H47.8327ZM52.5444 38.7591H53.5973L54.4949 43.7092H53.6203L53.4477 42.6214H52.7112L52.5329 43.7092H51.6411L52.5444 38.7591ZM53.3557 41.9981L53.0737 40.0058L52.7976 41.9981H53.3557ZM56.8763 38.7591H57.538L58.5737 41.332V38.7591H59.3619V43.7092H58.7233L57.6876 40.9714V43.7092H56.8763V38.7591ZM63.176 43.7765C62.7464 43.7765 62.4242 43.6512 62.2094 43.4006C61.9946 43.1501 61.8776 42.762 61.8584 42.2364L62.6754 42.0898C62.6831 42.4035 62.7243 42.6347 62.7991 42.7834C62.8739 42.9321 62.9861 43.0064 63.1357 43.0064C63.247 43.0064 63.3275 42.9688 63.3774 42.8934C63.4273 42.818 63.4522 42.7213 63.4522 42.6031C63.4522 42.4075 63.4109 42.2415 63.3285 42.105C63.246 41.9686 63.1165 41.8188 62.9401 41.6559L62.4568 41.2097C62.265 41.0386 62.1183 40.8553 62.0166 40.6597C61.915 40.4642 61.8642 40.2299 61.8642 39.9569C61.8642 39.5536 61.9763 39.2429 62.2007 39.025C62.4251 38.807 62.7349 38.698 63.13 38.698C63.5519 38.698 63.8454 38.8274 64.0103 39.0861C64.1752 39.3448 64.2692 39.6738 64.2922 40.0731L63.4694 40.2014C63.4618 39.9406 63.434 39.7481 63.386 39.6239C63.3381 39.4996 63.2431 39.4375 63.1012 39.4375C62.9976 39.4375 62.9171 39.4792 62.8595 39.5628C62.802 39.6463 62.7732 39.7451 62.7732 39.8592C62.7732 40.0221 62.8068 40.1596 62.8739 40.2717C62.9411 40.3837 63.0475 40.507 63.1933 40.6414L63.6651 41.0814C63.8876 41.2892 64.0621 41.5082 64.1887 41.7384C64.3152 41.9686 64.3785 42.2385 64.3785 42.5481C64.3785 42.7844 64.3287 42.9952 64.2289 43.1806C64.1292 43.366 63.9882 43.5116 63.806 43.6176C63.6238 43.7235 63.4138 43.7765 63.176 43.7765ZM66.7887 38.7591H67.7323V43.0248H68.8313V43.7092H66.7887V38.7591ZM71.8629 38.7591H72.9158L73.8134 43.7092H72.9388L72.7662 42.6214H72.0297L71.8514 43.7092H70.9595L71.8629 38.7591ZM72.6741 41.9981L72.3922 40.0058L72.116 41.9981H72.6741ZM76.3962 39.5047H75.6769V38.7591H78.059V39.5047H77.3513V43.7092H76.3962V39.5047ZM80.4001 38.7591H81.3437V43.7092H80.4001V38.7591ZM85.2671 43.7765C84.7723 43.7765 84.4194 43.639 84.2085 43.364C83.9975 43.0889 83.892 42.6846 83.892 42.1509V40.3053C83.892 39.7716 83.9975 39.3703 84.2085 39.1014C84.4194 38.8325 84.7723 38.698 85.2671 38.698C85.7581 38.698 86.1101 38.8335 86.323 39.1044C86.5358 39.3754 86.6423 39.7756 86.6423 40.3053V42.157C86.6423 42.6866 86.5358 43.0889 86.323 43.364C86.1101 43.639 85.7581 43.7765 85.2671 43.7765ZM85.2671 43.0553C85.4282 43.0553 85.5366 42.9973 85.5922 42.8812C85.6478 42.7651 85.6757 42.6051 85.6757 42.4014V40.0608C85.6757 39.8571 85.6478 39.6993 85.5922 39.5872C85.5366 39.4752 85.4282 39.4192 85.2671 39.4192C85.106 39.4192 84.9977 39.4752 84.9421 39.5872C84.8864 39.6993 84.8586 39.8571 84.8586 40.0608V42.4014C84.8586 42.6092 84.8855 42.7701 84.9392 42.8842C84.9929 42.9983 85.1022 43.0553 85.2671 43.0553ZM89.1848 38.7591H89.8465L90.8821 41.332V38.7591H91.6704V43.7092H91.0317L89.9961 40.9714V43.7092H89.1848V38.7591ZM95.4845 43.7765C95.0549 43.7765 94.7327 43.6512 94.5179 43.4006C94.3031 43.1501 94.1861 42.762 94.1669 42.2364L94.9839 42.0898C94.9916 42.4035 95.0328 42.6347 95.1076 42.7834C95.1824 42.9321 95.2946 43.0064 95.4442 43.0064C95.5555 43.0064 95.636 42.9688 95.6859 42.8934C95.7357 42.818 95.7607 42.7213 95.7607 42.6031C95.7607 42.4075 95.7194 42.2415 95.637 42.105C95.5545 41.9686 95.425 41.8188 95.2486 41.6559L94.7653 41.2097C94.5735 41.0386 94.4268 40.8553 94.3251 40.6597C94.2235 40.4642 94.1726 40.2299 94.1726 39.9569C94.1726 39.5536 94.2848 39.2429 94.5092 39.025C94.7336 38.807 95.0434 38.698 95.4385 38.698C95.8604 38.698 96.1538 38.8274 96.3188 39.0861C96.4837 39.3448 96.5777 39.6738 96.6007 40.0731L95.7779 40.2014C95.7703 39.9406 95.7424 39.7481 95.6945 39.6239C95.6466 39.4996 95.5516 39.4375 95.4097 39.4375C95.3061 39.4375 95.2256 39.4792 95.168 39.5628C95.1105 39.6463 95.0817 39.7451 95.0817 39.8592C95.0817 40.0221 95.1153 40.1596 95.1824 40.2717C95.2495 40.3837 95.356 40.507 95.5017 40.6414L95.9736 41.0814C96.196 41.2892 96.3706 41.5082 96.4971 41.7384C96.6237 41.9686 96.687 42.2385 96.687 42.5481C96.687 42.7844 96.6372 42.9952 96.5374 43.1806C96.4377 43.366 96.2967 43.5116 96.1145 43.6176C95.9323 43.7235 95.7223 43.7765 95.4845 43.7765ZM102.457 38.7591H103.4V43.7092H102.457V38.7591ZM106.018 38.7591H106.679L107.715 41.332V38.7591H108.503V43.7092H107.865L106.829 40.9714V43.7092H106.018V38.7591ZM112.409 43.7765C111.915 43.7765 111.564 43.6349 111.356 43.3517C111.149 43.0686 111.046 42.6601 111.046 42.1264V40.3542C111.046 39.8082 111.148 39.3957 111.354 39.1166C111.559 38.8376 111.911 38.698 112.409 38.698C112.885 38.698 113.222 38.8213 113.419 39.0678C113.617 39.3142 113.716 39.6677 113.716 40.1281V40.5436H112.795V40.0853C112.795 39.9386 112.788 39.8205 112.775 39.7308C112.761 39.6412 112.727 39.5668 112.671 39.5078C112.616 39.4487 112.53 39.4192 112.415 39.4192C112.243 39.4192 112.131 39.4782 112.081 39.5964C112.032 39.7145 112.007 39.8877 112.007 40.1158V42.3648C112.007 42.597 112.035 42.7701 112.093 42.8842C112.15 42.9983 112.258 43.0553 112.415 43.0553C112.576 43.0553 112.68 42.9973 112.726 42.8812C112.772 42.7651 112.795 42.5929 112.795 42.3648V41.882H113.716V42.2914C113.716 42.764 113.618 43.1297 113.422 43.3884C113.226 43.6471 112.889 43.7765 112.409 43.7765Z" fill="#EB8C30"/>
<path fill-rule="evenodd" clip-rule="evenodd" d="M13.9268 12.2902H22.8813L9.45648 48.8549H0.499023L13.9268 12.2902" fill="url(#paint0_linear_187_4632)"/>
<path fill-rule="evenodd" clip-rule="evenodd" d="M13.9033 12.2902H22.9093L36.4069 48.8549H27.4034L13.9033 12.2902" fill="url(#paint1_linear_187_4632)"/>
<defs>
<linearGradient id="paint0_linear_187_4632" x1="6.95242" y1="2.22905" x2="-18.6667" y2="27.0436" gradientUnits="userSpaceOnUse">
<stop stop-color="#912329"/>
<stop offset="1" stop-color="#EB8D30"/>
</linearGradient>
<linearGradient id="paint1_linear_187_4632" x1="42.9595" y1="35.7592" x2="17.3362" y2="10.8061" gradientUnits="userSpaceOnUse">
<stop stop-color="#912329"/>
<stop offset="1" stop-color="#EB8D30"/>
</linearGradient>
</defs>
</svg>
