<svg width="83" height="61" viewBox="0 0 83 61" fill="none" xmlns="http://www.w3.org/2000/svg">
<path fill-rule="evenodd" clip-rule="evenodd" d="M27.6645 43.5468H27.492C25.749 43.5468 24.3361 42.1875 24.3361 40.5107V14.3073C24.3361 12.6305 25.749 11.2712 27.492 11.2712H27.6645C29.4075 11.2712 30.8204 12.6305 30.8204 14.3073V40.5107C30.8204 42.1875 29.4075 43.5468 27.6645 43.5468ZM7.08009 29.6958C7.45876 28.7378 8.70209 26.2466 11.3961 26.2466C14.1064 26.2466 15.165 28.7678 15.4667 29.7129C15.5225 29.8883 15.3877 30.0652 15.2005 30.0652H7.34005C7.14543 30.0652 7.00977 29.8739 7.08009 29.6958ZM7.36572 34.702H19.1789C20.5687 34.702 21.9584 33.8837 21.9584 32.7926C21.9584 32.6498 21.9609 32.496 21.9635 32.332C21.9911 30.6158 22.0369 27.7746 19.4568 24.6102C17.2332 21.8826 14.4536 20.7916 11.3961 20.7916C7.78281 20.7916 0 23.5191 0 32.3382C0 43.1573 9.45708 43.9756 10.9825 43.9756C11.0794 43.9756 11.1893 43.9767 11.311 43.9779H11.3113H11.3116H11.3119C13.1056 43.9959 17.4634 44.0397 20.8467 40.9754C21.7132 40.1904 22.2364 38.5206 21.1245 37.1567C19.857 35.602 18.8035 35.9784 18.0242 36.2568L18.0241 36.2568L18.0241 36.2568L18.0241 36.2568C17.9427 36.2859 17.8644 36.3139 17.7891 36.3385C17.5886 36.4041 17.3399 36.5327 17.0352 36.6904C16.0729 37.1883 14.5523 37.975 12.23 37.975C8.68109 37.975 7.43324 35.8907 7.07387 35.0486C6.98286 34.8355 7.09845 34.702 7.36572 34.702ZM34.642 23.2009C38.0244 19.3843 43.8669 21.2163 43.8669 21.2163C43.8669 21.2163 43.7131 27.0175 40.4844 29.7655C37.9592 31.9146 35.315 31.6621 33.6884 31.5067L33.6883 31.5067C33.3411 31.4736 33.0404 31.4448 32.797 31.4448C34.027 29.4602 39.3631 24.8993 39.3631 24.8993C39.3631 24.8993 34.027 29.3075 31.8745 30.2235C32.0282 27.9335 33.132 24.9047 34.642 23.2009ZM43.8669 43.2322C43.8669 43.2322 38.0244 45.0642 34.642 41.2476C33.132 39.5438 32.0282 36.515 31.8745 34.225C34.027 35.141 39.3631 39.5492 39.3631 39.5492C39.3631 39.5492 34.027 34.9883 32.797 33.0037C33.0404 33.0037 33.3411 32.9749 33.6883 32.9418L33.6884 32.9418C35.315 32.7864 37.9592 32.5339 40.4844 34.683C43.7131 37.431 43.8669 43.2322 43.8669 43.2322ZM59.5813 23.2178C59.5813 23.2178 60.67 21.2358 62.6919 21.2358C64.7139 21.2358 65.9581 22.9129 65.9581 23.98V40.5978C65.9581 40.5978 65.4915 43.4945 62.8475 43.4945C60.2034 43.4945 59.5813 41.5125 59.5813 41.5125C59.5813 41.5125 58.1815 43.9811 54.0599 43.9811C49.9382 43.9811 43.6529 40.29 43.8725 32.2127C43.9759 28.4062 46.6721 20.7785 54.1376 20.7785C54.1376 20.7785 57.5594 20.626 59.5813 23.2178ZM54.9153 37.8536C54.2932 37.8536 50.4048 37.3962 50.4048 32.3652C50.4048 27.0292 54.9153 27.0292 54.9153 27.0292C54.9153 27.0292 59.4257 26.8767 59.4257 32.2127C59.4257 37.5487 55.5374 37.8536 54.9153 37.8536ZM68.7984 40.9374V23.8113C68.7984 22.4472 70.8052 21.2348 72.0401 21.2348C74.5099 21.2348 75.2817 23.3566 75.2817 23.3566C75.5905 22.2957 78.4492 20.6944 79.7583 20.7801C82.0738 20.9316 83 22.4472 83 24.7206C83 26.2933 80.802 26.9867 78.6867 27.654C78.4237 27.737 78.162 27.8195 77.9059 27.9033C75.5905 28.6611 75.1274 30.783 75.1274 30.783V40.7858C75.1274 41.3921 74.3556 43.3623 71.8857 43.3623C69.4159 43.3623 68.7984 40.9374 68.7984 40.9374Z" fill="#2DBA7D"/>
<mask id="mask0_187_4556" style="mask-type:luminance" maskUnits="userSpaceOnUse" x="0" y="11" width="83" height="33">
<path fill-rule="evenodd" clip-rule="evenodd" d="M27.6645 43.5468H27.492C25.749 43.5468 24.3361 42.1875 24.3361 40.5107V14.3073C24.3361 12.6305 25.749 11.2712 27.492 11.2712H27.6645C29.4075 11.2712 30.8204 12.6305 30.8204 14.3073V40.5107C30.8204 42.1875 29.4075 43.5468 27.6645 43.5468ZM7.08009 29.6958C7.45876 28.7378 8.70209 26.2466 11.3961 26.2466C14.1064 26.2466 15.165 28.7678 15.4667 29.7129C15.5225 29.8883 15.3877 30.0652 15.2005 30.0652H7.34005C7.14543 30.0652 7.00977 29.8739 7.08009 29.6958ZM7.36572 34.702H19.1789C20.5687 34.702 21.9584 33.8837 21.9584 32.7926C21.9584 32.6498 21.9609 32.496 21.9635 32.332C21.9911 30.6158 22.0369 27.7746 19.4568 24.6102C17.2332 21.8826 14.4536 20.7916 11.3961 20.7916C7.78281 20.7916 0 23.5191 0 32.3382C0 43.1573 9.45708 43.9756 10.9825 43.9756C11.0794 43.9756 11.1893 43.9767 11.311 43.9779H11.3113H11.3116H11.3119C13.1056 43.9959 17.4634 44.0397 20.8467 40.9754C21.7132 40.1904 22.2364 38.5206 21.1245 37.1567C19.857 35.602 18.8035 35.9784 18.0242 36.2568L18.0241 36.2568L18.0241 36.2568L18.0241 36.2568C17.9427 36.2859 17.8644 36.3139 17.7891 36.3385C17.5886 36.4041 17.3399 36.5327 17.0352 36.6904C16.0729 37.1883 14.5523 37.975 12.23 37.975C8.68109 37.975 7.43324 35.8907 7.07387 35.0486C6.98286 34.8355 7.09845 34.702 7.36572 34.702ZM34.642 23.2009C38.0244 19.3843 43.8669 21.2163 43.8669 21.2163C43.8669 21.2163 43.7131 27.0175 40.4844 29.7655C37.9592 31.9146 35.315 31.6621 33.6884 31.5067L33.6883 31.5067C33.3411 31.4736 33.0404 31.4448 32.797 31.4448C34.027 29.4602 39.3631 24.8993 39.3631 24.8993C39.3631 24.8993 34.027 29.3075 31.8745 30.2235C32.0282 27.9335 33.132 24.9047 34.642 23.2009ZM43.8669 43.2322C43.8669 43.2322 38.0244 45.0642 34.642 41.2476C33.132 39.5438 32.0282 36.515 31.8745 34.225C34.027 35.141 39.3631 39.5492 39.3631 39.5492C39.3631 39.5492 34.027 34.9883 32.797 33.0037C33.0404 33.0037 33.3411 32.9749 33.6883 32.9418L33.6884 32.9418C35.315 32.7864 37.9592 32.5339 40.4844 34.683C43.7131 37.431 43.8669 43.2322 43.8669 43.2322ZM59.5813 23.2178C59.5813 23.2178 60.67 21.2358 62.6919 21.2358C64.7139 21.2358 65.9581 22.9129 65.9581 23.98V40.5978C65.9581 40.5978 65.4915 43.4945 62.8475 43.4945C60.2034 43.4945 59.5813 41.5125 59.5813 41.5125C59.5813 41.5125 58.1815 43.9811 54.0599 43.9811C49.9382 43.9811 43.6529 40.29 43.8725 32.2127C43.9759 28.4062 46.6721 20.7785 54.1376 20.7785C54.1376 20.7785 57.5594 20.626 59.5813 23.2178ZM54.9153 37.8536C54.2932 37.8536 50.4048 37.3962 50.4048 32.3652C50.4048 27.0292 54.9153 27.0292 54.9153 27.0292C54.9153 27.0292 59.4257 26.8767 59.4257 32.2127C59.4257 37.5487 55.5374 37.8536 54.9153 37.8536ZM68.7984 40.9374V23.8113C68.7984 22.4472 70.8052 21.2348 72.0401 21.2348C74.5099 21.2348 75.2817 23.3566 75.2817 23.3566C75.5905 22.2957 78.4492 20.6944 79.7583 20.7801C82.0738 20.9316 83 22.4472 83 24.7206C83 26.2933 80.802 26.9867 78.6867 27.654C78.4237 27.737 78.162 27.8195 77.9059 27.9033C75.5905 28.6611 75.1274 30.783 75.1274 30.783V40.7858C75.1274 41.3921 74.3556 43.3623 71.8857 43.3623C69.4159 43.3623 68.7984 40.9374 68.7984 40.9374Z" fill="white"/>
</mask>
<g mask="url(#mask0_187_4556)">
<rect x="-20.75" y="9.64386" width="124.5" height="36.6164" fill="#2DBA4C"/>
</g>
</svg>
