<svg width="140" height="61" viewBox="0 0 140 61" fill="none" xmlns="http://www.w3.org/2000/svg">
<path d="M73.6133 20.9663H74.8527L75.5467 23.8179H75.5632L76.3068 20.9663H77.6453L76.3316 25.2106H74.9436L74.233 22.4584H74.2165L73.4977 25.2106H72.1096L70.7959 20.9663H72.1674L72.911 23.8179H72.9358L73.6133 20.9663Z" fill="#0E3152"/>
<path d="M80.8093 23.8262H82.0817C81.9825 24.2904 81.7594 24.6469 81.3959 24.9121C81.0324 25.1774 80.5862 25.31 80.0409 25.31C79.3799 25.31 78.8346 25.1111 78.4215 24.7049C78.0084 24.2987 77.8018 23.7599 77.8018 23.0884C77.8018 22.4253 78.0084 21.8865 78.4215 21.4803C78.8346 21.0741 79.3634 20.8669 80.0244 20.8669C80.6523 20.8669 81.1563 21.0658 81.5364 21.4637C81.9082 21.8616 82.0982 22.3838 82.0982 23.0221V23.3952H79.132C79.1651 23.7102 79.2642 23.9423 79.4212 24.0998C79.5699 24.2573 79.7765 24.3319 80.0409 24.3319C80.2309 24.3319 80.3962 24.2904 80.5284 24.2075C80.6606 24.1246 80.7514 23.992 80.8093 23.8262ZM80.0244 21.8367C79.793 21.8367 79.603 21.9113 79.4543 22.044C79.3055 22.1849 79.2064 22.3921 79.1568 22.6574H80.8175C80.8175 22.417 80.7432 22.2181 80.6027 22.0688C80.454 21.9196 80.264 21.8367 80.0244 21.8367Z" fill="#0E3152"/>
<path d="M87.1291 20.8669C87.4431 20.8669 87.7157 20.9332 87.9305 21.0575C88.1454 21.1819 88.3271 21.3725 88.4593 21.6295C88.608 21.3974 88.8063 21.2067 89.0542 21.0741C89.3021 20.9415 89.583 20.8669 89.8804 20.8669C90.3597 20.8669 90.7397 21.0161 91.0041 21.2979C91.2685 21.5798 91.4007 21.9777 91.4007 22.4916V25.2106H90.0126V22.8066C90.0126 22.5248 89.9548 22.3092 89.8474 22.16C89.7317 22.0108 89.5747 21.9362 89.3599 21.9362C89.1286 21.9362 88.9468 22.0274 88.8229 22.1932C88.6989 22.359 88.6411 22.6077 88.6411 22.9227V25.2106H87.253V22.8066C87.253 22.5248 87.1952 22.3092 87.0878 22.16C86.9721 22.0108 86.8151 21.9362 86.6003 21.9362C86.369 21.9362 86.1872 22.0274 86.0633 22.1932C85.9311 22.359 85.8732 22.6077 85.8732 22.9227V25.2106H84.4934V20.9663H85.8567V21.6212C85.9641 21.3891 86.1294 21.2067 86.3607 21.0741C86.5838 20.9415 86.8399 20.8669 87.1291 20.8669Z" fill="#0E3152"/>
<path d="M96.2901 25.2106H94.9764C94.9599 25.0613 94.9434 24.9453 94.9434 24.8541C94.9351 24.7629 94.9351 24.6717 94.9351 24.5888C94.8277 24.8209 94.6542 25.0033 94.4228 25.1277C94.1915 25.252 93.9106 25.31 93.5801 25.31C93.1257 25.31 92.7704 25.2023 92.506 24.9702C92.2416 24.7463 92.1094 24.4396 92.1094 24.0583C92.1094 23.677 92.2333 23.3786 92.4977 23.1631C92.7539 22.9475 93.1504 22.8149 93.6792 22.7569L94.869 22.6408V22.4667C94.869 22.2761 94.8112 22.1269 94.7038 22.0191C94.5881 21.9113 94.4311 21.8533 94.2328 21.8533C94.051 21.8533 93.9023 21.9031 93.7949 22.0025C93.6792 22.102 93.6214 22.2263 93.6131 22.3921H92.2912C92.3325 21.9113 92.5308 21.5383 92.886 21.2731C93.2331 21.0078 93.704 20.8669 94.2824 20.8669C94.9186 20.8669 95.3978 21.0161 95.7283 21.3145C96.0505 21.6129 96.2158 22.044 96.2158 22.6242V24.0003C96.2158 24.2573 96.2158 24.4811 96.2323 24.6634C96.2405 24.8458 96.2571 25.0282 96.2901 25.2106ZM93.4727 23.9671C93.4727 24.1163 93.514 24.2241 93.6131 24.307C93.704 24.3899 93.8362 24.4231 94.0015 24.4231C94.2493 24.4231 94.4559 24.3484 94.6211 24.1992C94.7864 24.05 94.869 23.8511 94.869 23.6024V23.3952L94.1089 23.4863C93.8775 23.5195 93.7123 23.5692 93.6131 23.6438C93.514 23.7184 93.4727 23.8262 93.4727 23.9671Z" fill="#0E3152"/>
<path d="M101.807 25.2106H100.254L99.0396 23.5858L98.6017 24.0252V25.2106H97.2219V19.1095H98.6017V22.6077L100.163 20.9663H101.708L99.9897 22.7071L101.807 25.2106Z" fill="#0E3152"/>
<path d="M104.852 23.8262H106.125C106.025 24.2904 105.802 24.6469 105.439 24.9121C105.075 25.1774 104.629 25.31 104.084 25.31C103.423 25.31 102.878 25.1111 102.464 24.7049C102.051 24.2987 101.845 23.7599 101.845 23.0884C101.845 22.4253 102.051 21.8865 102.464 21.4803C102.878 21.0741 103.406 20.8669 104.067 20.8669C104.695 20.8669 105.199 21.0658 105.579 21.4637C105.951 21.8616 106.141 22.3838 106.141 23.0221V23.3952H103.175C103.208 23.7102 103.307 23.9423 103.464 24.0998C103.613 24.2573 103.819 24.3319 104.084 24.3319C104.274 24.3319 104.439 24.2904 104.571 24.2075C104.704 24.1246 104.794 23.992 104.852 23.8262ZM104.067 21.8367C103.836 21.8367 103.646 21.9113 103.497 22.044C103.349 22.1849 103.249 22.3921 103.2 22.6574H104.861C104.861 22.417 104.786 22.2181 104.646 22.0688C104.497 21.9196 104.307 21.8367 104.067 21.8367Z" fill="#0E3152"/>
<path d="M73.6133 29.2558H74.8527L75.5467 32.1074H75.5632L76.3068 29.2558H77.6453L76.3316 33.5H74.9436L74.233 30.7479H74.2165L73.4977 33.5H72.1096L70.7959 29.2558H72.1674L72.911 32.1074H72.9358L73.6133 29.2558Z" fill="#0E3152"/>
<path d="M79.6487 28.6673H78.2193V27.4653H79.6487V28.6673ZM79.6239 33.5H78.2441V29.2558H79.6239V33.5Z" fill="#0E3152"/>
<path d="M80.6789 29.2558H82.0422V29.9107C82.1496 29.6786 82.3231 29.4962 82.5544 29.3636C82.7858 29.2309 83.0502 29.1563 83.3476 29.1563C83.8351 29.1563 84.2152 29.3056 84.4961 29.5874C84.777 29.8775 84.9175 30.2754 84.9175 30.7811V33.5H83.5294V31.1127C83.5294 30.8142 83.4715 30.5987 83.3559 30.4495C83.2402 30.3003 83.0584 30.2257 82.8271 30.2257C82.5792 30.2257 82.3892 30.3169 82.257 30.4827C82.1248 30.6567 82.0587 30.9054 82.0587 31.2287V33.5H80.6789V29.2558Z" fill="#0E3152"/>
<path d="M87.4914 33.5995C86.9296 33.5995 86.4834 33.4006 86.1447 32.9861C85.8059 32.5799 85.6407 32.0411 85.6407 31.3779C85.6407 30.7148 85.8059 30.1842 86.1447 29.7698C86.4834 29.3636 86.9296 29.1563 87.4914 29.1563C87.7723 29.1563 88.0285 29.2227 88.2598 29.3553C88.4912 29.4879 88.6564 29.6703 88.7721 29.8858V27.399H90.1519V33.5H88.7886V32.87C88.6729 33.0938 88.4994 33.2679 88.2681 33.4006C88.0285 33.5332 87.7723 33.5995 87.4914 33.5995ZM87.9211 30.1428C87.6401 30.1428 87.4171 30.2505 87.2601 30.4661C87.1031 30.6816 87.0287 30.9883 87.0287 31.3779C87.0287 31.7758 87.1031 32.0742 87.2601 32.2898C87.4088 32.5053 87.6319 32.6048 87.9211 32.6048C88.1937 32.6048 88.4085 32.5053 88.5655 32.3063C88.7142 32.1074 88.7969 31.8256 88.7969 31.4691V31.2867C88.7969 30.9303 88.7142 30.6484 88.5655 30.4495C88.4085 30.2506 88.1937 30.1428 87.9211 30.1428Z" fill="#0E3152"/>
<path d="M93.1874 29.1563C93.8649 29.1563 94.4019 29.3636 94.815 29.7615C95.2281 30.1677 95.4347 30.7065 95.4347 31.3779C95.4347 32.0577 95.2281 32.5965 94.815 32.9944C94.4019 33.4006 93.8649 33.5995 93.1874 33.5995C92.5016 33.5995 91.9563 33.4006 91.5432 32.9944C91.1301 32.5965 90.9318 32.0577 90.9318 31.3779C90.9318 30.7065 91.1301 30.1677 91.5432 29.7615C91.9563 29.3636 92.5016 29.1563 93.1874 29.1563ZM93.1874 30.1511C92.9064 30.1511 92.6916 30.2588 92.5429 30.4744C92.3942 30.6899 92.3198 30.9883 92.3198 31.3779C92.3198 31.7758 92.3942 32.0742 92.5429 32.2898C92.6916 32.5053 92.9064 32.6048 93.1874 32.6048C93.46 32.6048 93.6748 32.5053 93.8236 32.2898C93.9723 32.0825 94.0466 31.7758 94.0466 31.3779C94.0466 30.98 93.9723 30.6816 93.8236 30.4661C93.6748 30.2588 93.46 30.1511 93.1874 30.1511Z" fill="#0E3152"/>
<path d="M98.5761 29.2558H99.8155L100.509 32.1074H100.526L101.27 29.2558H102.608L101.294 33.5H99.9064L99.1958 30.7479H99.1793L98.4605 33.5H97.0724L95.7587 29.2558H97.1302L97.8738 32.1074H97.8986L98.5761 29.2558Z" fill="#0E3152"/>
<path d="M104.983 33.5995C104.364 33.5995 103.868 33.4834 103.504 33.2348C103.133 32.9861 102.926 32.6379 102.876 32.182H104.165C104.182 32.3478 104.264 32.4721 104.413 32.5633C104.554 32.6545 104.735 32.6959 104.958 32.6959C105.149 32.6959 105.306 32.6628 105.421 32.5965C105.537 32.5302 105.595 32.4307 105.595 32.3063C105.595 32.2069 105.553 32.1323 105.471 32.0825C105.388 32.0328 105.239 31.9831 105.008 31.9333L104.256 31.809C103.827 31.7427 103.513 31.6017 103.314 31.3945C103.108 31.1955 103.009 30.922 103.009 30.5821C103.009 30.1677 103.182 29.8195 103.529 29.5542C103.876 29.289 104.322 29.1563 104.859 29.1563C105.429 29.1563 105.884 29.2807 106.223 29.5211C106.553 29.7615 106.751 30.0931 106.801 30.5241H105.578C105.553 30.3832 105.479 30.2671 105.347 30.1842C105.215 30.1013 105.058 30.0516 104.876 30.0516C104.694 30.0516 104.554 30.0931 104.446 30.1594C104.339 30.2257 104.289 30.3169 104.289 30.4329C104.289 30.5324 104.322 30.6153 104.405 30.665C104.479 30.7148 104.628 30.7645 104.851 30.7977L105.669 30.9386C106.066 31.0049 106.363 31.1375 106.57 31.353C106.776 31.5686 106.884 31.8421 106.884 32.1903C106.884 32.6131 106.702 32.9529 106.347 33.2099C105.991 33.4752 105.537 33.5995 104.983 33.5995Z" fill="#0E3152"/>
<path d="M115.169 33.5H113.484L113.046 33.069C112.773 33.2513 112.484 33.384 112.178 33.4669C111.873 33.5581 111.559 33.5995 111.236 33.5995C110.584 33.5995 110.055 33.4503 109.658 33.1436C109.262 32.8452 109.063 32.439 109.063 31.9333C109.063 31.61 109.154 31.3199 109.336 31.0546C109.518 30.7977 109.815 30.5573 110.22 30.3334C110.005 30.1096 109.848 29.9024 109.758 29.7034C109.667 29.5128 109.625 29.3055 109.625 29.09C109.625 28.6258 109.799 28.2362 110.162 27.9378C110.526 27.6394 110.989 27.4819 111.55 27.4819C112.079 27.4819 112.517 27.6228 112.864 27.8963C113.203 28.1699 113.376 28.5181 113.376 28.9325C113.376 29.2641 113.277 29.5377 113.079 29.7698C112.881 30.0019 112.55 30.2423 112.071 30.4744L113.153 31.5271C113.261 31.3531 113.352 31.1624 113.426 30.9634C113.5 30.7645 113.55 30.549 113.583 30.3252H114.789C114.74 30.6733 114.641 31.0132 114.492 31.353C114.343 31.6929 114.153 31.9996 113.922 32.2815L115.169 33.5ZM111.542 28.3854C111.352 28.3854 111.195 28.4517 111.071 28.5678C110.947 28.6838 110.889 28.8331 110.889 29.0071C110.889 29.1232 110.914 29.2392 110.98 29.347C111.046 29.463 111.179 29.6123 111.377 29.8029C111.691 29.662 111.906 29.5377 112.013 29.4216C112.112 29.3138 112.17 29.1646 112.17 28.974C112.17 28.8082 112.104 28.6755 111.988 28.5595C111.873 28.4434 111.724 28.3854 111.542 28.3854ZM110.402 31.7924C110.402 32.0245 110.485 32.2152 110.658 32.3644C110.832 32.5136 111.055 32.5799 111.336 32.5799C111.501 32.5799 111.666 32.5633 111.831 32.5219C111.988 32.4804 112.145 32.4224 112.294 32.3395L110.923 31.0132C110.741 31.1209 110.609 31.237 110.526 31.3613C110.443 31.4857 110.402 31.6266 110.402 31.7924Z" fill="#0E3152"/>
<path d="M118.865 33.5995C118.303 33.5995 117.857 33.4006 117.518 32.9861C117.179 32.5799 117.014 32.0411 117.014 31.3779C117.014 30.7148 117.179 30.1842 117.518 29.7698C117.857 29.3636 118.303 29.1563 118.865 29.1563C119.146 29.1563 119.402 29.2227 119.633 29.3553C119.865 29.4879 120.03 29.6703 120.146 29.8858V27.399H121.525V33.5H120.162V32.87C120.046 33.0938 119.873 33.2679 119.642 33.4006C119.402 33.5332 119.146 33.5995 118.865 33.5995ZM119.295 30.1428C119.014 30.1428 118.791 30.2505 118.634 30.4661C118.477 30.6816 118.402 30.9883 118.402 31.3779C118.402 31.7758 118.477 32.0742 118.634 32.2898C118.782 32.5053 119.005 32.6048 119.295 32.6048C119.567 32.6048 119.782 32.5053 119.939 32.3063C120.088 32.1074 120.17 31.8256 120.17 31.4691V31.2867C120.17 30.9303 120.088 30.6484 119.939 30.4495C119.782 30.2506 119.567 30.1428 119.295 30.1428Z" fill="#0E3152"/>
<path d="M124.561 29.1563C125.238 29.1563 125.775 29.3636 126.189 29.7615C126.602 30.1677 126.808 30.7065 126.808 31.3779C126.808 32.0577 126.602 32.5965 126.189 32.9944C125.775 33.4006 125.238 33.5995 124.561 33.5995C123.875 33.5995 123.33 33.4006 122.917 32.9944C122.504 32.5965 122.305 32.0577 122.305 31.3779C122.305 30.7065 122.504 30.1677 122.917 29.7615C123.33 29.3636 123.875 29.1563 124.561 29.1563ZM124.561 30.1511C124.28 30.1511 124.065 30.2588 123.916 30.4744C123.768 30.6899 123.693 30.9883 123.693 31.3779C123.693 31.7758 123.768 32.0742 123.916 32.2898C124.065 32.5053 124.28 32.6048 124.561 32.6048C124.833 32.6048 125.048 32.5053 125.197 32.2898C125.346 32.0825 125.42 31.7758 125.42 31.3779C125.42 30.98 125.346 30.6816 125.197 30.4661C125.048 30.2588 124.833 30.1511 124.561 30.1511Z" fill="#0E3152"/>
<path d="M129.57 29.1563C130.247 29.1563 130.784 29.3636 131.197 29.7615C131.61 30.1677 131.817 30.7065 131.817 31.3779C131.817 32.0577 131.61 32.5965 131.197 32.9944C130.784 33.4006 130.247 33.5995 129.57 33.5995C128.884 33.5995 128.338 33.4006 127.925 32.9944C127.512 32.5965 127.314 32.0577 127.314 31.3779C127.314 30.7065 127.512 30.1677 127.925 29.7615C128.338 29.3636 128.884 29.1563 129.57 29.1563ZM129.57 30.1511C129.289 30.1511 129.074 30.2588 128.925 30.4744C128.776 30.6899 128.702 30.9883 128.702 31.3779C128.702 31.7758 128.776 32.0742 128.925 32.2898C129.074 32.5053 129.289 32.6048 129.57 32.6048C129.842 32.6048 130.057 32.5053 130.206 32.2898C130.354 32.0825 130.429 31.7758 130.429 31.3779C130.429 30.98 130.354 30.6816 130.206 30.4661C130.057 30.2588 129.842 30.1511 129.57 30.1511Z" fill="#0E3152"/>
<path d="M135.231 29.1895C135.297 29.1895 135.363 29.1978 135.413 29.1978C135.462 29.2061 135.504 29.2144 135.537 29.2309V30.5075C135.471 30.4992 135.396 30.4909 135.33 30.4827C135.256 30.4827 135.173 30.4744 135.09 30.4744C134.743 30.4744 134.479 30.5821 134.281 30.7811C134.082 30.9883 133.983 31.2784 133.983 31.6432V33.5H132.604V29.2558H133.967V30.1594C134.066 29.8444 134.231 29.604 134.454 29.4382C134.669 29.2724 134.934 29.1895 135.231 29.1895Z" fill="#0E3152"/>
<path d="M137.993 33.5995C137.373 33.5995 136.877 33.4834 136.514 33.2348C136.142 32.9861 135.935 32.6379 135.886 32.182H137.175C137.191 32.3478 137.274 32.4721 137.423 32.5633C137.563 32.6545 137.745 32.6959 137.968 32.6959C138.158 32.6959 138.315 32.6628 138.431 32.5965C138.546 32.5302 138.604 32.4307 138.604 32.3063C138.604 32.2069 138.563 32.1323 138.48 32.0825C138.398 32.0328 138.249 31.9831 138.018 31.9333L137.266 31.809C136.836 31.7427 136.522 31.6017 136.324 31.3945C136.117 31.1955 136.018 30.922 136.018 30.5821C136.018 30.1677 136.192 29.8195 136.539 29.5542C136.886 29.289 137.332 29.1563 137.869 29.1563C138.439 29.1563 138.893 29.2807 139.232 29.5211C139.563 29.7615 139.761 30.0931 139.81 30.5241H138.588C138.563 30.3832 138.488 30.2671 138.356 30.1842C138.224 30.1013 138.067 30.0516 137.885 30.0516C137.704 30.0516 137.563 30.0931 137.456 30.1594C137.348 30.2257 137.299 30.3169 137.299 30.4329C137.299 30.5324 137.332 30.6153 137.414 30.665C137.489 30.7148 137.637 30.7645 137.861 30.7977L138.679 30.9386C139.075 31.0049 139.373 31.1375 139.579 31.353C139.786 31.5686 139.893 31.8421 139.893 32.1903C139.893 32.6131 139.711 32.9529 139.356 33.2099C139.001 33.4752 138.546 33.5995 137.993 33.5995Z" fill="#0E3152"/>
<path d="M60.6943 21.3643V20.9342H62.5609V21.3643H61.8804V23.0649H61.3748V21.3643H60.6943Z" fill="#0E3152"/>
<path d="M63.2605 21.3643V23.0649H62.7744V20.9342H63.5521L63.9604 22.4589L64.3882 20.9342H65.1659V23.0649H64.6798V21.3447L64.1938 23.0649H63.7271L63.2605 21.3643Z" fill="#0E3152"/>
<path d="M20.2316 25.6791C20.3493 23.8805 21.0908 23.0286 21.0908 23.0286C22.0794 21.5732 24.0214 20.5201 26.6812 20.5201C30.3651 20.5201 32.7425 22.011 32.6719 25.9631L32.6601 33.891H28.788L28.7409 32.3291C27.7876 33.7016 26.2458 34.2104 24.4098 34.2104C21.9735 34.2104 19.9609 32.7669 19.9609 30.4003C19.9609 27.2174 23.5271 26.1642 28.5408 25.7974V25.2886C28.5408 23.7741 27.7758 23.2179 26.3635 23.2179C25.0924 23.2179 24.1979 23.7977 24.0684 25.6673L20.2316 25.6791ZM25.8456 31.4889C27.4227 31.4889 28.6232 30.8145 28.6232 28.4361V28.1285C25.8692 28.3651 24.0214 28.7319 24.0214 30.1045C24.0214 30.9328 24.8099 31.4889 25.8456 31.4889Z" fill="#0E3152"/>
<path d="M41.4402 20.6266C44.7474 20.6266 45.6065 22.579 45.6065 26.0933V33.8673H41.8168V27.0872C41.8168 25.2295 41.7462 23.7149 39.8278 23.7149C38.1565 23.7149 37.4268 24.8508 37.4268 27.2292V33.8791H33.5547V20.9224H37.4268V22.6263C38.0153 21.6679 39.4276 20.6266 41.4402 20.6266Z" fill="#0E3152"/>
<path d="M50.4906 25.3833L54.5393 20.9224H59.8002L55.1631 26.0104L59.7532 33.7845L55.2572 33.8791L52.4208 29.0041L50.4906 31.1339V33.8791H46.5361V16H50.4906V25.3833Z" fill="#0E3152"/>
<path d="M19.4077 25.6436V20.8514C19.2194 20.8277 18.9958 20.8277 18.8075 20.8277C16.9597 20.8987 15.8887 21.8571 15.4532 23.3835V20.9224H11.5693V33.8791H15.4415V28.3059C15.4415 26.2825 16.4183 25.6554 18.3132 25.6554H19.4077V25.6436Z" fill="#0E3152"/>
<path d="M29.7646 37.9022H0.0351562V41.7478H29.7646V37.9022Z" fill="#008F6D"/>
<path d="M58.1978 38.1172L29.7734 46.8717L30.8938 50.5485L59.3181 41.794L58.1978 38.1172Z" fill="#008F6D"/>
<path d="M11.7105 16.1183V20.0231H3.93097V23.2534H10.5101V27.1345H3.93097V33.8791H0V16.1183H11.7105Z" fill="#0E3152"/>
</svg>
