<svg width="94" height="61" viewBox="0 0 94 61" fill="none" xmlns="http://www.w3.org/2000/svg">
<path d="M1.0625 40.8744V17.4116C1.0625 14.8023 3.2245 12.686 5.8894 12.686H6.26305C7.1114 12.686 7.7976 13.3605 7.7976 14.1953V23.6349C7.7976 23.8512 8.042 23.9767 8.22295 23.8535C8.79165 23.4674 9.58125 23.0256 10.5776 22.6977C12.9112 21.9349 14.8734 22.3093 15.3505 22.4116C15.9286 22.5349 17.5618 22.9 19.0588 24.1581C21.8271 26.4884 21.8858 30 21.8858 30.6139V40.8744C21.8858 42.3232 20.685 43.5 19.2045 43.5H16.6806C15.8346 43.5 15.1507 42.8279 15.1507 41.9953V32.1651C15.1507 29.3651 13.917 27.8977 11.5411 27.8977C9.1653 27.8977 7.79995 29.3628 7.79995 32.1651V41.9907C7.79995 42.8232 7.1114 43.5 6.2654 43.5H3.7462C2.2657 43.5 1.06485 42.3256 1.06485 40.8744H1.0625Z" fill="#00015E"/>
<path d="M31.6048 15.6977C31.6048 13.921 30.2277 12.4907 28.3383 12.4907C26.4489 12.4907 25.0342 13.921 25.0342 15.6977C25.0342 17.4744 26.4512 18.9419 28.3383 18.9419C30.2253 18.9419 31.6048 17.5117 31.6048 15.6977Z" fill="#45DB96"/>
<path d="M29.6971 22.2488H29.079C26.3812 22.2488 24.1934 24.3814 24.1934 27.0116V40.8861C24.1934 42.3465 25.4083 43.5326 26.9076 43.5326H29.6971C30.4467 43.5326 31.0554 42.9395 31.0554 42.2093V23.5698C31.0554 22.8395 30.4467 22.2465 29.6971 22.2465V22.2488Z" fill="#00015E"/>
<path d="M48.0508 32.8907C48.0508 26.886 52.6685 22.2488 58.9383 22.2488C65.2081 22.2488 69.8682 26.886 69.8682 32.8907C69.8682 38.8953 65.2081 43.5326 58.9383 43.5326C52.6685 43.5326 48.0508 38.8953 48.0508 32.8907ZM58.9383 37.7372C61.5656 37.7372 63.5984 35.8744 63.5984 32.893C63.5984 29.9116 61.5656 28.0488 58.9383 28.0488C56.311 28.0488 54.2783 29.9116 54.2783 32.893C54.2783 35.8744 56.311 37.7372 58.9383 37.7372Z" fill="#00015E"/>
<path d="M71.1201 32.8907C71.1201 26.886 75.7379 22.2488 82.0077 22.2488C88.2775 22.2488 92.9375 26.886 92.9375 32.8907C92.9375 38.8953 88.2775 43.5326 82.0077 43.5326C75.7379 43.5326 71.1201 38.8953 71.1201 32.8907ZM82.0077 37.7372C84.635 37.7372 86.6677 35.8744 86.6677 32.893C86.6677 29.9116 84.635 28.0488 82.0077 28.0488C79.3804 28.0488 77.3476 29.9116 77.3476 32.893C77.3476 35.8744 79.3804 37.7372 82.0077 37.7372Z" fill="#00015E"/>
<path d="M34.8621 22.2581H37.0852C37.3249 22.2651 38.2955 22.3233 39.1203 23.0884C39.9945 23.8977 40.0768 24.9209 40.0885 25.1395C40.2742 24.8326 40.5515 24.4372 40.9533 24.0326C41.2048 23.7814 41.75 23.2837 42.5772 22.8721C43.2352 22.5442 44.5159 21.9047 45.9706 22.2977C46.3842 22.4093 47.3101 22.6326 47.6814 23.3744C47.7072 23.4233 47.719 23.4628 47.7495 23.5442C47.8388 23.7837 48.1279 24.5651 48.0315 25.5047C48.0033 25.7884 47.8929 26.8605 47.155 27.5791C46.0693 28.6395 44.7133 27.8442 42.173 28.914C41.7147 29.107 41.2659 29.4442 40.7536 29.907C40.3282 30.2907 40.0932 30.8395 40.0932 31.407V40.9651C40.0932 42.3837 38.9253 43.5326 37.4824 43.5326H34.8222C34.0725 43.5326 33.4639 42.9349 33.4639 42.1977V23.6326C33.4639 22.8744 34.089 22.2581 34.8598 22.2581H34.8621Z" fill="#00015E"/>
<path d="M64.0635 46.7093L69.2993 40.7163C69.9432 39.9791 71.0853 39.9535 71.7668 40.6581C72.453 41.3698 73.3037 42.214 74.0111 42.8023C74.4905 43.2 74.5351 43.914 74.1097 44.3698L70.7469 47.9791C70.432 48.3186 69.9879 48.5093 69.5226 48.5093H64.8978C63.9554 48.5093 63.4502 47.414 64.0659 46.7093H64.0635Z" fill="#00015E"/>
</svg>
