<svg width="84" height="61" viewBox="0 0 84 61" fill="none" xmlns="http://www.w3.org/2000/svg">
<g clip-path="url(#clip0_187_4585)">
<path fill-rule="evenodd" clip-rule="evenodd" d="M0.908488 57.4783C0.840599 57.4683 0.788318 57.4425 0.752163 57.4003C0.716007 57.3586 0.69806 57.2956 0.69806 57.2116C0.69806 57.1328 0.72069 57.0599 0.765949 56.9932C0.810948 56.9266 0.86531 56.8735 0.928777 56.8341C1.19123 56.6761 1.47293 56.5343 1.77413 56.4084C2.07508 56.2825 2.38279 56.1752 2.69752 56.0862C3.01199 55.9974 3.32881 55.9296 3.64796 55.8828C3.96712 55.836 4.28054 55.8125 4.58825 55.8125C4.81455 55.8125 4.98778 55.8284 5.10769 55.8607C5.22761 55.8927 5.28769 55.9702 5.28769 56.0938C5.28769 56.1874 5.25362 56.285 5.18573 56.386C5.11784 56.4875 5.01146 56.5723 4.86683 56.6415C4.91652 56.5774 4.94148 56.523 4.94148 56.4787C4.94148 56.4592 4.93446 56.4416 4.92094 56.4268C4.90741 56.4121 4.87359 56.401 4.81923 56.3933C4.76487 56.386 4.68346 56.3812 4.57473 56.3789C4.46627 56.3763 4.3167 56.3749 4.12656 56.3749C4.02252 56.3749 3.91483 56.3777 3.80403 56.3823C3.69322 56.3874 3.57903 56.3973 3.4612 56.4121C3.47031 56.422 3.48045 56.4316 3.49189 56.4416C3.50308 56.4518 3.5088 56.4614 3.5088 56.4714C3.5088 56.4813 3.45782 56.5601 3.35612 56.7082C3.25415 56.8562 3.1228 57.0474 2.96231 57.282C2.80156 57.5163 2.62157 57.7806 2.42258 58.0742C2.22334 58.3677 2.02748 58.6653 1.83526 58.9662C1.64278 59.2671 1.46512 59.5573 1.30229 59.8361C1.13946 60.1152 1.01253 60.3557 0.922014 60.5579C0.903806 60.6073 0.856467 60.632 0.779475 60.632C0.738898 60.632 0.694679 60.6246 0.647079 60.6099C0.599479 60.5951 0.55656 60.5741 0.518064 60.5469C0.479568 60.5197 0.446794 60.489 0.419743 60.4544C0.392431 60.4198 0.378906 60.3829 0.378906 60.3432C0.378906 60.3333 0.382288 60.3186 0.389051 60.2987C0.395814 60.2794 0.410379 60.2468 0.433269 60.2026C0.569046 59.9507 0.736296 59.6671 0.93554 59.3511C1.13478 59.0354 1.34625 58.7121 1.57047 58.3813C1.79442 58.0506 2.02072 57.725 2.24935 57.4042C2.47799 57.0834 2.6918 56.7921 2.89078 56.5306C2.83668 56.5454 2.73836 56.5712 2.59556 56.6081C2.45302 56.6452 2.28681 56.696 2.09667 56.7598C1.90653 56.8242 1.70494 56.9008 1.49243 56.9895C1.27966 57.0783 1.08042 57.1821 0.894964 57.3004C0.86323 57.3203 0.847362 57.3449 0.847362 57.3744C0.847362 57.4141 0.867651 57.4485 0.908488 57.4783Z" fill="#C3B072"/>
<path fill-rule="evenodd" clip-rule="evenodd" d="M3.07397 59.6696C3.07397 59.6202 3.1057 59.561 3.16917 59.4918C3.22327 59.4325 3.28778 59.3621 3.36243 59.2807C3.43734 59.1993 3.50965 59.1205 3.57988 59.0439C3.64985 58.9676 3.71435 58.8973 3.7734 58.8329C3.83218 58.7688 3.8751 58.7242 3.90241 58.6996C4.06082 58.4579 4.23613 58.1975 4.42862 57.9184C4.62084 57.6399 4.8154 57.3634 5.0123 57.0897C5.20946 56.8157 5.40272 56.5578 5.59286 56.3159C5.783 56.074 5.95728 55.8717 6.11568 55.7086C6.16094 55.6596 6.20958 55.6236 6.2616 55.6011C6.31363 55.579 6.36461 55.568 6.41429 55.568C6.46423 55.568 6.50715 55.5816 6.54331 55.6088C6.57972 55.636 6.59767 55.6766 6.59767 55.7311C6.59767 55.7605 6.58856 55.7988 6.57062 55.8456C6.55241 55.8927 6.51391 55.9631 6.45513 56.0567C6.30582 56.2983 6.14742 56.5292 5.97991 56.7487C5.8124 56.9685 5.64385 57.1759 5.47399 57.3707C5.3044 57.5656 5.14132 57.746 4.98525 57.9113C4.82918 58.0767 4.68768 58.2256 4.56075 58.3592C4.44318 58.5665 4.33576 58.754 4.23848 58.9219C4.14093 59.0896 4.04027 59.2671 3.93623 59.4546C4.07669 59.2722 4.24186 59.0881 4.432 58.9032C4.62188 58.7183 4.81436 58.5492 5.00918 58.3961C5.20348 58.2432 5.38582 58.1184 5.55567 58.0222C5.72526 57.9261 5.85765 57.8779 5.95259 57.8779C6.02959 57.8779 6.08733 57.8929 6.12583 57.9224C6.16432 57.9522 6.18357 58.0038 6.18357 58.0778C6.18357 58.1175 6.16771 58.1692 6.13597 58.2333C6.10424 58.2974 6.06236 58.3728 6.01034 58.459C5.95832 58.5453 5.89823 58.6383 5.8306 58.7367C5.76246 58.8354 5.69483 58.9364 5.62694 59.0402C5.54995 59.1585 5.47295 59.2762 5.39596 59.3919C5.31897 59.5079 5.24874 59.6191 5.18553 59.7252C5.12207 59.8313 5.07109 59.9263 5.03285 60.01C4.99409 60.0939 4.9751 60.1608 4.9751 60.2102C4.9751 60.2987 5.00658 60.3432 5.07005 60.3432C5.13351 60.3432 5.21492 60.32 5.31455 60.2729C5.41417 60.2261 5.51925 60.162 5.63032 60.0803C5.74113 59.9989 5.85532 59.9053 5.97315 59.7989C6.09071 59.6929 6.1971 59.5808 6.2923 59.4623C6.32845 59.4228 6.36019 59.403 6.38724 59.403C6.41871 59.403 6.43484 59.4228 6.43484 59.4623C6.43484 59.4872 6.42574 59.5179 6.40753 59.5547C6.38958 59.5919 6.36019 59.635 6.31935 59.6843C6.23794 59.7782 6.13597 59.8843 6.01372 60.0026C5.89173 60.1211 5.76245 60.2323 5.62694 60.3359C5.49116 60.4394 5.35174 60.5259 5.20946 60.5951C5.06666 60.664 4.93427 60.6986 4.81202 60.6986C4.68977 60.6986 4.5891 60.6603 4.51003 60.584C4.4307 60.5072 4.39116 60.4076 4.39116 60.2839C4.39116 60.1557 4.42393 60.0136 4.48948 59.8582C4.55503 59.7028 4.63228 59.5525 4.72046 59.4067C4.80889 59.2612 4.89707 59.1279 4.98525 59.0067C5.07343 58.8862 5.14236 58.7934 5.1923 58.7293C5.2014 58.7197 5.20582 58.7095 5.20582 58.6996C5.20582 58.6899 5.2014 58.6851 5.1923 58.6851C5.18319 58.6851 5.16525 58.6899 5.13794 58.6996C5.02479 58.7489 4.9106 58.817 4.79511 58.9032C4.67962 58.9897 4.55295 59.1069 4.41483 59.2549C4.27697 59.403 4.12169 59.5882 3.94975 59.81C3.77782 60.0324 3.57884 60.3038 3.35228 60.6246C3.33434 60.6592 3.2935 60.6765 3.23029 60.6765C3.18035 60.6765 3.13405 60.664 3.09113 60.6393C3.04796 60.6147 3.02637 60.5775 3.02637 60.5284C3.02637 60.4445 3.08203 60.2916 3.19284 60.0692C3.30364 59.8471 3.45633 59.5635 3.65115 59.2178C3.63762 59.2328 3.61135 59.2623 3.57312 59.3068C3.53462 59.3511 3.49248 59.3967 3.44748 59.4435C3.40222 59.4906 3.35801 59.5374 3.31509 59.5842C3.27191 59.6313 3.23914 59.667 3.21651 59.6917C3.18945 59.7215 3.16006 59.7362 3.12833 59.7362C3.09217 59.7362 3.07397 59.7138 3.07397 59.6696Z" fill="#C3B072"/>
<path fill-rule="evenodd" clip-rule="evenodd" d="M8.79722 58.0628C8.7158 58.0628 8.63777 58.0878 8.56312 58.1371C8.48821 58.1865 8.42162 58.2531 8.36283 58.3368C8.30379 58.4211 8.25749 58.5183 8.22341 58.6292C8.1896 58.7404 8.17269 58.8601 8.17269 58.9886C8.17269 59.0873 8.18492 59.1724 8.20989 59.2439C8.23486 59.3154 8.26763 59.3772 8.30847 59.4291C8.34905 59.4807 8.39431 59.525 8.44425 59.5621C8.49393 59.5993 8.54595 59.6325 8.60031 59.6622C8.74962 59.4501 8.86953 59.2328 8.96004 59.0107C9.05082 58.7886 9.09582 58.5986 9.09582 58.4406C9.09582 58.189 8.99646 58.0628 8.79722 58.0628ZM7.6158 60.3359C7.71984 60.3359 7.83767 60.2987 7.96877 60.2247C8.10012 60.1509 8.22706 60.0471 8.34905 59.9141C8.28584 59.8843 8.22575 59.8497 8.16905 59.81C8.11261 59.7709 8.06293 59.7227 8.01975 59.6659C7.97683 59.6092 7.94172 59.54 7.91466 59.4586C7.88735 59.3772 7.87383 59.2796 7.87383 59.1662C7.87383 58.9787 7.89308 58.8269 7.93157 58.7106C7.97007 58.5949 8.02547 58.4849 8.09804 58.3813C8.05278 58.4211 7.98021 58.4826 7.88085 58.5666C7.78097 58.6502 7.68134 58.7555 7.58198 58.8811C7.48236 59.0068 7.39393 59.15 7.31719 59.3105C7.2402 59.4708 7.20171 59.6427 7.20171 59.825C7.20171 60.1654 7.33982 60.3359 7.6158 60.3359ZM6.82142 60.4212C6.69007 60.2703 6.62452 60.0891 6.62452 59.8769C6.62452 59.7632 6.63935 59.6472 6.66874 59.5289C6.69813 59.4104 6.7512 59.2895 6.82845 59.1662C6.7512 59.2354 6.66744 59.3205 6.57718 59.4214C6.4864 59.523 6.39615 59.6203 6.30537 59.7139C6.27832 59.7436 6.25127 59.7584 6.22395 59.7584C6.18338 59.7584 6.16309 59.7337 6.16309 59.6844C6.16309 59.6302 6.19014 59.5757 6.2445 59.5216C6.40265 59.3536 6.56443 59.1871 6.72986 59.0218C6.89503 58.8564 7.05917 58.695 7.222 58.5368C7.30367 58.4579 7.3895 58.3813 7.48028 58.3076C7.57054 58.2333 7.6634 58.1666 7.75834 58.1074C7.85354 58.0481 7.95082 58.0001 8.05044 57.9633C8.1498 57.9261 8.25176 57.9074 8.35607 57.9074C8.36933 57.9074 8.38312 57.9088 8.39665 57.9114C8.41017 57.9139 8.4237 57.9151 8.43748 57.9151C8.53242 57.8461 8.6206 57.7954 8.70228 57.7633C8.78369 57.731 8.87421 57.7151 8.97383 57.7151C9.06435 57.7151 9.1468 57.7372 9.22146 57.7817C9.29611 57.826 9.36061 57.8853 9.41498 57.9593C9.46934 58.0336 9.51121 58.1198 9.54061 58.2185C9.57 58.3172 9.58483 58.4211 9.58483 58.5294C9.58483 58.7367 9.54165 58.9503 9.45581 59.1698C9.36972 59.3894 9.22718 59.603 9.02819 59.81C9.06877 59.825 9.12313 59.8324 9.19102 59.8324C9.29038 59.8324 9.3822 59.8041 9.46596 59.7473C9.54971 59.6906 9.64361 59.603 9.74766 59.4844C9.77028 59.4597 9.79292 59.4475 9.81581 59.4475C9.8608 59.4475 9.88343 59.4748 9.88343 59.5289C9.88343 59.5686 9.8608 59.6129 9.81581 59.6622C9.69798 59.7904 9.57338 59.8894 9.44229 59.9583C9.31093 60.0276 9.16839 60.0619 9.01441 60.0619C8.96915 60.0619 8.93299 60.0607 8.90594 60.0582C8.87863 60.0559 8.856 60.0522 8.83805 60.0471C8.7158 60.2 8.53814 60.3384 8.30509 60.4618C8.07177 60.5852 7.79007 60.647 7.45973 60.647C7.16555 60.647 6.95278 60.5716 6.82142 60.4212Z" fill="#C3B072"/>
<path fill-rule="evenodd" clip-rule="evenodd" d="M10.3082 60.3285C10.3285 60.3778 10.3525 60.4258 10.3795 60.4729C10.4066 60.5197 10.4373 60.5605 10.4711 60.5951C10.5051 60.6294 10.5356 60.647 10.5629 60.647C10.5944 60.647 10.6238 60.6308 10.6511 60.5988C10.6781 60.5665 10.7041 60.5285 10.7291 60.4839C10.7538 60.4394 10.7767 60.3926 10.797 60.3432C10.8175 60.2939 10.8344 60.2519 10.848 60.2173C10.8118 60.2077 10.7697 60.1977 10.7223 60.1878C10.6747 60.1779 10.6274 60.1682 10.5798 60.1583C10.5322 60.1484 10.4869 60.1407 10.444 60.1359C10.4008 60.1311 10.3681 60.1285 10.3454 60.1285C10.3002 60.1285 10.2775 60.1558 10.2775 60.2102C10.2775 60.2397 10.2877 60.2794 10.3082 60.3285ZM11.8629 57.4967C11.8923 57.5188 11.9071 57.552 11.9071 57.5968C11.9071 57.8138 11.8946 58.0447 11.8697 58.2889C11.8447 58.5331 11.8119 58.7688 11.7714 58.9957C11.7305 59.2229 11.6863 59.4302 11.639 59.6177C11.5914 59.8055 11.5471 59.9532 11.5066 60.0619H11.5471C11.6197 60.0619 11.7001 60.0398 11.7883 59.9955C11.8764 59.9507 11.9636 59.8991 12.0497 59.8398C12.1355 59.7805 12.2125 59.7201 12.2807 59.6583C12.3483 59.5967 12.4003 59.5462 12.4367 59.5068C12.4729 59.4623 12.5046 59.4402 12.5317 59.4402C12.5678 59.4402 12.586 59.4623 12.586 59.5068C12.586 59.561 12.5634 59.6154 12.5181 59.6696C12.4911 59.7039 12.4401 59.7561 12.3654 59.825C12.2908 59.8942 12.2057 59.9632 12.1108 60.0324C12.0159 60.1016 11.9149 60.162 11.8086 60.2136C11.7022 60.2655 11.5992 60.2916 11.4998 60.2916C11.4634 60.2916 11.4363 60.2891 11.4184 60.284C11.4093 60.2987 11.3887 60.3444 11.357 60.4212C11.3255 60.4975 11.28 60.5789 11.2212 60.6655C11.1624 60.7517 11.0946 60.8283 11.0178 60.8949C10.9406 60.9616 10.8547 60.9947 10.7595 60.9947C10.642 60.9947 10.5345 60.9601 10.4373 60.8912C10.3397 60.822 10.256 60.7369 10.186 60.6357C10.1158 60.5347 10.0614 60.4258 10.0229 60.3101C9.98441 60.1941 9.96542 60.0917 9.96542 60.0026C9.96542 59.909 10.0083 59.8622 10.0942 59.8622C10.2073 59.8622 10.3363 59.8758 10.4812 59.903C10.6261 59.93 10.7777 59.9657 10.9361 60.01C10.977 59.9016 11.0189 59.7632 11.0618 59.5956C11.1047 59.428 11.1435 59.2561 11.1773 59.0811C11.2111 58.9058 11.2384 58.7404 11.2587 58.585C11.2792 58.4296 11.2894 58.3099 11.2894 58.2256C11.2894 58.1964 11.287 58.174 11.2824 58.1593C11.1104 58.3467 10.8943 58.57 10.6342 58.8292C10.3738 59.0882 10.0921 59.3732 9.7888 59.6844C9.75239 59.719 9.71623 59.7363 9.68034 59.7363C9.64392 59.7363 9.62598 59.7164 9.62598 59.677C9.62598 59.6325 9.65537 59.5783 9.71415 59.5139C9.84525 59.376 10.0016 59.2155 10.1826 59.0329C10.3634 58.8505 10.5434 58.6675 10.7223 58.4849C10.901 58.3025 11.0675 58.1298 11.2212 57.9667C11.3752 57.8039 11.4904 57.6706 11.5677 57.567C11.6038 57.5225 11.6343 57.4941 11.6593 57.4817C11.6842 57.4695 11.7147 57.4632 11.7508 57.4632C11.7961 57.4632 11.8335 57.4746 11.8629 57.4967Z" fill="#C3B072"/>
<path fill-rule="evenodd" clip-rule="evenodd" d="M14.4187 58.1184C14.3146 58.1802 14.2059 58.2616 14.0928 58.3629C13.9796 58.4639 13.8688 58.5776 13.7601 58.7032C13.6516 58.8292 13.5564 58.9565 13.475 59.0847C13.6108 59.0847 13.7567 59.0504 13.9128 58.9812C14.0691 58.9117 14.2127 58.8292 14.344 58.733C14.4754 58.6369 14.5838 58.5342 14.6699 58.4256C14.7558 58.3172 14.799 58.2236 14.799 58.1442C14.799 58.1 14.7932 58.0693 14.7821 58.0517C14.7706 58.0347 14.7378 58.0259 14.6835 58.0259C14.6112 58.0259 14.5227 58.0568 14.4187 58.1184ZM15.0128 58.5331C14.8975 58.6936 14.7469 58.8428 14.5612 58.9812C14.3758 59.1193 14.1664 59.239 13.9333 59.34C13.7003 59.4415 13.4659 59.5068 13.2305 59.5363C13.1717 59.6401 13.1241 59.7448 13.088 59.8508C13.0518 59.9572 13.0339 60.0522 13.0339 60.1359C13.0339 60.2839 13.1332 60.358 13.3325 60.358C13.45 60.358 13.5814 60.3296 13.7263 60.2729C13.8709 60.2162 14.0158 60.1407 14.1607 60.0471C14.3055 59.9532 14.4447 59.8508 14.5784 59.7396C14.7118 59.629 14.826 59.5164 14.9212 59.403C14.9529 59.3587 14.9868 59.3363 15.0229 59.3363C15.0591 59.3363 15.0773 59.3587 15.0773 59.403C15.0773 59.4526 15.0455 59.5139 14.9823 59.5882C14.878 59.7065 14.749 59.8301 14.5953 59.9583C14.4413 60.0868 14.2761 60.204 14.0995 60.31C13.9232 60.4161 13.7408 60.5038 13.553 60.5727C13.3652 60.6419 13.1852 60.6765 13.0133 60.6765C12.5878 60.6765 12.375 60.4666 12.375 60.0471C12.375 59.8942 12.4067 59.7314 12.4702 59.5587C12.5334 59.3857 12.6195 59.2118 12.7282 59.0365C12.8367 58.8615 12.9668 58.6936 13.1187 58.5331C13.27 58.3728 13.4318 58.2307 13.604 58.1073C13.776 57.9842 13.957 57.8852 14.1471 57.8112C14.3373 57.7372 14.5274 57.7003 14.7175 57.7003C14.8848 57.7003 15.005 57.7349 15.0773 57.8038C15.1496 57.8731 15.186 57.9644 15.186 58.0778C15.186 58.2211 15.1283 58.3728 15.0128 58.5331Z" fill="#C3B072"/>
<path fill-rule="evenodd" clip-rule="evenodd" d="M18.8225 59.8361C18.6841 60.0114 18.5428 60.1731 18.398 60.3211C18.2531 60.4692 18.1129 60.5923 17.9771 60.6913C17.8413 60.7897 17.7235 60.8393 17.6241 60.8393C17.5334 60.8393 17.461 60.7888 17.4067 60.6876C17.3523 60.5863 17.3253 60.457 17.3253 60.2987C17.3253 60.1855 17.3422 60.0692 17.376 59.9507C17.4101 59.8324 17.4509 59.7201 17.4985 59.614C17.5458 59.5079 17.5924 59.4118 17.6374 59.3253C17.6827 59.239 17.7167 59.1687 17.7394 59.1142C17.6533 59.1982 17.5604 59.2932 17.461 59.3993C17.3614 59.5054 17.2821 59.5908 17.2236 59.6549C17.178 59.7039 17.1395 59.7286 17.1081 59.7286C17.0719 59.7286 17.0537 59.7065 17.0537 59.6622C17.0537 59.6078 17.0875 59.5437 17.1554 59.4696C17.228 59.3908 17.3297 59.2847 17.461 59.1514C17.5924 59.0178 17.7292 58.876 17.8718 58.7257C18.0143 58.5751 18.1511 58.4256 18.2825 58.2778C18.4138 58.1298 18.5179 58.0038 18.5949 57.9C18.6222 57.8606 18.6583 57.8325 18.7033 57.8149C18.7486 57.7979 18.7962 57.7891 18.8461 57.7891C18.9093 57.7891 18.9637 57.8027 19.009 57.83C19.0542 57.8572 19.0768 57.8952 19.0768 57.9445C19.0768 57.9545 19.0758 57.9692 19.0735 57.9888C19.0711 58.0089 19.0566 58.0384 19.0292 58.0779C18.9343 58.2211 18.8256 58.3839 18.7033 58.5666C18.5813 58.7489 18.4658 58.933 18.3571 59.1179C18.2487 59.3031 18.1568 59.4782 18.0822 59.6435C18.0075 59.8089 17.9703 59.9461 17.9703 60.0545C17.9703 60.109 17.9771 60.1532 17.9906 60.1878C18.0042 60.2221 18.0359 60.2397 18.0856 60.2397C18.1399 60.2397 18.218 60.1929 18.3199 60.099C18.4216 60.0054 18.5337 59.8843 18.656 59.7363C18.7782 59.5882 18.9049 59.4265 19.0363 59.2512C19.1674 59.076 19.2907 58.9058 19.4061 58.7404C19.5216 58.5751 19.621 58.4281 19.705 58.2999C19.7885 58.1717 19.8442 58.0804 19.8712 58.0259C19.8985 57.9718 19.9357 57.9335 19.9833 57.9114C20.0309 57.889 20.0796 57.8779 20.1292 57.8779C20.188 57.8779 20.239 57.8918 20.2819 57.9184C20.3248 57.9457 20.3464 57.9814 20.3464 58.0259C20.3464 58.0359 20.3454 58.0481 20.3431 58.0628C20.3407 58.0779 20.3353 58.0974 20.3261 58.1221C20.29 58.2012 20.2289 58.3246 20.1428 58.4925C20.0569 58.6604 19.9685 58.838 19.878 59.0255C19.7875 59.2132 19.7071 59.3933 19.6371 59.5658C19.5669 59.7385 19.5318 59.8693 19.5318 59.9583C19.5318 60.0125 19.5385 60.057 19.5521 60.0917C19.5656 60.1263 19.5929 60.1433 19.6337 60.1433C19.6925 60.1433 19.7773 60.0928 19.8884 59.9915C19.9989 59.8906 20.1157 59.7709 20.238 59.6324C20.3602 59.4943 20.4778 59.3536 20.5909 59.2104C20.7041 59.0675 20.7899 58.954 20.849 58.87C20.8534 58.7861 20.8703 58.6811 20.8999 58.5555C20.9293 58.4296 20.9699 58.3076 21.0222 58.189C21.074 58.0705 21.1398 57.9692 21.2188 57.8853C21.2982 57.8013 21.3921 57.7596 21.5008 57.7596C21.5775 57.7596 21.641 57.7806 21.6907 57.8226C21.7406 57.8643 21.7653 57.915 21.7653 57.9743C21.7653 58.0432 21.745 58.121 21.7045 58.2075C21.6636 58.294 21.6103 58.3864 21.5448 58.4849C21.4792 58.5839 21.4056 58.6874 21.3242 58.796C21.2428 58.9046 21.1614 59.0133 21.0797 59.1219C21.0753 59.1514 21.0719 59.1798 21.0695 59.2067C21.0672 59.2339 21.0662 59.26 21.0662 59.2847C21.0662 59.3094 21.0672 59.3375 21.0695 59.3698C21.0719 59.4019 21.0797 59.4339 21.0932 59.466C21.107 59.4983 21.126 59.525 21.1512 59.5476C21.1759 59.5698 21.211 59.5808 21.2563 59.5808C21.3198 59.5808 21.3874 59.5562 21.46 59.5068C21.4873 59.4918 21.512 59.4844 21.5346 59.4844C21.5846 59.4844 21.6093 59.5094 21.6093 59.5587C21.6093 59.6078 21.5674 59.6597 21.4836 59.7139C21.3999 59.7683 21.3107 59.7955 21.2155 59.7955C21.1205 59.7955 21.0425 59.7621 20.9814 59.6954C20.9202 59.629 20.8895 59.5388 20.8895 59.4254C20.8895 59.4155 20.8908 59.4044 20.8929 59.3919C20.8953 59.3797 20.8966 59.3661 20.8966 59.3511C20.8557 59.4058 20.8003 59.4796 20.7301 59.5732C20.6599 59.6671 20.5808 59.7683 20.4924 59.8769C20.4042 59.9856 20.3092 60.0951 20.2073 60.2062C20.1056 60.3171 20.0026 60.4173 19.8985 60.506C19.7942 60.5951 19.6912 60.6677 19.5895 60.7244C19.4878 60.7812 19.3937 60.8098 19.3078 60.8098C19.1674 60.8098 19.0644 60.7627 18.9988 60.6691C18.9333 60.5753 18.9005 60.457 18.9005 60.3137C18.9005 60.2397 18.9093 60.1594 18.9275 60.0729C18.9455 59.9867 18.9692 59.9005 18.9988 59.814C19.0282 59.7275 19.0599 59.6435 19.0937 59.5621C19.1278 59.4807 19.1585 59.4078 19.1856 59.344C19.0813 59.4969 18.9603 59.6611 18.8225 59.8361Z" fill="#C3B072"/>
<path fill-rule="evenodd" clip-rule="evenodd" d="M21.4057 59.6696C21.4057 59.6202 21.4375 59.561 21.5009 59.4918C21.555 59.4325 21.6195 59.3621 21.6945 59.2807C21.7691 59.1993 21.8414 59.1205 21.9117 59.0439C21.9819 58.9676 22.0464 58.8973 22.1052 58.8329C22.164 58.7688 22.2069 58.7242 22.2342 58.6996C22.3926 58.4579 22.5679 58.1975 22.7604 57.9184C22.9526 57.6399 23.1472 57.3634 23.3441 57.0897C23.5412 56.8157 23.7345 56.5578 23.9246 56.3159C24.1148 56.074 24.289 55.8717 24.4475 55.7086C24.4927 55.6596 24.5414 55.6236 24.5934 55.6011C24.6454 55.579 24.6964 55.568 24.7461 55.568C24.796 55.568 24.8389 55.5816 24.8753 55.6088C24.9115 55.636 24.9297 55.6766 24.9297 55.7311C24.9297 55.7605 24.9203 55.7988 24.9024 55.8456C24.8842 55.8927 24.8457 55.9631 24.7869 56.0567C24.6376 56.2983 24.4792 56.5292 24.3117 56.7487C24.1442 56.9685 23.9756 57.1759 23.8058 57.3707C23.6362 57.5656 23.4731 57.746 23.317 57.9113C23.161 58.0767 23.0195 58.2256 22.8925 58.3592C22.775 58.5665 22.6675 58.754 22.5702 58.9219C22.4727 59.0896 22.3723 59.2671 22.268 59.4546C22.4085 59.2722 22.5736 59.0881 22.7638 58.9032C22.9536 58.7183 23.1461 58.5492 23.341 58.3961C23.5353 58.2432 23.7176 58.1184 23.8874 58.0222C24.057 57.9261 24.1894 57.8779 24.2846 57.8779C24.3614 57.8779 24.4191 57.8929 24.4576 57.9224C24.4961 57.9522 24.5153 58.0038 24.5153 58.0778C24.5153 58.1175 24.4995 58.1692 24.4677 58.2333C24.4363 58.2974 24.3941 58.3728 24.3421 58.459C24.2901 58.5453 24.2303 58.6383 24.1624 58.7367C24.0945 58.8354 24.0266 58.9364 23.9587 59.0402C23.8817 59.1585 23.8047 59.2762 23.7277 59.3919C23.6507 59.5079 23.5805 59.6191 23.5173 59.7252C23.4538 59.8313 23.4029 59.9263 23.3646 60.01C23.3259 60.0939 23.3069 60.1608 23.3069 60.2102C23.3069 60.2987 23.3383 60.3432 23.4018 60.3432C23.4653 60.3432 23.5467 60.32 23.6463 60.2729C23.7459 60.2261 23.851 60.162 23.9621 60.0803C24.0729 59.9989 24.1871 59.9053 24.3049 59.7989C24.4225 59.6929 24.5289 59.5808 24.6241 59.4623C24.6602 59.4228 24.692 59.403 24.719 59.403C24.7507 59.403 24.7666 59.4228 24.7666 59.4623C24.7666 59.4872 24.7575 59.5179 24.7396 59.5547C24.7214 59.5919 24.692 59.635 24.6511 59.6843C24.5697 59.7782 24.4677 59.8843 24.3455 60.0026C24.2235 60.1211 24.0945 60.2323 23.9587 60.3359C23.8229 60.4394 23.6835 60.5259 23.5412 60.5951C23.3984 60.664 23.2663 60.6986 23.1438 60.6986C23.0218 60.6986 22.9209 60.6603 22.8418 60.584C22.7625 60.5072 22.7229 60.4076 22.7229 60.2839C22.7229 60.1557 22.7557 60.0136 22.8215 59.8582C22.8871 59.7028 22.9641 59.5525 23.0522 59.4067C23.1407 59.2612 23.2288 59.1279 23.317 59.0067C23.4052 58.8862 23.4741 58.7934 23.5241 58.7293C23.5332 58.7197 23.5376 58.7095 23.5376 58.6996C23.5376 58.6899 23.5332 58.6851 23.5241 58.6851C23.515 58.6851 23.497 58.6899 23.4697 58.6996C23.3566 58.7489 23.2424 58.817 23.1269 58.9032C23.0117 58.9897 22.8847 59.1069 22.7466 59.2549C22.6087 59.403 22.4535 59.5882 22.2815 59.81C22.1096 60.0324 21.9106 60.3038 21.6841 60.6246C21.6661 60.6592 21.6253 60.6765 21.5621 60.6765C21.5121 60.6765 21.4658 60.664 21.4229 60.6393C21.38 60.6147 21.3584 60.5775 21.3584 60.5284C21.3584 60.4445 21.4138 60.2916 21.5246 60.0692C21.6354 59.8471 21.7881 59.5635 21.9829 59.2178C21.9694 59.2328 21.9434 59.2623 21.9049 59.3068C21.8664 59.3511 21.8245 59.3967 21.7793 59.4435C21.734 59.4906 21.6898 59.5374 21.6469 59.5842C21.6037 59.6313 21.5709 59.667 21.5485 59.6917C21.5212 59.7215 21.4918 59.7362 21.4601 59.7362C21.4239 59.7362 21.4057 59.7138 21.4057 59.6696Z" fill="#C3B072"/>
<path fill-rule="evenodd" clip-rule="evenodd" d="M27.1292 58.0628C27.0478 58.0628 26.9698 58.0878 26.8951 58.1371C26.8205 58.1865 26.7536 58.2531 26.6949 58.3368C26.6358 58.4211 26.5895 58.5183 26.5557 58.6292C26.5216 58.7404 26.5047 58.8601 26.5047 58.9886C26.5047 59.0873 26.5172 59.1724 26.5419 59.2439C26.5669 59.3154 26.5997 59.3772 26.6405 59.4291C26.6811 59.4807 26.7263 59.525 26.7763 59.5621C26.826 59.5993 26.878 59.6325 26.9323 59.6622C27.0816 59.4501 27.2016 59.2328 27.2923 59.0107C27.3828 58.7886 27.4281 58.5986 27.4281 58.4406C27.4281 58.189 27.3285 58.0628 27.1292 58.0628ZM25.9481 60.3359C26.0519 60.3359 26.1697 60.2987 26.3011 60.2247C26.4322 60.1509 26.5591 60.0471 26.6811 59.9141C26.6179 59.8843 26.5578 59.8497 26.5013 59.81C26.4446 59.7709 26.395 59.7227 26.3518 59.6659C26.3089 59.6092 26.274 59.54 26.2467 59.4586C26.2196 59.3772 26.2059 59.2796 26.2059 59.1662C26.2059 58.9787 26.2251 58.8269 26.2636 58.7106C26.3021 58.5949 26.3575 58.4849 26.4301 58.3813C26.3848 58.4211 26.3122 58.4826 26.2129 58.5666C26.113 58.6502 26.0136 58.7555 25.914 58.8811C25.8144 59.0068 25.7262 59.15 25.6492 59.3105C25.5722 59.4708 25.5337 59.6427 25.5337 59.825C25.5337 60.1654 25.6719 60.3359 25.9481 60.3359ZM25.1535 60.4212C25.0221 60.2703 24.9568 60.0891 24.9568 59.8769C24.9568 59.7632 24.9714 59.6472 25.0008 59.5289C25.0302 59.4104 25.0832 59.2895 25.1605 59.1662C25.0832 59.2354 24.9997 59.3205 24.9092 59.4214C24.8184 59.523 24.7282 59.6203 24.6374 59.7139C24.6103 59.7436 24.5833 59.7584 24.556 59.7584C24.5154 59.7584 24.4951 59.7337 24.4951 59.6844C24.4951 59.6302 24.5222 59.5757 24.5765 59.5216C24.7349 59.3536 24.8967 59.1871 25.0619 59.0218C25.2271 58.8564 25.3912 58.695 25.554 58.5368C25.6357 58.4579 25.7215 58.3813 25.8123 58.3076C25.9026 58.2333 25.9954 58.1666 26.0904 58.1074C26.1856 58.0481 26.2828 58.0001 26.3825 57.9633C26.4818 57.9261 26.5838 57.9074 26.6881 57.9074C26.7016 57.9074 26.7152 57.9088 26.7287 57.9114C26.7422 57.9139 26.756 57.9151 26.7695 57.9151C26.8645 57.8461 26.9526 57.7954 27.0343 57.7633C27.1157 57.731 27.2062 57.7151 27.3059 57.7151C27.3964 57.7151 27.4788 57.7372 27.5535 57.7817C27.6284 57.826 27.6929 57.8853 27.7473 57.9593C27.8016 58.0336 27.8432 58.1198 27.8726 58.2185C27.902 58.3172 27.9169 58.4211 27.9169 58.5294C27.9169 58.7367 27.8737 58.9503 27.7878 59.1698C27.7017 59.3894 27.5592 59.603 27.3602 59.81C27.4011 59.825 27.4552 59.8324 27.523 59.8324C27.6227 59.8324 27.7142 59.8041 27.798 59.7473C27.8817 59.6906 27.9756 59.603 28.0797 59.4844C28.1023 59.4597 28.1249 59.4475 28.1478 59.4475C28.1928 59.4475 28.2155 59.4748 28.2155 59.5289C28.2155 59.5686 28.1928 59.6129 28.1478 59.6622C28.03 59.7904 27.9054 59.8894 27.7743 59.9583C27.643 60.0276 27.5004 60.0619 27.3467 60.0619C27.3012 60.0619 27.265 60.0607 27.238 60.0582C27.2109 60.0559 27.188 60.0522 27.1701 60.0471C27.0478 60.2 26.8702 60.3384 26.6371 60.4618C26.4041 60.5852 26.1221 60.647 25.7918 60.647C25.4976 60.647 25.2848 60.5716 25.1535 60.4212Z" fill="#C3B072"/>
<path fill-rule="evenodd" clip-rule="evenodd" d="M33.2867 57.9074C33.1962 57.9814 33.1002 58.0716 32.9983 58.1777C32.8963 58.2838 32.7946 58.3986 32.6929 58.522C32.5909 58.6454 32.5038 58.754 32.4315 58.8479C32.5808 58.8329 32.7267 58.7946 32.8692 58.7331C33.0118 58.6715 33.1387 58.5975 33.2495 58.511C33.3603 58.4247 33.4498 58.3309 33.5177 58.2296C33.5856 58.1286 33.6197 58.0285 33.6197 57.9295C33.6197 57.8952 33.6106 57.8643 33.5923 57.8371C33.5741 57.8104 33.5424 57.7965 33.4972 57.7965C33.4475 57.7965 33.3775 57.8336 33.2867 57.9074ZM33.2495 55.6236C33.3286 55.5816 33.3931 55.5606 33.443 55.5606C33.5063 55.5606 33.5585 55.5816 33.5991 55.6236C33.64 55.6656 33.6602 55.7234 33.6602 55.7977C33.6602 55.916 33.6184 56.0629 33.5346 56.2382C33.4509 56.4135 33.3377 56.6058 33.1952 56.8157C33.0526 57.0253 32.8885 57.2462 32.703 57.4783C32.5173 57.7103 32.3228 57.942 32.1191 58.174C32.0827 58.2333 32.0309 58.3246 31.963 58.448C31.8951 58.5714 31.8215 58.7033 31.7422 58.844C31.6631 58.9846 31.5848 59.1242 31.5081 59.2623C31.4311 59.4007 31.37 59.5139 31.3247 59.603C31.3112 59.6325 31.3044 59.6549 31.3044 59.6696C31.3044 59.6844 31.3112 59.6917 31.3247 59.6917C31.3382 59.6917 31.3585 59.6747 31.3858 59.6401C31.5669 59.3783 31.7523 59.1143 31.9425 58.8479C32.1326 58.581 32.3228 58.3408 32.5129 58.1261C32.703 57.9114 32.8932 57.7361 33.0833 57.6002C33.2732 57.4646 33.4589 57.3969 33.6399 57.3969C33.7846 57.3969 33.899 57.4349 33.9828 57.5114C34.0665 57.588 34.1084 57.683 34.1084 57.7965C34.1084 57.9151 34.0756 58.0396 34.0098 58.1703C33.9443 58.3011 33.847 58.427 33.718 58.5478C33.589 58.669 33.4306 58.7776 33.2428 58.8737C33.055 58.9699 32.8412 59.0402 32.6011 59.0848C32.5784 59.2328 32.5615 59.3636 32.5501 59.4773C32.5389 59.5908 32.5332 59.6943 32.5332 59.7879C32.5332 59.9311 32.5467 60.0346 32.574 60.099C32.6011 60.1631 32.644 60.2077 32.703 60.2323C32.7075 60.2372 32.7186 60.2397 32.7368 60.2397C32.7912 60.2397 32.8635 60.2091 32.9543 60.1473C33.0446 60.0854 33.1374 60.0125 33.2326 59.9286C33.3276 59.8446 33.4168 59.7598 33.5008 59.6733C33.5843 59.5868 33.6488 59.519 33.6943 59.4697C33.7123 59.4501 33.7325 59.4402 33.7554 59.4402C33.8004 59.4402 33.8231 59.4648 33.8231 59.5139C33.8231 59.5635 33.7984 59.6129 33.7484 59.6622C33.7032 59.7065 33.6272 59.7879 33.5211 59.9064C33.4147 60.025 33.2958 60.1447 33.1647 60.2655C33.0334 60.3866 32.8999 60.495 32.7642 60.5911C32.6284 60.6876 32.5106 60.7355 32.4109 60.7355C32.2978 60.7355 32.2062 60.6725 32.136 60.5469C32.0658 60.4212 32.0309 60.284 32.0309 60.1359C32.0309 59.9978 32.0411 59.8472 32.0613 59.6844C32.0819 59.5216 32.1076 59.3761 32.1394 59.2476C32.0988 59.2918 32.0309 59.3761 31.9357 59.4994C31.8408 59.6225 31.7344 59.7584 31.6166 59.9064C31.499 60.0545 31.3825 60.1989 31.267 60.3398C31.1515 60.4802 31.0532 60.5923 30.9717 60.6765C30.9127 60.7307 30.8472 60.7579 30.7748 60.7579C30.6934 60.7579 30.6188 60.733 30.5506 60.6836C30.4827 60.6345 30.4489 60.5753 30.4489 60.506C30.4489 60.4618 30.4783 60.3742 30.5371 60.2434C30.5959 60.1126 30.6695 59.962 30.7577 59.7919C30.8461 59.6214 30.9421 59.4436 31.0464 59.2586C31.1504 59.0737 31.2477 58.9021 31.3382 58.7441C31.2386 58.8329 31.1494 58.9183 31.0701 58.9997C30.991 59.0811 30.9163 59.1585 30.8461 59.2328C30.7759 59.3068 30.707 59.3809 30.6391 59.4546C30.5709 59.5289 30.4986 59.603 30.4216 59.677C30.3855 59.7116 30.3493 59.7286 30.3132 59.7286C30.277 59.7286 30.2588 59.709 30.2588 59.6696C30.2588 59.6203 30.2929 59.561 30.3605 59.4918C30.4557 59.3934 30.5699 59.2762 30.7036 59.1401C30.837 59.0048 30.9671 58.8726 31.094 58.7441C31.2207 58.6156 31.3338 58.501 31.4332 58.4001C31.5328 58.2988 31.5986 58.2333 31.6303 58.2035C31.8564 57.8039 32.0874 57.4017 32.3228 56.9969C32.5582 56.5925 32.8024 56.1948 33.056 55.8048C33.1057 55.726 33.1702 55.6656 33.2495 55.6236Z" fill="#C3B072"/>
<path fill-rule="evenodd" clip-rule="evenodd" d="M36.1989 58.0668C36.1625 58.163 36.1162 58.2653 36.0598 58.374C36.0031 58.4826 35.9398 58.5949 35.8696 58.7106C35.7994 58.8269 35.7305 58.9364 35.6626 59.0402C35.5947 59.144 35.5322 59.2379 35.4758 59.3216C35.4191 59.4058 35.3772 59.4671 35.3502 59.5068C35.4181 59.4325 35.5065 59.3414 35.615 59.2328C35.7237 59.1242 35.8426 59.0082 35.9713 58.8848C36.1003 58.7614 36.2351 58.6383 36.3753 58.5147C36.5155 58.3913 36.6549 58.2804 36.793 58.1814C36.9309 58.083 37.0612 58.0024 37.1834 57.9409C37.3057 57.8793 37.4141 57.8481 37.5093 57.8481C37.5817 57.8481 37.6381 57.8606 37.6789 57.8853C37.7198 57.9099 37.7401 57.9568 37.7401 58.026C37.7401 58.1099 37.7094 58.216 37.6482 58.3442C37.5874 58.473 37.5114 58.6085 37.4209 58.7515C37.3304 58.8947 37.2331 59.0414 37.1291 59.1923C37.0248 59.3426 36.9275 59.4844 36.837 59.6177C36.7464 59.751 36.6708 59.8682 36.6096 59.9694C36.5485 60.0707 36.5181 60.1458 36.5181 60.1952C36.5181 60.2346 36.5495 60.2545 36.613 60.2545C36.6718 60.2545 36.7555 60.2272 36.8643 60.1731C36.9727 60.1186 37.0882 60.0508 37.2105 59.9694C37.3327 59.888 37.4524 59.8018 37.5705 59.7105C37.688 59.6191 37.7809 59.534 37.8485 59.4546C37.8758 59.4254 37.9029 59.4104 37.9302 59.4104C37.9755 59.4104 37.9981 59.435 37.9981 59.4844C37.9981 59.5289 37.9799 59.5709 37.944 59.6103C37.8894 59.6696 37.7955 59.7621 37.662 59.888C37.5283 60.0137 37.3777 60.1407 37.2105 60.2692C37.043 60.3977 36.8687 60.5097 36.6877 60.6062C36.5066 60.7023 36.3415 60.7505 36.1922 60.7505C36.0878 60.7505 35.9963 60.7259 35.9172 60.6765C35.8379 60.6269 35.7983 60.5528 35.7983 60.4544C35.7983 60.3756 35.8254 60.278 35.8798 60.162C35.9341 60.046 36.0031 59.9226 36.0868 59.7919C36.1706 59.6611 36.2611 59.5278 36.3584 59.3919C36.4556 59.2561 36.5485 59.1279 36.6367 59.0068C36.7251 58.8862 36.8021 58.781 36.8677 58.6922C36.9332 58.6034 36.9727 58.5368 36.9863 58.4925C36.9909 58.4775 36.9933 58.4653 36.9933 58.4554C36.9933 58.4406 36.9842 58.4333 36.966 58.4333C36.948 58.4333 36.9309 58.4381 36.9153 58.448C36.8994 58.4579 36.8801 58.4679 36.8575 58.4775C36.7215 58.5666 36.5576 58.6996 36.3651 58.8774C36.1729 59.055 35.9747 59.2501 35.771 59.4623C35.5674 59.6747 35.3728 59.8914 35.1871 60.1138C35.0016 60.3359 34.8476 60.5358 34.7257 60.7134C34.6892 60.7676 34.6396 60.7948 34.5761 60.7948C34.4991 60.7948 34.4278 60.7653 34.3623 60.7063C34.2967 60.647 34.264 60.59 34.264 60.5358C34.264 60.5112 34.265 60.4927 34.2673 60.4802C34.2694 60.468 34.2728 60.457 34.2775 60.4468C34.3045 60.3926 34.3555 60.305 34.4302 60.1841C34.5048 60.0633 34.592 59.9252 34.6916 59.7695C34.7912 59.614 34.8942 59.4512 35.0006 59.2808C35.1067 59.1109 35.2053 58.9489 35.2958 58.796C35.3863 58.6429 35.461 58.5084 35.52 58.3924C35.5786 58.2764 35.6082 58.1964 35.6082 58.1519C35.6082 58.1272 35.5947 58.115 35.5674 58.115C35.5494 58.115 35.5177 58.1272 35.4724 58.1519C35.3681 58.216 35.2482 58.3025 35.1124 58.4111C34.9767 58.5198 34.8307 58.6417 34.6747 58.7776C34.5186 58.9132 34.3589 59.0601 34.1958 59.2178C34.033 59.3761 33.8746 59.5363 33.7206 59.6991C33.6891 59.7337 33.6574 59.751 33.6257 59.751C33.5895 59.751 33.5713 59.7314 33.5713 59.6917C33.5713 59.6325 33.61 59.561 33.6868 59.4773C33.8317 59.3142 34.0114 59.1279 34.2265 58.9183C34.4414 58.7084 34.6598 58.5084 34.8817 58.3187C35.1033 58.1286 35.3151 57.9692 35.5166 57.841C35.718 57.7125 35.8798 57.6484 36.002 57.6484C36.0743 57.6484 36.1344 57.6621 36.182 57.6893C36.2293 57.7165 36.2533 57.7644 36.2533 57.8337C36.2533 57.8929 36.2351 57.9704 36.1989 58.0668Z" fill="#C3B072"/>
<path fill-rule="evenodd" clip-rule="evenodd" d="M40.3414 58.0628C40.2597 58.0628 40.1817 58.0878 40.1071 58.1371C40.0324 58.1865 39.9656 58.2531 39.9068 58.3368C39.8477 58.4211 39.8014 58.5183 39.7674 58.6292C39.7338 58.7404 39.7166 58.8601 39.7166 58.9886C39.7166 59.0873 39.7291 59.1724 39.7541 59.2439C39.7788 59.3154 39.8116 59.3772 39.8524 59.4291C39.8932 59.4807 39.9385 59.525 39.9882 59.5621C40.0379 59.5993 40.0901 59.6325 40.1445 59.6622C40.2938 59.4501 40.4137 59.2328 40.504 59.0107C40.5948 58.7886 40.64 58.5986 40.64 58.4406C40.64 58.189 40.5404 58.0628 40.3414 58.0628ZM39.16 60.3359C39.264 60.3359 39.3816 60.2987 39.513 60.2247C39.6443 60.1509 39.771 60.0471 39.8932 59.9141C39.8298 59.8843 39.7697 59.8497 39.713 59.81C39.6565 59.7709 39.6069 59.7227 39.5637 59.6659C39.5208 59.6092 39.4857 59.54 39.4586 59.4586C39.4313 59.3772 39.418 59.2796 39.418 59.1662C39.418 58.9787 39.437 58.8269 39.4755 58.7106C39.514 58.5949 39.5697 58.4849 39.642 58.3813C39.5967 58.4211 39.5242 58.4826 39.4248 58.5666C39.3249 58.6502 39.2253 58.7555 39.1259 58.8811C39.0263 59.0068 38.9381 59.15 38.8611 59.3105C38.7841 59.4708 38.7459 59.6427 38.7459 59.825C38.7459 60.1654 38.8838 60.3359 39.16 60.3359ZM38.3656 60.4212C38.2343 60.2703 38.1687 60.0891 38.1687 59.8769C38.1687 59.7632 38.1833 59.6472 38.2127 59.5289C38.2421 59.4104 38.2951 59.2895 38.3724 59.1662C38.2951 59.2354 38.2116 59.3205 38.1211 59.4214C38.0306 59.523 37.9401 59.6203 37.8493 59.7139C37.8223 59.7436 37.7952 59.7584 37.7679 59.7584C37.7273 59.7584 37.707 59.7337 37.707 59.6844C37.707 59.6302 37.7341 59.5757 37.7884 59.5216C37.9466 59.3536 38.1086 59.1871 38.2738 59.0218C38.439 58.8564 38.6031 58.695 38.7662 58.5368C38.8476 58.4579 38.9334 58.3813 39.0242 58.3076C39.1147 58.2333 39.2073 58.1666 39.3023 58.1074C39.3977 58.0481 39.495 58.0001 39.5944 57.9633C39.6937 57.9261 39.7957 57.9074 39.9 57.9074C39.9135 57.9074 39.9271 57.9088 39.9406 57.9114C39.9541 57.9139 39.9679 57.9151 39.9814 57.9151C40.0764 57.8461 40.1648 57.7954 40.2462 57.7633C40.3276 57.731 40.4181 57.7151 40.5178 57.7151C40.6083 57.7151 40.6907 57.7372 40.7654 57.7817C40.84 57.826 40.9048 57.8853 40.9592 57.9593C41.0133 58.0336 41.0554 58.1198 41.0848 58.2185C41.1139 58.3172 41.1288 58.4211 41.1288 58.5294C41.1288 58.7367 41.0858 58.9503 41 59.1698C40.9139 59.3894 40.7714 59.603 40.5721 59.81C40.6127 59.825 40.6671 59.8324 40.735 59.8324C40.8346 59.8324 40.9264 59.8041 41.0102 59.7473C41.0937 59.6906 41.1875 59.603 41.2918 59.4844C41.3145 59.4597 41.3371 59.4475 41.3597 59.4475C41.4047 59.4475 41.4274 59.4748 41.4274 59.5289C41.4274 59.5686 41.4047 59.6129 41.3597 59.6622C41.2419 59.7904 41.1176 59.8894 40.9862 59.9583C40.8549 60.0276 40.7123 60.0619 40.5583 60.0619C40.5133 60.0619 40.4769 60.0607 40.4499 60.0582C40.4228 60.0559 40.3999 60.0522 40.382 60.0471C40.2597 60.2 40.0821 60.3384 39.849 60.4618C39.6157 60.5852 39.334 60.647 39.0037 60.647C38.7095 60.647 38.4967 60.5716 38.3656 60.4212Z" fill="#C3B072"/>
<path fill-rule="evenodd" clip-rule="evenodd" d="M42.9719 59.8361C42.8338 60.0114 42.6922 60.1731 42.5474 60.3211C42.4025 60.4692 42.262 60.5923 42.1265 60.6913C41.9905 60.7897 41.8729 60.8393 41.7733 60.8393C41.6828 60.8393 41.6105 60.7888 41.5561 60.6876C41.5017 60.5863 41.4747 60.457 41.4747 60.2987C41.4747 60.1855 41.4916 60.0692 41.5254 59.9507C41.5595 59.8324 41.6001 59.7201 41.6479 59.614C41.6955 59.5079 41.7416 59.4118 41.7868 59.3253C41.8321 59.239 41.8661 59.1687 41.8888 59.1142C41.8029 59.1982 41.7098 59.2932 41.6105 59.3993C41.5108 59.5054 41.4315 59.5908 41.3727 59.6549C41.3275 59.7039 41.289 59.7286 41.2575 59.7286C41.2211 59.7286 41.2031 59.7065 41.2031 59.6622C41.2031 59.6078 41.2369 59.5437 41.3051 59.4696C41.3774 59.3908 41.4791 59.2847 41.6105 59.1514C41.7416 59.0178 41.8786 58.876 42.0212 58.7257C42.1637 58.5751 42.3008 58.4256 42.4321 58.2778C42.563 58.1298 42.6673 58.0038 42.7443 57.9C42.7713 57.8606 42.8077 57.8325 42.853 57.8149C42.8983 57.7979 42.9456 57.7891 42.9955 57.7891C43.059 57.7891 43.1131 57.8027 43.1586 57.83C43.2036 57.8572 43.2263 57.8952 43.2263 57.9445C43.2263 57.9545 43.225 57.9692 43.2231 57.9888C43.2205 58.0089 43.206 58.0384 43.1789 58.0779C43.0837 58.2211 42.975 58.3839 42.853 58.5666C42.7308 58.7489 42.6153 58.933 42.5068 59.1179C42.3981 59.3031 42.3063 59.4782 42.2316 59.6435C42.1569 59.8089 42.1195 59.9461 42.1195 60.0545C42.1195 60.109 42.1265 60.1532 42.14 60.1878C42.1536 60.2221 42.185 60.2397 42.2352 60.2397C42.2893 60.2397 42.3676 60.1929 42.4693 60.099C42.5713 60.0054 42.6831 59.8843 42.8054 59.7363C42.9276 59.5882 43.0543 59.4265 43.1857 59.2512C43.3168 59.076 43.4403 58.9058 43.5556 58.7404C43.671 58.5751 43.7704 58.4281 43.8542 58.2999C43.9382 58.1717 43.9936 58.0804 44.0206 58.0259C44.0477 57.9718 44.0851 57.9335 44.1327 57.9114C44.1801 57.889 44.229 57.8779 44.2787 57.8779C44.3374 57.8779 44.3884 57.8918 44.4313 57.9184C44.4743 57.9457 44.4958 57.9814 44.4958 58.0259C44.4958 58.0359 44.4948 58.0481 44.4925 58.0628C44.4904 58.0779 44.4847 58.0974 44.4756 58.1221C44.4391 58.2012 44.3783 58.3246 44.2922 58.4925C44.2063 58.6604 44.1179 58.838 44.0274 59.0255C43.9369 59.2132 43.8565 59.3933 43.7865 59.5658C43.7163 59.7385 43.6812 59.8693 43.6812 59.9583C43.6812 60.0125 43.6882 60.057 43.7015 60.0917C43.715 60.1263 43.7423 60.1433 43.7831 60.1433C43.8417 60.1433 43.9267 60.0928 44.0375 59.9915C44.1483 59.8906 44.2649 59.7709 44.3874 59.6324C44.5096 59.4943 44.6272 59.3536 44.7403 59.2104C44.8535 59.0675 44.9393 58.954 44.9984 58.87C45.0028 58.7861 45.0197 58.6811 45.0494 58.5555C45.0785 58.4296 45.1196 58.3076 45.1716 58.189C45.2234 58.0705 45.2892 57.9692 45.3685 57.8853C45.4473 57.8013 45.5415 57.7596 45.6502 57.7596C45.7272 57.7596 45.7904 57.7806 45.8401 57.8226C45.89 57.8643 45.9147 57.915 45.9147 57.9743C45.9147 58.0432 45.8945 58.121 45.8539 58.2075C45.8133 58.294 45.76 58.3864 45.6944 58.4849C45.6286 58.5839 45.555 58.6874 45.4736 58.796C45.3919 58.9046 45.3108 59.0133 45.2291 59.1219C45.2247 59.1514 45.2213 59.1798 45.2189 59.2067C45.2169 59.2339 45.2156 59.26 45.2156 59.2847C45.2156 59.3094 45.2169 59.3375 45.2189 59.3698C45.2213 59.4019 45.2291 59.4339 45.2426 59.466C45.2564 59.4983 45.2754 59.525 45.3006 59.5476C45.3253 59.5698 45.3605 59.5808 45.4057 59.5808C45.4689 59.5808 45.5368 59.5562 45.6094 59.5068C45.6367 59.4918 45.6614 59.4844 45.6843 59.4844C45.734 59.4844 45.7589 59.5094 45.7589 59.5587C45.7589 59.6078 45.7168 59.6597 45.633 59.7139C45.5493 59.7683 45.4601 59.7955 45.3649 59.7955C45.2699 59.7955 45.1919 59.7621 45.1308 59.6954C45.0696 59.629 45.039 59.5388 45.039 59.4254C45.039 59.4155 45.0403 59.4044 45.0426 59.3919C45.0447 59.3797 45.0457 59.3661 45.0457 59.3511C45.0051 59.4058 44.9495 59.4796 44.8795 59.5732C44.8093 59.6671 44.7302 59.7683 44.642 59.8769C44.5536 59.9856 44.4587 60.0951 44.3567 60.2062C44.2547 60.3171 44.152 60.4173 44.0477 60.506C43.9436 60.5951 43.8409 60.6677 43.7389 60.7244C43.637 60.7812 43.5431 60.8098 43.4572 60.8098C43.3168 60.8098 43.2138 60.7627 43.1482 60.6691C43.0827 60.5753 43.0499 60.457 43.0499 60.3137C43.0499 60.2397 43.059 60.1594 43.077 60.0729C43.0949 59.9867 43.1186 59.9005 43.1482 59.814C43.1776 59.7275 43.2093 59.6435 43.2434 59.5621C43.2772 59.4807 43.3079 59.4078 43.335 59.344C43.2307 59.4969 43.1097 59.6611 42.9719 59.8361Z" fill="#C3B072"/>
<path fill-rule="evenodd" clip-rule="evenodd" d="M46.6684 60.2655C46.6502 60.3273 46.6218 60.3841 46.5836 60.4357C46.5451 60.4876 46.4964 60.5307 46.4376 60.5653C46.3786 60.5999 46.3086 60.6172 46.227 60.6172C46.0823 60.6172 46.0098 60.5432 46.0098 60.3951C46.0098 60.3458 46.0269 60.2916 46.0607 60.2323C46.0948 60.173 46.1377 60.1186 46.1898 60.0692C46.2418 60.0202 46.2995 59.9793 46.363 59.9473C46.4262 59.9149 46.4894 59.899 46.5529 59.899C46.6161 59.899 46.6559 59.9175 46.6717 59.9546C46.6876 59.9915 46.6954 60.0397 46.6954 60.099C46.6954 60.1484 46.6863 60.204 46.6684 60.2655Z" fill="#C3B072"/>
<path fill-rule="evenodd" clip-rule="evenodd" d="M48.0258 60.2655C48.0076 60.3273 47.9795 60.3841 47.941 60.4357C47.9025 60.4876 47.8536 60.5307 47.7951 60.5653C47.736 60.5999 47.6661 60.6172 47.5846 60.6172C47.4395 60.6172 47.3672 60.5432 47.3672 60.3951C47.3672 60.3458 47.3844 60.2916 47.4182 60.2323C47.452 60.173 47.4949 60.1186 47.5474 60.0692C47.5992 60.0202 47.6567 59.9793 47.7204 59.9473C47.7836 59.9149 47.8471 59.899 47.9103 59.899C47.9738 59.899 48.0136 59.9175 48.0292 59.9546C48.045 59.9915 48.0531 60.0397 48.0531 60.099C48.0531 60.1484 48.044 60.204 48.0258 60.2655Z" fill="#C3B072"/>
<path fill-rule="evenodd" clip-rule="evenodd" d="M49.3839 60.2655C49.366 60.3273 49.3374 60.3841 49.2991 60.4357C49.2606 60.4876 49.212 60.5307 49.1532 60.5653C49.0944 60.5999 49.0242 60.6172 48.9428 60.6172C48.7979 60.6172 48.7256 60.5432 48.7256 60.3951C48.7256 60.3458 48.7425 60.2916 48.7763 60.2323C48.8104 60.173 48.8533 60.1186 48.9053 60.0692C48.9573 60.0202 49.0151 59.9793 49.0786 59.9473C49.1418 59.9149 49.2052 59.899 49.2687 59.899C49.3319 59.899 49.3714 59.9175 49.3876 59.9546C49.4032 59.9915 49.4112 60.0397 49.4112 60.099C49.4112 60.1484 49.4019 60.204 49.3839 60.2655Z" fill="#C3B072"/>
<path fill-rule="evenodd" clip-rule="evenodd" d="M51.1938 57.5114C51.0469 57.5435 50.9095 57.5721 50.7831 57.5968C50.774 57.5968 50.7662 57.5979 50.7592 57.6002C50.7524 57.6028 50.7446 57.6039 50.7355 57.6039C50.6903 57.6039 50.6676 57.5843 50.6676 57.5446C50.6676 57.5004 50.6957 57.4473 50.7524 57.3858C50.8091 57.3239 50.8757 57.2805 50.9527 57.2559C51.075 57.2167 51.2165 57.177 51.377 57.1376C51.5377 57.0982 51.6974 57.0661 51.8558 57.0414C51.8873 56.9969 51.926 56.9402 51.971 56.871C52.0163 56.8021 52.0662 56.7292 52.1206 56.6529C52.175 56.5763 52.2304 56.496 52.2868 56.4121C52.3435 56.3281 52.3989 56.2493 52.4533 56.1752C52.4894 56.1307 52.556 56.0924 52.6533 56.0604C52.7506 56.0283 52.8403 56.0124 52.9217 56.0124C53.0214 56.0124 53.071 56.0371 53.071 56.0862C53.071 56.0964 53.0687 56.1086 53.0645 56.1233C53.0599 56.1381 53.0484 56.1576 53.0305 56.1823C52.9397 56.3108 52.8448 56.4441 52.7451 56.5822C52.6455 56.7207 52.5573 56.8415 52.4803 56.945C52.5256 56.9354 52.5969 56.9218 52.6944 56.9042C52.7917 56.8872 52.8957 56.871 53.0065 56.8562C53.1176 56.8415 53.2274 56.8279 53.3358 56.8157C53.4443 56.8032 53.5327 56.797 53.6006 56.797C53.637 56.797 53.655 56.8316 53.655 56.9008C53.655 56.9354 53.6482 56.9734 53.6347 57.0154C53.6209 57.0573 53.6006 57.0968 53.5736 57.1339C53.5463 57.1711 53.5125 57.2031 53.4716 57.2301C53.431 57.2573 53.3834 57.2735 53.3291 57.2783C53.1207 57.2882 52.9228 57.3004 52.735 57.3152C52.5472 57.3299 52.374 57.35 52.2155 57.3744C52.1386 57.4927 52.0402 57.6425 51.9203 57.8226C51.8002 58.0024 51.6735 58.1939 51.54 58.3961C51.4066 58.5986 51.2708 58.8059 51.1327 59.0178C50.9949 59.2302 50.8713 59.4291 50.7628 59.614C50.6541 59.7989 50.5657 59.9646 50.4978 60.1101C50.4302 60.2559 50.3961 60.3608 50.3961 60.4246C50.3961 60.4592 50.4052 60.4828 50.4231 60.495C50.4413 60.5072 50.4616 60.5137 50.4845 60.5137C50.5836 60.5137 50.6994 60.4728 50.8307 60.3914C50.9618 60.31 51.0921 60.2162 51.2212 60.1101C51.3502 60.004 51.4677 59.8954 51.5741 59.7845C51.6802 59.6733 51.7609 59.5882 51.815 59.5289C51.8467 59.4943 51.8784 59.4773 51.9102 59.4773C51.9508 59.4773 51.971 59.4969 51.971 59.5363C51.971 59.5561 51.9656 59.5797 51.9541 59.6066C51.943 59.6339 51.919 59.667 51.8831 59.7065C51.8194 59.7757 51.7255 59.8732 51.6014 59.9989C51.4766 60.1248 51.334 60.2496 51.1735 60.373C51.0128 60.4961 50.845 60.6047 50.671 60.6986C50.4968 60.7922 50.3326 60.8393 50.1789 60.8393C50.0475 60.8393 49.9456 60.801 49.8733 60.7244C49.801 60.6479 49.7645 60.5506 49.7645 60.4323C49.7645 60.3237 49.8077 60.183 49.8936 60.01C49.9796 59.8375 50.078 59.6622 50.189 59.4844C50.2998 59.3068 50.4086 59.1415 50.515 58.9886C50.6211 58.8354 50.6947 58.7294 50.7355 58.6701C50.6721 58.7393 50.5974 58.8207 50.5116 58.9143C50.4255 59.0082 50.336 59.1032 50.2434 59.1993C50.1503 59.2958 50.06 59.3882 49.9718 59.4773C49.8834 59.5658 49.8077 59.6401 49.7442 59.6991C49.7216 59.7189 49.699 59.7286 49.6764 59.7286C49.6358 59.7286 49.6152 59.7065 49.6152 59.6622C49.6152 59.6129 49.6402 59.5635 49.6899 59.5139C49.8212 59.376 49.9557 59.2365 50.0941 59.0958C50.232 58.9551 50.3664 58.8193 50.4978 58.6885C50.6291 58.5578 50.7537 58.4344 50.8713 58.3187C50.9889 58.2024 51.0929 58.1 51.1837 58.0112L51.6116 57.4263C51.4802 57.451 51.3411 57.4794 51.1938 57.5114Z" fill="#C3B072"/>
<path fill-rule="evenodd" clip-rule="evenodd" d="M53.2103 57.8742C53.2306 57.8422 53.2543 57.8124 53.2816 57.7854C53.3086 57.7582 53.3359 57.7349 53.363 57.7151C53.3903 57.6952 53.4106 57.6853 53.4241 57.6853C53.4423 57.6853 53.4556 57.6904 53.465 57.7003C53.5193 57.7695 53.5802 57.837 53.6483 57.904C53.716 57.9704 53.7805 58.0384 53.8416 58.1073C53.9027 58.1768 53.9547 58.2483 53.9977 58.3221C54.0406 58.3961 54.0622 58.4749 54.0622 58.5589C54.0622 58.6874 54.0226 58.817 53.9433 58.9478C53.8642 59.0785 53.7589 59.228 53.6278 59.3956C53.5599 59.4796 53.492 59.5587 53.4241 59.6324C53.3562 59.7065 53.2951 59.7768 53.2407 59.8438C53.1864 59.9101 53.1422 59.9731 53.1083 60.0324C53.0745 60.0917 53.0574 60.1458 53.0574 60.1952C53.0574 60.2692 53.1073 60.3061 53.2067 60.3061C53.3198 60.3061 53.4704 60.2357 53.6585 60.0951C53.846 59.9547 54.0442 59.7658 54.2526 59.5289C54.2887 59.4892 54.3205 59.4696 54.3475 59.4696C54.3837 59.4696 54.4019 59.4943 54.4019 59.5437C54.4019 59.5933 54.3766 59.6449 54.3272 59.6991C54.2094 59.8375 54.0838 59.9669 53.9503 60.088C53.8166 60.2091 53.6842 60.3152 53.5529 60.4062C53.4218 60.4975 53.2928 60.569 53.1661 60.6209C53.0394 60.6725 52.9218 60.6986 52.8131 60.6986C52.6997 60.6986 52.6001 60.6626 52.5143 60.5911C52.4282 60.5197 52.3852 60.4224 52.3852 60.2987C52.3852 60.1609 52.4373 60.0165 52.5416 59.8659C52.6456 59.7153 52.779 59.5485 52.9421 59.3661C53.1276 59.1585 53.2519 58.9997 53.3154 58.8885C53.3789 58.7776 53.4106 58.6851 53.4106 58.6108C53.4106 58.532 53.3958 58.4627 53.3664 58.4035C53.3367 58.3442 53.3086 58.2877 53.2816 58.2333C53.1955 58.3272 53.0948 58.4344 52.9793 58.5555C52.8641 58.6763 52.7429 58.8023 52.6162 58.933C52.4895 59.0638 52.3636 59.1934 52.2393 59.3216C52.1147 59.4501 52.0029 59.5686 51.9033 59.677C51.8533 59.7215 51.8151 59.7436 51.7878 59.7436C51.7519 59.7436 51.7334 59.7215 51.7334 59.677C51.7334 59.6325 51.7607 59.5808 51.8151 59.5215C51.9053 59.4228 52.013 59.3068 52.1376 59.1735C52.2619 59.0402 52.3889 58.9072 52.5176 58.7736C52.6466 58.6403 52.7712 58.511 52.8912 58.385C53.0108 58.2594 53.1141 58.1542 53.2002 58.0705C53.1955 58.0557 53.1911 58.0384 53.1864 58.0186C53.1819 57.999 53.1796 57.9766 53.1796 57.9522C53.1796 57.9323 53.1898 57.9063 53.2103 57.8742Z" fill="#C3B072"/>
<path fill-rule="evenodd" clip-rule="evenodd" d="M56.2723 57.704C56.3423 57.746 56.3774 57.7939 56.3774 57.8481C56.3774 57.8583 56.375 57.8716 56.3706 57.889C56.3662 57.9063 56.3524 57.9275 56.3298 57.9522C56.2393 58.0605 56.1206 58.2146 55.9734 58.4145C55.8265 58.6148 55.6803 58.8207 55.5357 59.0328C55.3905 59.245 55.2662 59.4475 55.1621 59.6401C55.0581 59.8324 55.0058 59.9756 55.0058 60.0692C55.0058 60.1484 55.042 60.1878 55.1145 60.1878C55.178 60.1878 55.2641 60.1498 55.3726 60.0729C55.4813 59.9966 55.6012 59.8965 55.7323 59.7731C55.8636 59.65 55.9994 59.5105 56.1399 59.3551C56.2801 59.1993 56.4156 59.0428 56.547 58.8848C56.6783 58.7268 56.7982 58.5739 56.907 58.4256C57.0157 58.2778 57.1015 58.1519 57.165 58.0481C57.1923 58.0038 57.2329 57.9814 57.2872 57.9814C57.3234 57.9814 57.3629 57.9902 57.4061 58.0075C57.449 58.0248 57.4886 58.0472 57.5247 58.0742C57.5611 58.1014 57.5903 58.1298 57.6131 58.1593C57.6358 58.189 57.6472 58.216 57.6472 58.2407C57.6472 58.2554 57.6381 58.2778 57.6199 58.3076C57.4886 58.49 57.3562 58.6738 57.2227 58.859C57.089 59.0439 56.9681 59.2169 56.8593 59.3772C56.7506 59.5374 56.6627 59.6807 56.5948 59.8066C56.5267 59.9323 56.4929 60.025 56.4929 60.084C56.4929 60.109 56.4986 60.1297 56.5098 60.1472C56.5212 60.1643 56.5428 60.1731 56.5743 60.1731C56.6151 60.1731 56.6739 60.1498 56.7506 60.1027C56.8276 60.0559 56.9093 59.9978 56.9954 59.9286C57.0812 59.8596 57.1637 59.7867 57.243 59.7104C57.3223 59.6339 57.3822 59.5658 57.4227 59.5068C57.4545 59.4671 57.4865 59.4475 57.5182 59.4475C57.5541 59.4475 57.5723 59.4696 57.5723 59.5139C57.5723 59.5587 57.552 59.6055 57.5112 59.6549C57.4615 59.719 57.3869 59.8004 57.2872 59.8991C57.1876 59.9978 57.0789 60.0928 56.9613 60.1841C56.8435 60.2754 56.7225 60.3543 56.5982 60.4212C56.4736 60.4876 56.3594 60.5208 56.2551 60.5208C56.1422 60.5208 56.0616 60.4938 56.014 60.4394C55.9667 60.3852 55.943 60.3061 55.943 60.2026C55.943 60.1138 55.9588 60.025 55.9906 59.9362C56.0221 59.8472 56.0561 59.7632 56.0923 59.6844C56.0514 59.7337 55.9791 59.808 55.8748 59.9064C55.7708 60.0054 55.6519 60.105 55.5185 60.2062C55.3848 60.3075 55.2493 60.3951 55.1111 60.4692C54.973 60.5432 54.8497 60.5801 54.7413 60.5801C54.5191 60.5801 54.4086 60.4692 54.4086 60.2468C54.4086 60.1433 54.4323 60.0312 54.4799 59.9101C54.5275 59.7893 54.5826 59.6696 54.6461 59.551C54.7095 59.4325 54.7728 59.3253 54.8362 59.2291C54.8994 59.133 54.947 59.0601 54.9788 59.0107C54.8656 59.1341 54.7717 59.2339 54.6971 59.3105C54.6224 59.3871 54.5509 59.4623 54.4833 59.5363C54.4154 59.6103 54.3698 59.6597 54.3472 59.6844C54.3157 59.719 54.284 59.7363 54.2523 59.7363C54.2117 59.7363 54.1914 59.7139 54.1914 59.6696C54.1914 59.6203 54.2161 59.5686 54.2661 59.5139C54.3428 59.4302 54.457 59.3105 54.6086 59.1551C54.7603 58.9997 54.921 58.8329 55.0909 58.6553C55.2605 58.4775 55.4259 58.3011 55.5864 58.1261C55.7471 57.9508 55.8725 57.8039 55.9633 57.6853C55.9812 57.6558 56.0176 57.6411 56.0717 57.6411C56.1352 57.6411 56.2018 57.662 56.2723 57.704Z" fill="#C3B072"/>
<path fill-rule="evenodd" clip-rule="evenodd" d="M58.0026 60.3285C58.0231 60.3778 58.0468 60.4258 58.0738 60.4729C58.1012 60.5197 58.1316 60.5605 58.1657 60.5951C58.1997 60.6294 58.2302 60.647 58.2572 60.647C58.2887 60.647 58.3184 60.6308 58.3454 60.5988C58.3727 60.5665 58.3985 60.5285 58.4237 60.4839C58.4484 60.4394 58.4713 60.3926 58.4916 60.3432C58.5119 60.2939 58.5288 60.2519 58.5423 60.2173C58.5061 60.2077 58.4643 60.1977 58.4169 60.1878C58.3693 60.1779 58.3217 60.1682 58.2744 60.1583C58.2265 60.1484 58.1813 60.1407 58.1384 60.1359C58.0952 60.1311 58.0624 60.1285 58.0398 60.1285C57.9948 60.1285 57.9721 60.1558 57.9721 60.2102C57.9721 60.2397 57.9823 60.2794 58.0026 60.3285ZM59.5573 57.4967C59.5869 57.5188 59.6015 57.552 59.6015 57.5968C59.6015 57.8138 59.589 58.0447 59.5643 58.2889C59.5393 58.5331 59.5065 58.7688 59.4657 58.9957C59.4251 59.2229 59.3809 59.4302 59.3333 59.6177C59.2857 59.8055 59.2417 59.9532 59.2009 60.0619H59.2417C59.3141 60.0619 59.3944 60.0398 59.4826 59.9955C59.571 59.9507 59.6582 59.8991 59.744 59.8398C59.8301 59.7805 59.9071 59.7201 59.975 59.6583C60.0429 59.5967 60.0949 59.5462 60.1311 59.5068C60.1672 59.4623 60.1989 59.4402 60.2262 59.4402C60.2621 59.4402 60.2806 59.4623 60.2806 59.5068C60.2806 59.561 60.2577 59.6154 60.2127 59.6696C60.1854 59.7039 60.1344 59.7561 60.0598 59.825C59.9851 59.8942 59.9003 59.9632 59.8054 60.0324C59.7102 60.1016 59.6095 60.162 59.5029 60.2136C59.3968 60.2655 59.2938 60.2916 59.1941 60.2916C59.1577 60.2916 59.1309 60.2891 59.1127 60.284C59.1036 60.2987 59.0831 60.3444 59.0516 60.4212C59.0199 60.4975 58.9746 60.5789 58.9158 60.6655C58.857 60.7517 58.7889 60.8283 58.7122 60.8949C58.6349 60.9616 58.5491 60.9947 58.4541 60.9947C58.3363 60.9947 58.2289 60.9601 58.1316 60.8912C58.0343 60.822 57.9506 60.7369 57.8803 60.6357C57.8104 60.5347 57.756 60.4258 57.7175 60.3101C57.679 60.1941 57.6598 60.0917 57.6598 60.0026C57.6598 59.909 57.7029 59.8622 57.7888 59.8622C57.9019 59.8622 58.0309 59.8758 58.1758 59.903C58.3207 59.93 58.4723 59.9657 58.6307 60.01C58.6713 59.9016 58.7132 59.7632 58.7561 59.5956C58.799 59.428 58.8378 59.2561 58.8719 59.0811C58.9057 58.9058 58.9327 58.7404 58.953 58.585C58.9736 58.4296 58.9837 58.3099 58.9837 58.2256C58.9837 58.1964 58.9816 58.174 58.977 58.1593C58.805 58.3467 58.5889 58.57 58.3285 58.8292C58.0684 59.0882 57.7864 59.3732 57.4834 59.6844C57.447 59.719 57.4106 59.7363 57.3747 59.7363C57.3385 59.7363 57.3203 59.7164 57.3203 59.677C57.3203 59.6325 57.3497 59.5783 57.4088 59.5139C57.5399 59.376 57.6959 59.2155 57.8769 59.0329C58.058 58.8505 58.238 58.6675 58.4169 58.4849C58.5956 58.3025 58.7618 58.1298 58.9158 57.9667C59.0695 57.8039 59.185 57.6706 59.2623 57.567C59.2982 57.5225 59.3286 57.4941 59.3536 57.4817C59.3786 57.4695 59.409 57.4632 59.4454 57.4632C59.4907 57.4632 59.5279 57.4746 59.5573 57.4967Z" fill="#C3B072"/>
<path fill-rule="evenodd" clip-rule="evenodd" d="M61.6216 57.5114C61.4746 57.5435 61.3373 57.5721 61.2109 57.5968C61.2018 57.5968 61.1937 57.5979 61.1869 57.6002C61.1802 57.6028 61.1721 57.6039 61.1633 57.6039C61.1177 57.6039 61.0954 57.5843 61.0954 57.5446C61.0954 57.5004 61.1235 57.4473 61.1802 57.3858C61.2366 57.3239 61.3035 57.2805 61.3805 57.2559C61.5027 57.2167 61.6442 57.177 61.8047 57.1376C61.9654 57.0982 62.1249 57.0661 62.2836 57.0414C62.315 56.9969 62.3535 56.9402 62.3988 56.871C62.444 56.8021 62.4937 56.7292 62.5481 56.6529C62.6024 56.5763 62.6578 56.496 62.7146 56.4121C62.7713 56.3281 62.8267 56.2493 62.881 56.1752C62.9169 56.1307 62.9838 56.0924 63.081 56.0604C63.1783 56.0283 63.2681 56.0124 63.3495 56.0124C63.4488 56.0124 63.4988 56.0371 63.4988 56.0862C63.4988 56.0964 63.4964 56.1086 63.492 56.1233C63.4876 56.1381 63.4762 56.1576 63.4579 56.1823C63.3674 56.3108 63.2725 56.4441 63.1729 56.5822C63.0732 56.7207 62.9851 56.8415 62.9081 56.945C62.9533 56.9354 63.0243 56.9218 63.1219 56.9042C63.2194 56.8872 63.3235 56.871 63.4343 56.8562C63.5451 56.8415 63.6549 56.8279 63.7636 56.8157C63.872 56.8032 63.9605 56.797 64.0284 56.797C64.0648 56.797 64.0827 56.8316 64.0827 56.9008C64.0827 56.9354 64.0757 56.9734 64.0624 57.0154C64.0487 57.0573 64.0284 57.0968 64.0011 57.1339C63.974 57.1711 63.9402 57.2031 63.8993 57.2301C63.8588 57.2573 63.8112 57.2735 63.7568 57.2783C63.5485 57.2882 63.3503 57.3004 63.1627 57.3152C62.9749 57.3299 62.8017 57.35 62.6433 57.3744C62.5663 57.4927 62.468 57.6425 62.3481 57.8226C62.2279 58.0024 62.1012 58.1939 61.9678 58.3961C61.8341 58.5986 61.6986 58.8059 61.5605 59.0178C61.4223 59.2302 61.299 59.4291 61.1906 59.614C61.0818 59.7989 60.9934 59.9646 60.9255 60.1101C60.8576 60.2559 60.8238 60.3608 60.8238 60.4246C60.8238 60.4592 60.8329 60.4828 60.8509 60.495C60.8688 60.5072 60.8894 60.5137 60.912 60.5137C61.0114 60.5137 61.1271 60.4728 61.2582 60.3914C61.3893 60.31 61.5196 60.2162 61.6486 60.1101C61.7779 60.004 61.8955 59.8954 62.0019 59.7845C62.108 59.6733 62.1886 59.5882 62.2427 59.5289C62.2744 59.4943 62.3062 59.4773 62.3379 59.4773C62.3785 59.4773 62.3988 59.4969 62.3988 59.5363C62.3988 59.5561 62.3933 59.5797 62.3819 59.6066C62.3707 59.6339 62.3468 59.667 62.3106 59.7065C62.2471 59.7757 62.1532 59.8732 62.0289 59.9989C61.9043 60.1248 61.7618 60.2496 61.6013 60.373C61.4405 60.4961 61.2728 60.6047 61.0987 60.6986C60.9245 60.7922 60.7601 60.8393 60.6066 60.8393C60.4753 60.8393 60.3733 60.801 60.301 60.7244C60.2284 60.6479 60.1923 60.5506 60.1923 60.4323C60.1923 60.3237 60.2355 60.183 60.3213 60.01C60.4074 59.8375 60.5057 59.6622 60.6168 59.4844C60.7273 59.3068 60.836 59.1415 60.9427 58.9886C61.0488 58.8354 61.1224 58.7294 61.1633 58.6701C61.0998 58.7393 61.0251 58.8207 60.9393 58.9143C60.8532 59.0082 60.7637 59.1032 60.6711 59.1993C60.578 59.2958 60.4878 59.3882 60.3996 59.4773C60.3111 59.5658 60.2355 59.6401 60.172 59.6991C60.1494 59.7189 60.1267 59.7286 60.1041 59.7286C60.0635 59.7286 60.043 59.7065 60.043 59.6622C60.043 59.6129 60.0679 59.5635 60.1176 59.5139C60.249 59.376 60.3835 59.2365 60.5216 59.0958C60.6597 58.9551 60.7942 58.8193 60.9255 58.6885C61.0569 58.5578 61.1815 58.4344 61.299 58.3187C61.4166 58.2024 61.5206 58.1 61.6114 58.0112L62.0391 57.4263C61.908 57.451 61.7685 57.4794 61.6216 57.5114Z" fill="#C3B072"/>
<path fill-rule="evenodd" clip-rule="evenodd" d="M67.5662 57.4856C67.5163 57.4856 67.4679 57.4561 67.4203 57.3969C67.3727 57.3376 67.3376 57.2485 67.3149 57.1302C67.1339 57.2635 66.9563 57.4459 66.782 57.6782C66.6077 57.9099 66.4514 58.1567 66.3135 58.4182C66.1754 58.68 66.0646 58.9404 65.9808 59.1993C65.8971 59.4586 65.8552 59.6793 65.8552 59.8622C65.8552 60.0449 65.889 60.1694 65.9572 60.2357C66.0251 60.3027 66.138 60.3359 66.2966 60.3359C66.5091 60.3359 66.73 60.2718 66.9586 60.1433C67.187 60.0151 67.4122 59.846 67.6341 59.6361C67.856 59.4265 68.0661 59.1871 68.2654 58.9183C68.4646 58.6494 68.6392 58.3765 68.7885 58.1C68.9378 57.8234 69.0564 57.5546 69.1448 57.293C69.233 57.0312 69.2772 56.8021 69.2772 56.6047C69.2772 56.3973 69.2229 56.2345 69.1144 56.116C69.0057 55.9974 68.8335 55.9381 68.5981 55.9381C68.4714 55.9381 68.358 55.9566 68.2589 55.9937C68.1593 56.0306 68.0755 56.0751 68.0076 56.127C67.9395 56.1789 67.8864 56.2294 67.8479 56.2788C67.8094 56.3281 67.7855 56.3678 67.7766 56.3973C67.804 56.3823 67.8456 56.3613 67.902 56.3341C67.9587 56.3074 68.0141 56.2935 68.0685 56.2935C68.1093 56.2935 68.1387 56.3046 68.1569 56.327C68.1749 56.3491 68.184 56.3749 68.184 56.4047C68.184 56.4441 68.1728 56.4838 68.1502 56.523C68.1275 56.5627 68.0979 56.5896 68.062 56.6047C67.9847 56.6441 67.9168 56.6784 67.8583 56.7082C67.7993 56.7377 67.7361 56.7799 67.6679 56.8341C67.6453 56.8835 67.6307 56.9376 67.624 56.9969C67.6172 57.0559 67.6136 57.1129 67.6136 57.1671C67.6136 57.1966 67.6149 57.2264 67.6172 57.2559C67.6195 57.2857 67.6227 57.3129 67.6273 57.3376C67.6315 57.3523 67.6341 57.3722 67.6341 57.3969C67.6341 57.4561 67.6112 57.4856 67.5662 57.4856ZM65.5124 60.4692C65.3381 60.331 65.251 60.0917 65.251 59.751C65.251 59.4892 65.3098 59.1993 65.4276 58.8811C65.5452 58.5629 65.6991 58.2531 65.889 57.9522C66.0794 57.651 66.2943 57.3781 66.5344 57.1339C66.7742 56.8894 67.0161 56.7082 67.2608 56.5896C67.3376 56.3134 67.4949 56.0887 67.7324 55.916C67.9702 55.7433 68.2607 55.657 68.6051 55.657C68.7632 55.657 68.9125 55.6792 69.053 55.7234C69.1932 55.7679 69.3167 55.8372 69.4231 55.931C69.5293 56.0246 69.6143 56.1446 69.6778 56.2898C69.741 56.4356 69.7727 56.6095 69.7727 56.8117C69.7727 57.0636 69.7285 57.3339 69.6403 57.6223C69.5521 57.9114 69.4289 58.199 69.2702 58.4849C69.1118 58.7713 68.9229 59.0465 68.7034 59.3105C68.4839 59.5746 68.2441 59.808 67.9837 60.01C67.7233 60.2125 67.445 60.3742 67.1487 60.495C66.852 60.6158 66.55 60.6765 66.2423 60.6765C65.9299 60.6765 65.6867 60.6073 65.5124 60.4692Z" fill="#C3B072"/>
<path fill-rule="evenodd" clip-rule="evenodd" d="M69.4772 60.3285C69.4975 60.3778 69.5214 60.4258 69.5487 60.4729C69.5755 60.5197 69.6062 60.5605 69.64 60.5951C69.6741 60.6294 69.7045 60.647 69.7318 60.647C69.7636 60.647 69.793 60.6308 69.8203 60.5988C69.8473 60.5665 69.8733 60.5285 69.8981 60.4839C69.923 60.4394 69.9456 60.3926 69.9659 60.3432C69.9865 60.2939 70.0034 60.2519 70.0169 60.2173C69.9808 60.2077 69.9389 60.1977 69.8913 60.1878C69.8437 60.1779 69.7963 60.1682 69.7487 60.1583C69.7011 60.1484 69.6561 60.1407 69.613 60.1359C69.5701 60.1311 69.5373 60.1285 69.5146 60.1285C69.4694 60.1285 69.4468 60.1558 69.4468 60.2102C69.4468 60.2397 69.4569 60.2794 69.4772 60.3285ZM71.0321 57.4967C71.0613 57.5188 71.0763 57.552 71.0763 57.5968C71.0763 57.8138 71.0636 58.0447 71.0386 58.2889C71.0137 58.5331 70.9809 58.7688 70.9403 58.9957C70.8997 59.2229 70.8555 59.4302 70.8079 59.6177C70.7606 59.8055 70.7164 59.9532 70.6758 60.0619H70.7164C70.7887 60.0619 70.869 60.0398 70.9575 59.9955C71.0454 59.9507 71.1325 59.8991 71.2186 59.8398C71.3047 59.7805 71.3817 59.7201 71.4496 59.6583C71.5175 59.5967 71.5695 59.5462 71.6059 59.5068C71.6418 59.4623 71.6736 59.4402 71.7009 59.4402C71.737 59.4402 71.7552 59.4623 71.7552 59.5068C71.7552 59.561 71.7323 59.6154 71.6871 59.6696C71.66 59.7039 71.609 59.7561 71.5344 59.825C71.4597 59.8942 71.3749 59.9632 71.28 60.0324C71.1848 60.1016 71.0839 60.162 70.9778 60.2136C70.8714 60.2655 70.7684 60.2916 70.6687 60.2916C70.6326 60.2916 70.6053 60.2891 70.5873 60.284C70.5782 60.2987 70.5577 60.3444 70.5259 60.4212C70.4945 60.4975 70.449 60.5789 70.3904 60.6655C70.3314 60.7517 70.2638 60.8283 70.1868 60.8949C70.1098 60.9616 70.0239 60.9947 69.9287 60.9947C69.8109 60.9947 69.7035 60.9601 69.6062 60.8912C69.5087 60.822 69.4252 60.7369 69.3549 60.6357C69.2847 60.5347 69.2303 60.4258 69.1918 60.3101C69.1536 60.1941 69.1344 60.0917 69.1344 60.0026C69.1344 59.909 69.1773 59.8622 69.2634 59.8622C69.3763 59.8622 69.5055 59.8758 69.6502 59.903C69.7953 59.93 69.9467 59.9657 70.1051 60.01C70.1459 59.9016 70.1878 59.7632 70.231 59.5956C70.2739 59.428 70.3124 59.2561 70.3462 59.0811C70.3803 58.9058 70.4073 58.7404 70.4276 58.585C70.4482 58.4296 70.4583 58.3099 70.4583 58.2256C70.4583 58.1964 70.456 58.174 70.4513 58.1593C70.2794 58.3467 70.0632 58.57 69.8031 58.8292C69.5427 59.0882 69.261 59.3732 68.9578 59.6844C68.9213 59.719 68.8854 59.7363 68.8493 59.7363C68.8129 59.7363 68.7949 59.7164 68.7949 59.677C68.7949 59.6325 68.8243 59.5783 68.8831 59.5139C69.0145 59.376 69.1705 59.2155 69.3516 59.0329C69.5326 58.8505 69.7123 58.6675 69.8913 58.4849C70.07 58.3025 70.2364 58.1298 70.3904 57.9667C70.5442 57.8039 70.6597 57.6706 70.7366 57.567C70.7728 57.5225 70.8035 57.4941 70.8282 57.4817C70.8532 57.4695 70.8836 57.4632 70.92 57.4632C70.9653 57.4632 71.0025 57.4746 71.0321 57.4967Z" fill="#C3B072"/>
<path fill-rule="evenodd" clip-rule="evenodd" d="M73.0962 57.5114C72.949 57.5435 72.8119 57.5721 72.6852 57.5968C72.6764 57.5968 72.6686 57.5979 72.6615 57.6002C72.6548 57.6028 72.647 57.6039 72.6379 57.6039C72.5926 57.6039 72.57 57.5843 72.57 57.5446C72.57 57.5004 72.5981 57.4473 72.6548 57.3858C72.7115 57.3239 72.7783 57.2805 72.8551 57.2559C72.9773 57.2167 73.1188 57.177 73.2793 57.1376C73.4403 57.0982 73.5998 57.0661 73.7582 57.0414C73.7896 56.9969 73.8284 56.9402 73.8737 56.871C73.9187 56.8021 73.9686 56.7292 74.0229 56.6529C74.0773 56.5763 74.1327 56.496 74.1892 56.4121C74.2456 56.3281 74.3013 56.2493 74.3556 56.1752C74.3918 56.1307 74.4586 56.0924 74.5559 56.0604C74.6532 56.0283 74.7424 56.0124 74.8241 56.0124C74.9237 56.0124 74.9734 56.0371 74.9734 56.0862C74.9734 56.0964 74.9711 56.1086 74.9666 56.1233C74.9619 56.1381 74.9508 56.1576 74.9328 56.1823C74.842 56.3108 74.7471 56.4441 74.6475 56.5822C74.5478 56.7207 74.4594 56.8415 74.3829 56.945C74.4279 56.9354 74.4992 56.9218 74.5968 56.9042C74.694 56.8872 74.7978 56.871 74.9089 56.8562C75.0199 56.8415 75.1297 56.8279 75.2382 56.8157C75.3469 56.8032 75.4351 56.797 75.503 56.797C75.5391 56.797 75.5573 56.8316 75.5573 56.9008C75.5573 56.9354 75.5506 56.9734 75.5368 57.0154C75.5233 57.0573 75.503 57.0968 75.4759 57.1339C75.4486 57.1711 75.4145 57.2031 75.374 57.2301C75.3334 57.2573 75.2858 57.2735 75.2314 57.2783C75.0231 57.2882 74.8251 57.3004 74.6373 57.3152C74.4493 57.3299 74.2763 57.35 74.1179 57.3744C74.0409 57.4927 73.9423 57.6425 73.8227 57.8226C73.7025 58.0024 73.5758 58.1939 73.4424 58.3961C73.3089 58.5986 73.1729 58.8059 73.0351 59.0178C72.8969 59.2302 72.7736 59.4291 72.6649 59.614C72.5565 59.7989 72.468 59.9646 72.4001 60.1101C72.3325 60.2559 72.2984 60.3608 72.2984 60.4246C72.2984 60.4592 72.3073 60.4828 72.3255 60.495C72.3437 60.5072 72.364 60.5137 72.3866 60.5137C72.4862 60.5137 72.6017 60.4728 72.7331 60.3914C72.8642 60.31 72.9945 60.2162 73.1232 60.1101C73.2522 60.004 73.3698 59.8954 73.4762 59.7845C73.5826 59.6733 73.663 59.5882 73.7173 59.5289C73.7491 59.4943 73.7808 59.4773 73.8123 59.4773C73.8531 59.4773 73.8737 59.4969 73.8737 59.5363C73.8737 59.5561 73.8677 59.5797 73.8565 59.6066C73.845 59.6339 73.8214 59.667 73.7855 59.7065C73.722 59.7757 73.6278 59.8732 73.5035 59.9989C73.3789 60.1248 73.2364 60.2496 73.0756 60.373C72.9151 60.4961 72.7474 60.6047 72.5734 60.6986C72.3991 60.7922 72.235 60.8393 72.0812 60.8393C71.9499 60.8393 71.8479 60.801 71.7756 60.7244C71.7033 60.6479 71.6669 60.5506 71.6669 60.4323C71.6669 60.3237 71.7098 60.183 71.7959 60.01C71.8817 59.8375 71.9803 59.6622 72.0914 59.4844C72.2022 59.3068 72.3109 59.1415 72.4173 58.9886C72.5234 58.8354 72.597 58.7294 72.6379 58.6701C72.5744 58.7393 72.4998 58.8207 72.4137 58.9143C72.3278 59.0082 72.2383 59.1032 72.1457 59.1993C72.0529 59.2958 71.9624 59.3882 71.8739 59.4773C71.7857 59.5658 71.7098 59.6401 71.6466 59.6991C71.624 59.7189 71.6013 59.7286 71.5787 59.7286C71.5379 59.7286 71.5176 59.7065 71.5176 59.6622C71.5176 59.6129 71.5425 59.5635 71.5922 59.5139C71.7236 59.376 71.8581 59.2365 71.9964 59.0958C72.1343 58.9551 72.269 58.8193 72.4001 58.6885C72.5315 58.5578 72.6558 58.4344 72.7736 58.3187C72.8912 58.2024 72.9955 58.1 73.0858 58.0112L73.5137 57.4263C73.3823 57.451 73.2431 57.4794 73.0962 57.5114Z" fill="#C3B072"/>
<path fill-rule="evenodd" clip-rule="evenodd" d="M74.3652 59.9473C74.3811 59.9793 74.4068 59.9955 74.4432 59.9955C74.4885 59.9955 74.5496 59.9742 74.6266 59.9323C74.7036 59.8906 74.7905 59.835 74.888 59.7658C74.9853 59.6968 75.0881 59.6166 75.1968 59.525C75.3055 59.4339 75.414 59.3389 75.5227 59.2402C75.7128 59.0575 75.9006 58.8737 76.0861 58.6885C76.2718 58.5036 76.4258 58.3493 76.5481 58.2256C76.5028 58.2061 76.4484 58.1964 76.3852 58.1964C76.2536 58.1964 76.0715 58.2407 75.8385 58.3297C75.6054 58.4182 75.344 58.5935 75.0545 58.855C74.7962 59.0921 74.6128 59.2907 74.5044 59.4512C74.3956 59.6115 74.3413 59.7411 74.3413 59.8398C74.3413 59.8792 74.3493 59.915 74.3652 59.9473ZM75.8486 60.3432C75.9074 60.3432 75.9857 60.3101 76.083 60.2434C76.1803 60.1765 76.282 60.0951 76.3883 59.9989C76.4947 59.903 76.5988 59.8029 76.7007 59.6991C76.8024 59.5956 76.8919 59.5043 76.9689 59.4254C77.0006 59.3908 77.0345 59.3732 77.0706 59.3732C77.107 59.3732 77.125 59.3934 77.125 59.4325C77.125 59.4821 77.0932 59.5411 77.03 59.6103C76.9757 59.6696 76.8966 59.7547 76.7923 59.8659C76.6883 59.9768 76.5751 60.088 76.4529 60.1989C76.3309 60.3101 76.2029 60.4062 76.0695 60.4876C75.9358 60.569 75.8125 60.6099 75.6993 60.6099C75.568 60.6099 75.4683 60.5702 75.4007 60.4913C75.3328 60.4124 75.2987 60.3112 75.2987 60.1878C75.2987 60.0151 75.3315 59.8707 75.3973 59.7547C75.4629 59.6387 75.5297 59.534 75.5974 59.4402C75.5113 59.5241 75.396 59.6325 75.2511 59.7658C75.1063 59.8991 74.9559 60.0298 74.7996 60.1583C74.6435 60.2865 74.4898 60.3977 74.3382 60.4913C74.1865 60.5852 74.0606 60.632 73.961 60.632C73.8208 60.632 73.7214 60.5923 73.6624 60.5137C73.6036 60.4349 73.5742 60.3359 73.5742 60.2173C73.5742 60.0347 73.6161 59.8497 73.6999 59.6622C73.7836 59.4748 73.8965 59.2947 74.0393 59.1219C74.1818 58.9489 74.346 58.7875 74.5317 58.6369C74.7171 58.4863 74.9138 58.3544 75.1221 58.2407C75.3302 58.1272 75.543 58.0384 75.7602 57.9743C75.9776 57.9099 76.1857 57.8779 76.3852 57.8779C76.6024 57.8779 76.7788 57.8989 76.9145 57.9409C77.0503 57.9828 77.1432 58.0384 77.1929 58.1074C77.0209 58.305 76.8477 58.5121 76.6734 58.7294C76.4992 58.9463 76.342 59.1526 76.2019 59.3474C76.0614 59.5425 75.9472 59.7175 75.8588 59.8733C75.7706 60.0287 75.7266 60.1433 75.7266 60.2173C75.7266 60.3016 75.7672 60.3432 75.8486 60.3432Z" fill="#C3B072"/>
<path fill-rule="evenodd" clip-rule="evenodd" d="M79.196 58.4295C79.1736 58.3876 79.1554 58.3368 79.1419 58.2778C79.1328 58.2531 79.1122 58.2358 79.0807 58.2256C79.049 58.216 79.0129 58.2112 78.972 58.2112C78.8636 58.2112 78.7244 58.2628 78.5548 58.3666C78.3847 58.4704 78.2219 58.6034 78.0658 58.7665C77.9095 58.9293 77.775 59.1108 77.6619 59.3105C77.5484 59.5105 77.492 59.7039 77.492 59.8914C77.492 60.0202 77.5261 60.1152 77.5937 60.1764C77.6619 60.2383 77.7545 60.2692 77.8723 60.2692C78.0081 60.2692 78.1506 60.2397 78.2999 60.1804C78.4492 60.1211 78.5954 60.0471 78.7379 59.9583C78.8805 59.8693 79.0139 59.7709 79.1385 59.6622C79.2628 59.5536 79.3726 59.4501 79.4678 59.3511C79.4993 59.3168 79.5313 59.2995 79.563 59.2995C79.5945 59.2995 79.6103 59.3216 79.6103 59.3661C79.6103 59.4254 79.5763 59.4892 79.5086 59.5587C79.4134 59.6571 79.299 59.7672 79.1656 59.888C79.0321 60.0091 78.8862 60.1248 78.7278 60.2357C78.5691 60.3469 78.4029 60.4394 78.2289 60.5137C78.0544 60.5877 77.8814 60.6246 77.7095 60.6246C77.4649 60.6246 77.2678 60.5554 77.1185 60.4173C76.9692 60.2794 76.8945 60.0794 76.8945 59.8176C76.8945 59.6843 76.9252 59.5411 76.9861 59.3882C77.0475 59.2354 77.1299 59.0836 77.234 58.933C77.3383 58.7824 77.4623 58.6369 77.6075 58.4962C77.7524 58.3552 77.9071 58.2321 78.0726 58.1261C78.2377 58.02 78.411 57.9346 78.592 57.8705C78.7728 57.8064 78.9541 57.7744 79.1351 57.7744C79.1666 57.7744 79.2186 57.7758 79.2914 57.7778C79.3635 57.7806 79.4361 57.7917 79.5086 57.8112C79.5809 57.8311 79.6454 57.8592 79.7022 57.8963C79.7586 57.9335 79.7869 57.9842 79.7869 58.0481C79.7869 58.1025 79.7708 58.1556 79.7393 58.2075C79.7076 58.2594 79.6668 58.3062 79.6174 58.3481C79.5672 58.3901 79.5141 58.4247 79.4574 58.4517C79.4009 58.4789 79.35 58.4925 79.3047 58.4925C79.255 58.4925 79.2186 58.4715 79.196 58.4295Z" fill="#C3B072"/>
<path fill-rule="evenodd" clip-rule="evenodd" d="M81.8639 58.0628C81.7825 58.0628 81.7044 58.0878 81.6298 58.1371C81.5551 58.1865 81.4883 58.2531 81.4295 58.3368C81.3707 58.4211 81.3242 58.5183 81.2903 58.6292C81.2563 58.7404 81.2394 58.8601 81.2394 58.9886C81.2394 59.0873 81.2518 59.1724 81.2766 59.2439C81.3015 59.3154 81.3343 59.3772 81.3751 59.4291C81.416 59.4807 81.461 59.525 81.5109 59.5621C81.5606 59.5993 81.6126 59.6325 81.667 59.6622C81.8165 59.4501 81.9365 59.2328 82.027 59.0107C82.1175 58.7886 82.1627 58.5986 82.1627 58.4406C82.1627 58.189 82.0631 58.0628 81.8639 58.0628ZM80.6825 60.3359C80.7868 60.3359 80.9043 60.2987 81.0357 60.2247C81.167 60.1509 81.2937 60.0471 81.416 59.9141C81.3522 59.8843 81.2924 59.8497 81.236 59.81C81.1793 59.7709 81.1296 59.7227 81.0867 59.6659C81.0435 59.6092 81.0084 59.54 80.9813 59.4586C80.9543 59.3772 80.9405 59.2796 80.9405 59.1662C80.9405 58.9787 80.96 58.8269 80.9982 58.7106C81.0367 58.5949 81.0921 58.4849 81.1647 58.3813C81.1194 58.4211 81.0471 58.4826 80.9475 58.5666C80.8479 58.6502 80.748 58.7555 80.6486 58.8811C80.5493 59.0068 80.4608 59.15 80.3839 59.3105C80.3069 59.4708 80.2684 59.6427 80.2684 59.825C80.2684 60.1654 80.4065 60.3359 80.6825 60.3359ZM79.8883 60.4212C79.757 60.2703 79.6914 60.0891 79.6914 59.8769C79.6914 59.7632 79.706 59.6472 79.7357 59.5289C79.7648 59.4104 79.8181 59.2895 79.8951 59.1662C79.8181 59.2354 79.7344 59.3205 79.6438 59.4214C79.5531 59.523 79.4628 59.6203 79.3723 59.7139C79.3452 59.7436 79.3179 59.7584 79.2909 59.7584C79.25 59.7584 79.2295 59.7337 79.2295 59.6844C79.2295 59.6302 79.2568 59.5757 79.3112 59.5216C79.4696 59.3536 79.6314 59.1871 79.7965 59.0218C79.962 58.8564 80.1261 58.695 80.2889 58.5368C80.3703 58.4579 80.4562 58.3813 80.5469 58.3076C80.6372 58.2333 80.7301 58.1666 80.8253 58.1074C80.9202 58.0481 81.0175 58.0001 81.1171 57.9633C81.2167 57.9261 81.3187 57.9074 81.4227 57.9074C81.4363 57.9074 81.4498 57.9088 81.4633 57.9114C81.4771 57.9139 81.4906 57.9151 81.5041 57.9151C81.5993 57.8461 81.6873 57.7954 81.7689 57.7633C81.8504 57.731 81.9409 57.7151 82.0405 57.7151C82.131 57.7151 82.2137 57.7372 82.2884 57.7817C82.363 57.826 82.4275 57.8853 82.4816 57.9593C82.536 58.0336 82.5779 58.1198 82.6075 58.2185C82.6369 58.3172 82.6518 58.4211 82.6518 58.5294C82.6518 58.7367 82.6086 58.9503 82.5225 59.1698C82.4364 59.3894 82.2941 59.603 82.0949 59.81C82.1354 59.825 82.1898 59.8324 82.2577 59.8324C82.3573 59.8324 82.4489 59.8041 82.5326 59.7473C82.6164 59.6906 82.7103 59.603 82.8146 59.4844C82.8369 59.4597 82.8596 59.4475 82.8822 59.4475C82.9275 59.4475 82.9504 59.4748 82.9504 59.5289C82.9504 59.5686 82.9275 59.6129 82.8822 59.6622C82.7646 59.7904 82.6403 59.8894 82.509 59.9583C82.3776 60.0276 82.2351 60.0619 82.0811 60.0619C82.0358 60.0619 81.9999 60.0607 81.9726 60.0582C81.9456 60.0559 81.9229 60.0522 81.9047 60.0471C81.7825 60.2 81.6048 60.3384 81.3718 60.4618C81.1384 60.5852 80.8567 60.647 80.5267 60.647C80.2322 60.647 80.0194 60.5716 79.8883 60.4212Z" fill="#C3B072"/>
<path fill-rule="evenodd" clip-rule="evenodd" d="M83.8266 60.2655C83.8086 60.3273 83.78 60.3841 83.7418 60.4357C83.7033 60.4876 83.6546 60.5307 83.5956 60.5653C83.5371 60.5999 83.4668 60.6172 83.3854 60.6172C83.2403 60.6172 83.168 60.5432 83.168 60.3951C83.168 60.3458 83.1849 60.2916 83.2189 60.2323C83.253 60.173 83.2959 60.1186 83.348 60.0692C83.4 60.0202 83.4577 59.9793 83.5209 59.9473C83.5847 59.9149 83.6479 59.899 83.7113 59.899C83.7745 59.899 83.8141 59.9175 83.8299 59.9546C83.8458 59.9915 83.8539 60.0397 83.8539 60.099C83.8539 60.1484 83.8448 60.204 83.8266 60.2655Z" fill="#C3B072"/>
<path fill-rule="evenodd" clip-rule="evenodd" d="M83.3783 35.1897C83.1809 35.8809 82.907 36.4539 82.5772 36.9275C83.1884 34.686 83.0199 32.0629 82.252 29.7082C80.5353 24.4431 73.6151 23.7879 71.1053 28.7387C70.2795 30.3657 70.4948 32.9592 70.7895 34.7047C71.1282 36.704 72.4381 38.3809 73.8105 39.664C76.8324 42.4888 81.993 43.6908 83.4649 38.5633C83.743 37.5915 83.2173 35.7544 83.3783 35.1897ZM82.3834 34.2932C81.8192 36.5665 79.9139 37.8304 77.967 38.4311C77.948 38.4376 77.9321 38.4569 77.9163 38.4719C77.5599 38.3883 77.2002 38.2742 76.8376 38.1307C75.3976 37.5566 74.1127 36.5387 73.0234 35.3812C72.4686 34.7923 72.0048 34.113 71.6042 33.3937C71.4388 33.0957 71.3108 32.7763 71.1839 32.4569C71.1584 32.3934 71.1365 32.3429 71.1142 32.2947C72.3427 28.8306 77.3141 27.9925 79.8804 29.8183C80.6188 30.343 81.1892 31.1247 81.6533 31.9262C81.8637 32.289 82.0159 32.6878 82.1665 33.0818C82.277 33.3901 82.3636 33.7043 82.4341 34.0257C82.4196 34.1034 82.4026 34.1925 82.3834 34.2932Z" fill="#C3B072"/>
<path fill-rule="evenodd" clip-rule="evenodd" d="M28.033 29.1097C29.4157 28.7969 30.8781 28.8754 32.7751 29.1625C32.8729 29.1772 33.1501 25.7206 32.7751 25.6647C29.0542 25.1011 27.0012 25.3286 23.9566 27.7795C23.6587 28.0197 23.6483 31.1791 23.9566 31.2781C28.3933 32.7099 33.2456 33.9996 36.5807 37.5098C30.6305 39.181 24.9983 38.8888 19.5745 35.3392C20.3473 32.7266 20.4212 29.6654 20.004 27.0976C19.779 25.7124 19.3472 24.4958 18.7416 23.441C19.8031 24.3424 20.648 25.6619 21.1515 27.4544C20.9921 26.8855 21.5105 25.0557 21.2366 24.082C19.8398 19.1076 16.2742 17.9762 12.6187 18.8203C12.6129 18.8181 12.6075 18.8158 12.6018 18.8147C12.6025 18.8152 12.6018 18.8232 12.6018 18.824C10.594 19.2914 8.55966 20.3517 6.84424 21.7043C2.45516 25.1632 -0.486418 31.5226 1.70786 37.3768C3.01751 40.87 7.33429 42.759 10.5146 43.0356C13.9382 43.332 16.8262 40.8995 18.5229 37.8658C18.5554 38.0425 18.6139 38.1837 18.7169 38.2583C25.0274 42.8118 31.6144 42.8211 38.6533 40.3609C39.0114 40.2353 38.8871 37.2747 38.6954 36.9247C36.3094 32.5525 32.2585 30.5826 28.033 29.1097ZM16.0825 37.5127C11.8724 41.3962 3.75024 39.2238 1.65402 33.6317C1.5994 33.4746 1.55284 33.3154 1.51278 33.1543C1.53385 33.0514 1.55778 32.9098 1.58587 32.719C1.71645 32.1715 1.92583 31.6511 2.13886 31.1377C2.64764 29.913 3.40586 28.8196 4.21116 27.8095C5.86181 25.741 8.00719 24.1351 10.292 23.0209C11.0294 22.6622 11.7725 22.3995 12.5092 22.2211C12.5349 22.2668 12.5648 22.3028 12.6018 22.313C15.7964 23.2765 18.3892 25.2219 19.5412 28.7237C20.5629 31.8281 18.1681 35.5908 16.0825 37.5127Z" fill="#C3B072"/>
<path fill-rule="evenodd" clip-rule="evenodd" d="M43.8649 21.4899C44.1291 21.4837 44.0828 17.9859 43.8649 17.9921C41.6235 18.048 39.4334 18.4247 37.2519 18.8754C35.615 12.9948 34.0135 7.09833 33.448 0.931276C33.3583 -0.0517991 33.1601 -0.0517991 33.0698 0.931276C32.9457 2.2896 32.9457 3.69671 33.0698 5.05418C33.5112 9.85951 34.6684 14.5324 35.9263 19.1565C34.0811 19.5555 32.2372 19.9702 30.3688 20.2555C29.9922 20.3137 30.2718 23.7695 30.3688 23.7539C32.5444 23.4215 34.6867 22.9129 36.8349 22.4605C38.5053 28.4395 41.1873 35.3514 41.1101 41.6484C41.0965 42.7514 40.942 44.1707 41.2963 45.2343C41.3743 45.4669 41.6219 43.4432 41.6253 43.1978C41.7156 35.8838 40.0452 29.015 38.1721 22.1922C40.0496 21.8272 41.938 21.5384 43.8649 21.4899Z" fill="#C3B072"/>
<path fill-rule="evenodd" clip-rule="evenodd" d="M60.5711 38.7368C58.4195 35.2671 56.0965 31.9483 53.7191 28.6667C53.8743 28.2092 53.9539 25.252 53.678 25.233C45.9543 24.735 40.5711 33.1668 44.7284 40.6236C44.7424 40.644 44.7562 40.665 44.7703 40.6865C48.6428 40.4486 50.5671 37.317 51.6751 33.5897C51.9386 32.7017 52.0991 31.7694 52.2619 30.8555C52.3316 30.4652 54.6856 33.4862 54.8365 33.695C56.8115 36.4278 58.6986 39.2281 60.4853 42.1092C60.2824 41.7819 61.0453 39.5012 60.5711 38.7368ZM50.0372 33.9797C49.3724 35.1614 45.6981 38.837 44.3975 36.5049C43.1128 34.1993 45.2874 31.9401 46.8706 30.6221C48.3234 29.4118 50.1145 28.8667 51.9157 28.7365C51.5344 30.5801 50.9637 32.3313 50.0372 33.9797Z" fill="#C3B072"/>
<path fill-rule="evenodd" clip-rule="evenodd" d="M60.8273 33.6527C59.8768 31.8238 62.5476 29.5542 63.817 28.7648C65.4689 27.7369 67.376 27.5486 69.2179 27.8949C69.2813 27.9065 69.6223 24.4723 69.2179 24.3963C66.1072 23.8114 63.5407 24.938 61.4856 27.4669C60.0873 29.1857 60.0123 31.4769 60.0667 33.6462C60.2243 39.8674 66.1663 42.6246 71.222 41.9061C71.5896 41.854 71.3292 38.3928 71.222 38.4081C67.2949 38.9654 62.8873 37.617 60.8273 33.6527Z" fill="#C3B072"/>
<path fill-rule="evenodd" clip-rule="evenodd" d="M5.18032 49.0396C5.06379 49.5163 4.9288 50.0079 4.77533 50.5145L4.10035 52.8059H3.00243L1.08984 47.6951H2.2645L2.98916 49.7313C3.20791 50.3712 3.38531 50.9484 3.52031 51.4658H3.5471C3.67923 50.911 3.8327 50.3417 4.00671 49.7583L4.62681 47.6951H5.76141L6.38177 49.7583C6.55578 50.336 6.70899 50.9064 6.84138 51.4658H6.86791C7.03282 50.8542 7.20995 50.2759 7.39879 49.7313L8.12398 47.6951H9.29863L7.38579 52.8059H6.28761L5.61263 50.5145C5.45968 49.9974 5.32442 49.5058 5.20763 49.0396H5.18032Z" fill="black"/>
<path fill-rule="evenodd" clip-rule="evenodd" d="M9.92383 52.8059H11.0267V47.6951H9.92383V52.8059Z" fill="black"/>
<path fill-rule="evenodd" clip-rule="evenodd" d="M15.4189 50.0714C15.8509 50.5939 16.2021 51.057 16.4713 51.4621H16.4986C16.4624 50.7972 16.4448 50.3131 16.4448 50.0107V47.6951H17.5476V52.8071H16.3909L14.4289 50.4535C14.0837 50.0459 13.7266 49.5739 13.358 49.0367H13.3307C13.3666 49.6627 13.3846 50.1474 13.3846 50.4923V52.8071H12.2822V47.6951H13.4384L15.4189 50.0714Z" fill="black"/>
<path fill-rule="evenodd" clip-rule="evenodd" d="M18.8027 52.8071V47.6951H20.3962C20.5366 47.6951 20.6797 47.6988 20.8259 47.7062C20.971 47.7144 21.1125 47.7255 21.2506 47.7416C21.3882 47.7567 21.5219 47.7748 21.6515 47.797C21.7805 47.8174 21.8986 47.844 22.007 47.875C22.3277 47.9615 22.6113 48.078 22.8571 48.2261C23.1031 48.373 23.3094 48.548 23.4759 48.7491C23.6426 48.9508 23.7682 49.1748 23.8541 49.4244C23.9396 49.6718 23.9818 49.9412 23.9818 50.2317C23.9818 50.5076 23.9461 50.7646 23.8741 51.0057C23.8023 51.2462 23.6925 51.4652 23.5458 51.6637C23.3983 51.8637 23.2134 52.0376 22.9902 52.1904C22.7663 52.3416 22.5017 52.4653 22.1959 52.5623C21.9407 52.6431 21.6515 52.7052 21.3274 52.7455C21.0035 52.7861 20.6388 52.8071 20.2339 52.8071H18.8027ZM20.3598 52.0237C21.0048 52.0237 21.5084 51.9479 21.872 51.7976C22.1927 51.6632 22.4359 51.4669 22.6009 51.2096C22.7655 50.9535 22.848 50.6245 22.848 50.224C22.848 50.0161 22.8214 49.8272 22.7668 49.6587C22.713 49.4903 22.6349 49.3413 22.5332 49.21C22.4307 49.0787 22.3072 48.9655 22.1618 48.8716C22.0166 48.7775 21.852 48.6995 21.6694 48.6396C21.498 48.5823 21.3071 48.5426 21.0977 48.5171C20.8878 48.4907 20.6524 48.4782 20.3917 48.4782H19.9056V52.0237H20.3598Z" fill="black"/>
<path fill-rule="evenodd" clip-rule="evenodd" d="M30.5661 50.251C30.5661 50.6401 30.5005 50.9975 30.3699 51.3225C30.2399 51.647 30.049 51.9267 29.799 52.1607C29.5475 52.3967 29.2408 52.5782 28.8761 52.7072C28.512 52.8374 28.0971 52.9024 27.632 52.9024C27.1669 52.9024 26.7523 52.8374 26.3877 52.7072C26.0238 52.5782 25.7158 52.3967 25.4656 52.1607C25.2148 51.9267 25.0242 51.647 24.8936 51.3225C24.7633 50.9975 24.6982 50.6401 24.6982 50.251C24.6982 49.8613 24.7633 49.5047 24.8936 49.1797C25.0242 48.8549 25.2148 48.575 25.4656 48.341C25.7158 48.1058 26.0238 47.9249 26.3877 47.7947C26.7523 47.6639 27.1669 47.5993 27.632 47.5993C28.0971 47.5993 28.512 47.6639 28.8761 47.7947C29.2408 47.9249 29.5475 48.1058 29.799 48.341C30.049 48.575 30.2399 48.8549 30.3699 49.1797C30.5005 49.5047 30.5661 49.8613 30.5661 50.251ZM29.4278 50.251C29.4278 49.9404 29.3823 49.6684 29.2928 49.4355C29.2026 49.2012 29.078 49.0084 28.9188 48.8535C28.7598 48.6967 28.571 48.5812 28.3523 48.5052C28.133 48.4283 27.8926 48.3906 27.632 48.3906C27.3709 48.3906 27.1308 48.4283 26.9123 48.5052C26.6933 48.5812 26.5037 48.6967 26.345 48.8535C26.1858 49.0084 26.062 49.2012 25.9715 49.4355C25.8812 49.6684 25.8365 49.9404 25.8365 50.251C25.8365 50.5621 25.8812 50.8338 25.9715 51.0664C26.062 51.3001 26.1858 51.493 26.345 51.647C26.5037 51.8022 26.6933 51.9167 26.9123 51.9956C27.1308 52.073 27.3709 52.1119 27.632 52.1119C27.8926 52.1119 28.133 52.073 28.3523 51.9956C28.571 51.9167 28.7598 51.8022 28.9188 51.647C29.078 51.493 29.2026 51.3001 29.2928 51.0664C29.3823 50.8338 29.4278 50.5621 29.4278 50.251Z" fill="black"/>
<path fill-rule="evenodd" clip-rule="evenodd" d="M35.0118 49.0396C34.895 49.5163 34.76 50.0079 34.6068 50.5145L33.9321 52.8059H32.8337L30.9219 47.6951H32.0957L32.8207 49.7313C33.0397 50.3712 33.2168 50.9484 33.3518 51.4658H33.3783C33.5105 50.911 33.6639 50.3417 33.838 49.7583L34.4581 47.6951H35.5927L36.213 49.7583C36.3878 50.336 36.5402 50.9064 36.6726 51.4658H36.6994C36.8641 50.8542 37.0422 50.2759 37.23 49.7313L37.9552 47.6951H39.1299L37.2173 52.8059H36.1191L35.4439 50.5145C35.2909 49.9974 35.1559 49.5058 35.0389 49.0396H35.0118Z" fill="black"/>
<path fill-rule="evenodd" clip-rule="evenodd" d="M42.717 51.3401C42.717 51.2105 42.6793 51.1053 42.6044 51.025C42.5298 50.9445 42.427 50.8792 42.2985 50.8273C42.169 50.7763 42.0241 50.7357 41.8641 50.7045C41.7031 50.6722 41.5349 50.641 41.3577 50.6106C41.1234 50.5664 40.9002 50.5159 40.6877 50.4555C40.4746 50.3956 40.2868 50.3131 40.1248 50.2076C39.963 50.1026 39.8335 49.9668 39.7375 49.804C39.6415 49.6409 39.5936 49.4378 39.5936 49.193C39.5936 48.9236 39.6496 48.6876 39.7604 48.4879C39.8707 48.2874 40.0221 48.1223 40.2119 47.991C40.4031 47.8602 40.6263 47.7615 40.8828 47.6966C41.1397 47.6325 41.4277 47.5999 41.7492 47.5999C42.0704 47.5999 42.3927 47.6274 42.717 47.6801C43.0404 47.7337 43.3195 47.8024 43.5533 47.886V48.6882C43.2419 48.5841 42.9428 48.5095 42.6557 48.4613C42.3698 48.4142 42.1003 48.3898 41.8483 48.3898C41.4852 48.3898 41.2053 48.4465 41.0086 48.5585C40.8125 48.6706 40.7137 48.839 40.7137 49.0623C40.7137 49.193 40.7465 49.2994 40.8115 49.3836C40.8755 49.4679 40.9631 49.5371 41.0742 49.5918C41.185 49.6471 41.3125 49.6905 41.4563 49.7243C41.6004 49.7569 41.7533 49.7872 41.9159 49.8156C42.1703 49.8613 42.4143 49.9146 42.6476 49.9742C42.8796 50.034 43.0861 50.1171 43.2664 50.224C43.4461 50.3304 43.5882 50.4702 43.6932 50.643C43.7988 50.8148 43.8506 51.0341 43.8506 51.3013C43.8506 51.5772 43.791 51.8149 43.6706 52.0155C43.5502 52.2166 43.3808 52.3839 43.1595 52.5141C42.9392 52.6454 42.6715 52.7427 42.3568 52.806C42.0421 52.8703 41.6964 52.9018 41.3221 52.9018C40.9943 52.9018 40.6728 52.8752 40.3563 52.8199C40.0397 52.7654 39.7768 52.688 39.5674 52.5898V51.7982C39.8639 51.9085 40.1531 51.9871 40.4351 52.037C40.7173 52.0869 41.0086 52.1119 41.3083 52.1119C41.482 52.1119 41.6529 52.0991 41.821 52.0747C41.9893 52.0515 42.1401 52.0092 42.2736 51.9505C42.4073 51.8924 42.5144 51.8138 42.5951 51.712C42.6767 51.6121 42.717 51.4882 42.717 51.3401Z" fill="black"/>
<path fill-rule="evenodd" clip-rule="evenodd" d="M51.5903 50.0791C51.5489 50.428 51.4631 50.7419 51.3367 51.0224C51.2087 51.303 51.0487 51.5523 50.8573 51.7718C51.01 51.904 51.1541 52.0293 51.2888 52.149C51.4241 52.269 51.5445 52.3754 51.6509 52.4693C51.7573 52.5617 51.8447 52.638 51.9133 52.6979C51.9799 52.7583 52.021 52.7937 52.0361 52.8059H50.5153C50.4632 52.7512 50.406 52.6936 50.3451 52.6326C50.2812 52.5739 50.1969 52.4945 50.0918 52.3984C49.8015 52.5683 49.4883 52.6956 49.1562 52.7776C48.8235 52.8601 48.4856 52.9024 48.1441 52.9024C47.8668 52.9024 47.6158 52.8698 47.3877 52.8042C47.1596 52.7401 46.9645 52.648 46.8019 52.5294C46.6399 52.4114 46.5145 52.267 46.4245 52.098C46.3343 51.9289 46.29 51.7406 46.29 51.5347C46.29 51.3586 46.322 51.2006 46.3865 51.059C46.451 50.9175 46.5374 50.7901 46.6451 50.6747C46.7528 50.5601 46.8776 50.4572 47.0189 50.3639C47.1596 50.2705 47.3068 50.1846 47.4603 50.1057C47.3461 50.0119 47.2394 49.9171 47.1424 49.8232C47.0444 49.7285 46.9601 49.6312 46.8883 49.5285C46.8162 49.4273 46.7603 49.3192 46.7192 49.2063C46.6781 49.092 46.6583 48.9698 46.6583 48.8379C46.6583 48.6433 46.6994 48.47 46.7806 48.318C46.8605 48.1654 46.9783 48.0361 47.1318 47.9289C47.2839 47.8211 47.4709 47.7402 47.6907 47.6841C47.9116 47.6282 48.161 47.5993 48.4406 47.5993C48.7192 47.5993 48.9697 47.6254 49.1918 47.6759C49.4142 47.7272 49.6023 47.8029 49.7557 47.9033C49.9115 48.004 50.0309 48.1294 50.1144 48.2777C50.1987 48.4263 50.2401 48.5991 50.2401 48.7945C50.2401 48.9684 50.2096 49.1252 50.1464 49.2633C50.0829 49.4029 49.9979 49.5274 49.8902 49.64C49.781 49.7518 49.6569 49.8539 49.5162 49.9446C49.3757 50.0374 49.2282 50.1239 49.075 50.2056C49.2228 50.3324 49.39 50.4793 49.5789 50.6444C49.7685 50.81 49.9675 50.985 50.1779 51.1685C50.277 51.0205 50.3579 50.856 50.4227 50.6747C50.4872 50.4943 50.5296 50.2958 50.5511 50.0791H51.5903ZM48.2422 52.1607C48.4495 52.1607 48.6573 52.1346 48.8659 52.0813C49.075 52.0271 49.2727 51.9445 49.4615 51.8325C49.3487 51.7329 49.2324 51.6325 49.1156 51.5313C48.9978 51.4289 48.8828 51.3285 48.7691 51.2289C48.6547 51.1297 48.5426 51.0332 48.4339 50.9408C48.3246 50.8477 48.2219 50.759 48.1254 50.6747C48.0203 50.7309 47.9235 50.7902 47.8327 50.8503C47.743 50.9118 47.6655 50.9762 47.6015 51.046C47.5362 51.1149 47.4852 51.1889 47.4483 51.2664C47.4111 51.3458 47.3919 51.4314 47.3919 51.5236C47.3919 51.6303 47.4145 51.723 47.4603 51.8022C47.5047 51.8807 47.5654 51.9462 47.6413 52.0004C47.7188 52.0537 47.8086 52.0934 47.9116 52.1207C48.0151 52.1473 48.1254 52.1607 48.2422 52.1607ZM47.7612 48.8183C47.7612 48.8949 47.7758 48.9655 47.8036 49.0316C47.8314 49.0983 47.8744 49.1638 47.9298 49.2296C47.9857 49.2937 48.0523 49.3604 48.1321 49.4259C48.2117 49.4914 48.3007 49.5646 48.4008 49.6437C48.5046 49.5867 48.6029 49.5303 48.6924 49.4707C48.7824 49.4134 48.8607 49.3504 48.9265 49.2843C48.9926 49.2185 49.0438 49.1476 49.0815 49.0722C49.1195 48.9967 49.1385 48.917 49.1385 48.83C49.1385 48.6822 49.0774 48.5642 48.9585 48.4748C48.8381 48.3858 48.6695 48.341 48.4495 48.341C48.3387 48.341 48.2398 48.3532 48.155 48.3787C48.0689 48.4042 47.9974 48.4391 47.9391 48.4817C47.8803 48.5253 47.8366 48.5758 47.8062 48.6331C47.7758 48.6904 47.7612 48.752 47.7612 48.8183Z" fill="black"/>
<path fill-rule="evenodd" clip-rule="evenodd" d="M54.5117 52.8071V47.6951H56.1044C56.2459 47.6951 56.3884 47.6988 56.5341 47.7062C56.68 47.7144 56.8212 47.7255 56.9601 47.7416C57.0969 47.7567 57.2314 47.7748 57.3602 47.797C57.4887 47.8174 57.607 47.844 57.7155 47.875C58.0365 47.9615 58.3205 48.078 58.5663 48.2261C58.8116 48.373 59.0189 48.548 59.1848 48.7491C59.3508 48.9508 59.4777 49.1748 59.5625 49.4244C59.6489 49.6718 59.692 49.9412 59.692 50.2317C59.692 50.5076 59.6549 50.7646 59.5828 51.0057C59.5108 51.2462 59.4015 51.4652 59.2538 51.6637C59.1073 51.8637 58.9224 52.0376 58.6982 52.1904C58.4747 52.3416 58.2102 52.4653 57.9038 52.5623C57.6497 52.6431 57.3602 52.7052 57.0356 52.7455C56.7117 52.7861 56.3478 52.8071 55.9423 52.8071H54.5117ZM56.0687 52.0237C56.713 52.0237 57.2174 51.9479 57.5807 51.7976C57.9012 51.6632 58.1441 51.4669 58.3091 51.2096C58.4747 50.9535 58.5575 50.6245 58.5575 50.224C58.5575 50.0161 58.5294 49.8272 58.4763 49.6587C58.4217 49.4903 58.3442 49.3413 58.2417 49.21C58.1395 49.0787 58.0162 48.9655 57.8708 48.8716C57.7246 48.7775 57.561 48.6995 57.3784 48.6396C57.2072 48.5823 57.0174 48.5426 56.8067 48.5171C56.597 48.4907 56.3611 48.4782 56.1007 48.4782H55.6138V52.0237H56.0687Z" fill="black"/>
<path fill-rule="evenodd" clip-rule="evenodd" d="M66.2741 50.251C66.2741 50.6401 66.2095 50.9975 66.079 51.3225C65.9484 51.647 65.7575 51.9267 65.5073 52.1607C65.2562 52.3967 64.9496 52.5782 64.5844 52.7072C64.2205 52.8374 63.8054 52.9024 63.3405 52.9024C62.8755 52.9024 62.4598 52.8374 62.0959 52.7072C61.7323 52.5782 61.4241 52.3967 61.1731 52.1607C60.9233 51.9267 60.7335 51.647 60.6013 51.3225C60.4715 50.9975 60.4062 50.6401 60.4062 50.251C60.4062 49.8613 60.4715 49.5047 60.6013 49.1797C60.7335 48.8549 60.9233 48.575 61.1731 48.341C61.4241 48.1058 61.7323 47.9249 62.0959 47.7947C62.4598 47.6639 62.8755 47.5993 63.3405 47.5993C63.8054 47.5993 64.2205 47.6639 64.5844 47.7947C64.9496 47.9249 65.2562 48.1058 65.5073 48.341C65.7575 48.575 65.9484 48.8549 66.079 49.1797C66.2095 49.5047 66.2741 49.8613 66.2741 50.251ZM65.1358 50.251C65.1358 49.9404 65.0903 49.6684 65.0013 49.4355C64.9113 49.2012 64.786 49.0084 64.6276 48.8535C64.4676 48.6967 64.279 48.5812 64.061 48.5052C63.8415 48.4283 63.602 48.3906 63.3405 48.3906C63.0789 48.3906 62.8388 48.4283 62.6203 48.5052C62.4008 48.5812 62.2124 48.6967 62.0527 48.8535C61.8943 49.0084 61.7703 49.2012 61.6805 49.4355C61.5903 49.6684 61.5447 49.9404 61.5447 50.251C61.5447 50.5621 61.5903 50.8338 61.6805 51.0664C61.7703 51.3001 61.8943 51.493 62.0527 51.647C62.2124 51.8022 62.4008 51.9167 62.6203 51.9956C62.8388 52.073 63.0789 52.1119 63.3405 52.1119C63.602 52.1119 63.8415 52.073 64.061 51.9956C64.279 51.9167 64.4676 51.8022 64.6276 51.647C64.786 51.493 64.9113 51.3001 65.0013 51.0664C65.0903 50.8338 65.1358 50.5621 65.1358 50.251Z" fill="black"/>
<path fill-rule="evenodd" clip-rule="evenodd" d="M72.859 50.251C72.859 50.6401 72.7942 50.9975 72.6631 51.3225C72.5331 51.647 72.3424 51.9267 72.0922 52.1607C71.8412 52.3967 71.5335 52.5782 71.1691 52.7072C70.8044 52.8374 70.3898 52.9024 69.9245 52.9024C69.4607 52.9024 69.0445 52.8374 68.6809 52.7072C68.3165 52.5782 68.0093 52.3967 67.7583 52.1607C67.5083 51.9267 67.3169 51.647 67.1863 51.3225C67.0557 50.9975 66.9912 50.6401 66.9912 50.251C66.9912 49.8613 67.0557 49.5047 67.1863 49.1797C67.3169 48.8549 67.5083 48.575 67.7583 48.341C68.0093 48.1058 68.3165 47.9249 68.6809 47.7947C69.0445 47.6639 69.4607 47.5993 69.9245 47.5993C70.3898 47.5993 70.8044 47.6639 71.1691 47.7947C71.5335 47.9249 71.8412 48.1058 72.0922 48.341C72.3424 48.575 72.5331 48.8549 72.6631 49.1797C72.7942 49.5047 72.859 49.8613 72.859 50.251ZM71.7205 50.251C71.7205 49.9404 71.675 49.6684 71.5858 49.4355C71.4958 49.2012 71.3707 49.0084 71.2123 48.8535C71.0528 48.6967 70.8637 48.5812 70.6457 48.5052C70.426 48.4283 70.1869 48.3906 69.9245 48.3906C69.6638 48.3906 69.4238 48.4283 69.205 48.5052C68.9857 48.5812 68.7977 48.6967 68.6377 48.8535C68.4785 49.0084 68.3552 49.2012 68.2652 49.4355C68.1742 49.6684 68.1297 49.9404 68.1297 50.251C68.1297 50.5621 68.1742 50.8338 68.2652 51.0664C68.3552 51.3001 68.4785 51.493 68.6377 51.647C68.7977 51.8022 68.9857 51.9167 69.205 51.9956C69.4238 52.073 69.6638 52.1119 69.9245 52.1119C70.1869 52.1119 70.426 52.073 70.6457 51.9956C70.8637 51.9167 71.0528 51.8022 71.2123 51.647C71.3707 51.493 71.4958 51.3001 71.5858 51.0664C71.675 50.8338 71.7205 50.5621 71.7205 50.251Z" fill="black"/>
<path fill-rule="evenodd" clip-rule="evenodd" d="M78.2994 49.2316C78.2994 49.5873 78.1834 49.8896 77.9506 50.1378C77.7183 50.3865 77.3588 50.5703 76.8732 50.6906V50.7059L78.6638 52.8071H77.3411L75.7032 50.8281H74.9465V52.8071H73.8447V47.6951H75.6764C75.9781 47.6951 76.2609 47.7096 76.522 47.7394C76.7827 47.7686 77.0061 47.812 77.1926 47.8707C77.5463 47.9856 77.8187 48.1555 78.0117 48.3812C78.2029 48.6062 78.2994 48.8892 78.2994 49.2316ZM75.4915 50.0445C75.743 50.0445 75.9566 50.0354 76.1324 50.0161C76.308 49.9974 76.4554 49.9685 76.5754 49.9302C76.798 49.8584 76.9517 49.7611 77.0368 49.638C77.1231 49.5144 77.1648 49.372 77.1648 49.2123C77.1648 49.0742 77.132 48.9525 77.0646 48.8473C76.9962 48.7415 76.882 48.6578 76.72 48.5962C76.6146 48.556 76.4828 48.5265 76.3236 48.5066C76.1646 48.4879 75.968 48.4782 75.7349 48.4782H74.9465V50.0445H75.4915Z" fill="black"/>
<path fill-rule="evenodd" clip-rule="evenodd" d="M82.4085 51.3401C82.4085 51.2105 82.3711 51.1053 82.2961 51.025C82.221 50.9445 82.119 50.8792 81.9897 50.8273C81.8605 50.7763 81.7158 50.7357 81.5561 50.7045C81.3951 50.6722 81.2258 50.641 81.0489 50.6106C80.8151 50.5664 80.5922 50.5159 80.3789 50.4555C80.1656 50.3956 79.9783 50.3131 79.8163 50.2076C79.654 50.1026 79.5252 49.9668 79.4297 49.804C79.3332 49.6409 79.2856 49.4378 79.2856 49.193C79.2856 48.9236 79.3403 48.6876 79.4519 48.4879C79.5621 48.2874 79.7143 48.1223 79.9044 47.991C80.0946 47.8602 80.3175 47.7615 80.5742 47.6966C80.8312 47.6325 81.1199 47.5999 81.4406 47.5999C81.7614 47.5999 82.0842 47.6274 82.4085 47.6801C82.7324 47.7337 83.0112 47.8024 83.2453 47.886V48.6882C82.9342 48.5841 82.6348 48.5095 82.3471 48.4613C82.0613 48.4142 81.7918 48.3898 81.5403 48.3898C81.1772 48.3898 80.8968 48.4465 80.7006 48.5585C80.504 48.6706 80.4057 48.839 80.4057 49.0623C80.4057 49.193 80.4379 49.2994 80.5027 49.3836C80.5675 49.4679 80.6549 49.5371 80.7659 49.5918C80.8765 49.6471 81.0047 49.6905 81.1491 49.7243C81.2924 49.7569 81.4459 49.7872 81.6082 49.8156C81.8628 49.8613 82.1063 49.9146 82.3393 49.9742C82.5708 50.034 82.7768 50.1171 82.9573 50.224C83.1376 50.3304 83.2796 50.4702 83.3847 50.643C83.4898 50.8148 83.5423 51.0341 83.5423 51.3013C83.5423 51.5772 83.4815 51.8149 83.3623 52.0155C83.2427 52.2166 83.0723 52.3839 82.8515 52.5141C82.6309 52.6454 82.3627 52.7427 82.0477 52.806C81.7335 52.8703 81.3886 52.9018 81.0135 52.9018C80.6866 52.9018 80.3646 52.8752 80.0475 52.8199C79.732 52.7654 79.4682 52.688 79.2578 52.5898V51.7982C79.5556 51.9085 79.8449 51.9871 80.1263 52.037C80.4091 52.0869 80.6999 52.1119 81.0003 52.1119C81.1746 52.1119 81.3457 52.0991 81.513 52.0747C81.681 52.0515 81.8311 52.0092 81.9655 51.9505C82.0987 51.8924 82.2064 51.8138 82.2863 51.712C82.3674 51.6121 82.4085 51.4882 82.4085 51.3401Z" fill="black"/>
</g>
<defs>
<clipPath id="clip0_187_4585">
<rect width="84" height="61" fill="white"/>
</clipPath>
</defs>
</svg>
