<svg width="157" height="61" viewBox="0 0 157 61" fill="none" xmlns="http://www.w3.org/2000/svg">
<path fill-rule="evenodd" clip-rule="evenodd" d="M134.261 38.765C135.302 39.6875 136.717 40.1488 138.505 40.1488C139.456 40.1488 140.316 39.9913 141.085 39.6763C141.855 39.3613 142.466 39.0238 142.919 38.6638C143.934 39.3064 143.938 40.4306 142.986 41.1613C142.511 41.5213 141.866 41.8138 141.051 42.0388C140.259 42.2638 139.365 42.3763 138.369 42.3763C136.626 42.3763 135.11 42.0613 133.82 41.4313C132.552 40.8013 131.568 39.8675 130.866 38.63C130.187 37.37 129.848 35.84 129.848 34.04C129.848 32.7575 130.029 31.6213 130.391 30.6313C130.776 29.6187 131.296 28.7637 131.953 28.0663C132.632 27.3687 133.435 26.84 134.363 26.48C135.291 26.0975 136.298 25.9062 137.385 25.9062C138.765 25.9062 139.976 26.1988 141.017 26.7838C142.081 27.3688 142.907 28.19 143.496 29.2475C144.107 30.2825 144.412 31.475 144.412 32.825C144.412 33.32 144.299 33.68 144.073 33.905C143.847 34.1075 143.53 34.2313 143.122 34.2763L132.65 35.75C132.926 36.9443 133.468 38.0293 134.261 38.765ZM141.832 32.3525C141.742 31.115 141.312 30.1025 140.542 29.315C139.773 28.505 138.709 28.1 137.351 28.1C135.948 28.1 134.782 28.6062 133.854 29.6187C132.934 30.6244 132.553 32.0616 132.52 33.6125L141.832 32.3525Z" fill="#3A506B"/>
<path fill-rule="evenodd" clip-rule="evenodd" d="M42.4414 22.9026C42.4414 22.5426 42.5319 22.2726 42.713 22.0926C43.6102 21.2007 47.061 21.0463 48.6883 21.0463C51.5628 21.0463 53.6564 21.6538 54.9691 22.8688C56.3045 24.0613 56.9722 25.6813 56.9722 27.7288C56.9722 29.1238 56.6667 30.3388 56.0556 31.3738C55.4671 32.4088 54.5617 33.2076 53.3395 33.7701C52.1173 34.3326 50.5556 34.6138 48.6543 34.6138H45.2253V41.8701C44.2 42.2099 42.4414 42.3576 42.4414 40.8576V22.9026ZM48.4846 32.3188H45.1914V23.645C45.6667 23.555 46.1986 23.4875 46.7871 23.4425C47.3982 23.375 48.0093 23.3413 48.6204 23.3413C50.4085 23.3413 51.7778 23.7013 52.7284 24.4213C53.7017 25.1188 54.1883 26.2325 54.1883 27.7625C54.1883 29.2925 53.6903 30.44 52.6945 31.205C51.6986 31.9475 50.2953 32.3188 48.4846 32.3188Z" fill="#0B132B"/>
<path d="M60.838 28.235C60.6569 28.5275 60.5664 28.9325 60.5664 29.45V40.8913C60.5664 42.3206 62.2876 42.2656 63.2824 41.87V29.2475C64.6899 28.4567 66.4049 28.1675 68.0016 28.1675C68.6602 28.1675 69.3249 28.2416 69.9707 28.37C71.296 26.1875 69.0278 25.9062 67.6281 25.9062C65.5905 25.9062 61.8653 26.5755 60.838 28.235Z" fill="#0B132B"/>
<path d="M87.7629 34.1413C87.7629 35.8063 87.446 37.2575 86.8123 38.495C86.1785 39.7325 85.2845 40.6888 84.1302 41.3638C82.9759 42.0388 81.6179 42.3763 80.0561 42.3763C78.4944 42.3763 77.1251 42.0388 75.9481 41.3638C74.7938 40.6888 73.8998 39.7325 73.266 38.495C72.6323 37.2575 72.3154 35.8063 72.3154 34.1413C72.3154 32.4538 72.6323 31.0025 73.266 29.7875C73.9224 28.55 74.8278 27.5937 75.9821 26.9187C77.159 26.2437 78.5171 25.9062 80.0561 25.9062C81.5952 25.9062 82.9419 26.2437 84.0962 26.9187C85.2506 27.5937 86.1446 28.55 86.7783 29.7875C87.4347 31.0025 87.7629 32.4538 87.7629 34.1413ZM80.0561 28.1337C78.5397 28.1337 77.3288 28.6737 76.4234 29.7537C75.5407 30.8112 75.0994 32.2738 75.0994 34.1413C75.0994 36.0313 75.5294 37.505 76.3895 38.5625C77.2722 39.62 78.4944 40.1488 80.0561 40.1488C81.5952 40.1488 82.7948 39.62 83.6549 38.5625C84.5376 37.4825 84.979 36.0088 84.979 34.1413C84.979 32.2738 84.5376 30.8112 83.6549 29.7537C82.7948 28.6737 81.5952 28.1337 80.0561 28.1337Z" fill="#0B132B"/>
<path d="M151.085 22.8012C151.085 21.3814 149.352 21.4315 148.369 21.8225V37.8537C148.369 42.5 153.154 43.0625 156.144 41.9037C157.163 41.3582 157.268 40.2533 156.483 39.4737C154.566 40.5627 151.085 40.5513 151.085 37.685V28.91H155.94C157.069 28.91 157.204 27.4129 156.653 26.6825H151.085V22.8012Z" fill="#3A506B"/>
<path d="M101.814 27.6612C101.746 27.4587 101.678 27.3125 101.61 27.2225H94.8881V25.0962C94.8881 23.8587 95.1597 22.9587 95.703 22.3962C96.2462 21.8337 97.2081 21.5525 98.5887 21.5525C99.6807 21.5525 100.72 21.7549 101.882 22.3287C102.795 21.3125 102.606 20.375 101.339 19.8312C100.614 19.4937 99.6073 19.325 98.3171 19.325C97.0497 19.325 95.9519 19.5275 95.0239 19.9325C94.1186 20.315 93.417 20.9224 92.919 21.7549C92.4437 22.565 92.2061 23.6337 92.2061 24.9612V40.8912C92.2061 42.3206 93.9272 42.2655 94.9221 41.87V29.4162H100.863C101.203 29.4162 101.463 29.3262 101.644 29.1462C101.825 28.9437 101.916 28.6625 101.916 28.3025C101.916 28.055 101.882 27.8412 101.814 27.6612Z" fill="#3A506B"/>
<path d="M105.854 40.8912C105.854 42.3206 107.575 42.2656 108.57 41.87V27.425C108.57 25.9837 106.867 26.0095 105.854 26.4125V40.8912Z" fill="#3A506B"/>
<path d="M105.446 21.4175C105.446 22.3935 106.252 23.105 107.212 23.105C108.188 23.105 108.943 22.4027 108.943 21.4175C108.943 20.456 108.168 19.73 107.212 19.73C106.273 19.73 105.446 20.4659 105.446 21.4175Z" fill="#3A506B"/>
<path d="M125.363 21.0462C125.363 19.6285 123.629 19.6766 122.646 20.0675V40.8912C122.646 42.3208 124.351 42.2721 125.363 41.87V21.0462Z" fill="#3A506B"/>
<path d="M116.941 21.0462C116.941 19.6285 115.207 19.6766 114.225 20.0675V40.8912C114.225 42.3206 115.946 42.2655 116.941 41.87V21.0462Z" fill="#3A506B"/>
<path fill-rule="evenodd" clip-rule="evenodd" d="M16.598 8C7.43118 8 0 15.3873 0 24.5V36.5C0 45.6127 7.43118 53 16.598 53C25.7648 53 33.196 45.6127 33.196 36.5V24.5C33.196 15.3873 25.7648 8 16.598 8Z" fill="#0B132B"/>
<path fill-rule="evenodd" clip-rule="evenodd" d="M15.8611 21.7031C17.6479 20.0893 20.1141 19.625 22.7993 19.625L24.1427 19.625V21.0568C24.1427 24.3267 23.4927 26.9168 21.7423 28.6354C20.019 30.3276 17.5255 30.875 14.5466 30.875H13.2031V29.4432C13.2031 25.9538 14.0239 23.3625 15.8611 21.7031ZM15.9543 27.9587C17.8982 27.8025 19.1338 27.3031 19.9218 26.5293C20.6871 25.7778 21.226 24.57 21.3975 22.5438C19.662 22.691 18.4332 23.1337 17.5983 23.8878C16.7798 24.6271 16.1506 25.8444 15.9543 27.9587Z" fill="#6FFFE9"/>
<path fill-rule="evenodd" clip-rule="evenodd" d="M13.2031 37.4149C15.147 37.2586 16.3827 36.7592 17.1706 35.9855C17.936 35.234 18.4749 34.0262 18.6463 32C16.9108 32.1472 15.682 32.5899 14.8472 33.344C14.0286 34.0832 13.3995 35.3005 13.2031 37.4149Z" fill="white"/>
<path d="M9.05371 32.4902V33.6926V40.4373C9.05371 40.8867 9.18865 41.2178 9.45854 41.4307C9.72843 41.6436 10.1333 41.75 10.673 41.75C10.9675 41.75 11.2373 41.7145 11.4827 41.6436C11.728 41.5963 11.9243 41.549 12.0715 41.5017V32.4902V19.625C11.3912 19.7175 10.7901 19.8773 10.2682 20.0335C9.87564 20.1518 9.56895 20.3173 9.34813 20.5302C9.15185 20.7194 9.05371 21.0032 9.05371 21.3817V32.4902Z" fill="#6FFFE9"/>
</svg>
