<svg width="145" height="40" viewBox="0 0 145 40" fill="none" xmlns="http://www.w3.org/2000/svg">
<path d="M138.949 24.2361V15.8361H144.805V17.5761H140.929V22.4961H144.925V24.2361H138.949ZM139.909 20.7921V19.1361H144.265V20.7921H139.909Z" fill="white"/>
<path d="M129.68 24.2361V15.8361H133.196C133.812 15.8361 134.376 15.9401 134.888 16.1481C135.4 16.3481 135.84 16.6361 136.208 17.0121C136.584 17.3881 136.872 17.8321 137.072 18.3441C137.272 18.8561 137.372 19.4201 137.372 20.0361C137.372 20.6521 137.272 21.2201 137.072 21.7401C136.872 22.2521 136.584 22.6961 136.208 23.0721C135.84 23.4401 135.4 23.7281 134.888 23.9361C134.376 24.1361 133.812 24.2361 133.196 24.2361H129.68ZM131.72 22.8441L131.444 22.4361H133.136C133.472 22.4361 133.772 22.3801 134.036 22.2681C134.3 22.1481 134.524 21.9841 134.708 21.7761C134.9 21.5681 135.048 21.3161 135.152 21.0201C135.256 20.7241 135.308 20.3961 135.308 20.0361C135.308 19.6761 135.256 19.3481 135.152 19.0521C135.048 18.7561 134.9 18.5041 134.708 18.2961C134.524 18.0881 134.3 17.9281 134.036 17.8161C133.772 17.6961 133.472 17.6361 133.136 17.6361H131.408L131.72 17.2521V22.8441Z" fill="white"/>
<path d="M123.769 24.356C123.129 24.356 122.545 24.248 122.017 24.032C121.489 23.816 121.029 23.512 120.637 23.12C120.245 22.728 119.941 22.268 119.725 21.74C119.509 21.212 119.401 20.632 119.401 20C119.401 19.368 119.509 18.788 119.725 18.26C119.941 17.732 120.245 17.272 120.637 16.88C121.029 16.488 121.489 16.184 122.017 15.968C122.545 15.752 123.125 15.644 123.757 15.644C124.389 15.644 124.969 15.752 125.497 15.968C126.025 16.184 126.485 16.488 126.877 16.88C127.269 17.272 127.569 17.732 127.777 18.26C127.993 18.788 128.101 19.368 128.101 20C128.101 20.624 127.993 21.204 127.777 21.74C127.569 22.268 127.269 22.728 126.877 23.12C126.485 23.512 126.025 23.816 125.497 24.032C124.969 24.248 124.393 24.356 123.769 24.356ZM123.757 22.436C124.085 22.436 124.385 22.376 124.657 22.256C124.937 22.136 125.177 21.968 125.377 21.752C125.585 21.528 125.745 21.268 125.857 20.972C125.969 20.676 126.025 20.352 126.025 20C126.025 19.648 125.969 19.324 125.857 19.028C125.745 18.732 125.585 18.476 125.377 18.26C125.177 18.036 124.937 17.864 124.657 17.744C124.385 17.624 124.085 17.564 123.757 17.564C123.429 17.564 123.125 17.624 122.845 17.744C122.573 17.864 122.333 18.036 122.125 18.26C121.917 18.476 121.757 18.732 121.645 19.028C121.541 19.324 121.489 19.648 121.489 20C121.489 20.352 121.541 20.68 121.645 20.984C121.757 21.28 121.917 21.536 122.125 21.752C122.333 21.968 122.573 22.136 122.845 22.256C123.125 22.376 123.429 22.436 123.757 22.436Z" fill="white"/>
<path d="M115.425 24.3561C114.793 24.3561 114.209 24.2521 113.673 24.0441C113.145 23.8281 112.685 23.5281 112.293 23.1441C111.901 22.7521 111.597 22.2921 111.381 21.7641C111.173 21.2281 111.069 20.6401 111.069 20.0001C111.069 19.3761 111.181 18.8001 111.405 18.2721C111.629 17.7441 111.937 17.2881 112.329 16.9041C112.729 16.5121 113.197 16.2081 113.733 15.9921C114.277 15.7761 114.869 15.6681 115.509 15.6681C115.909 15.6681 116.301 15.7201 116.685 15.8241C117.069 15.9281 117.425 16.0841 117.753 16.2921C118.089 16.4921 118.377 16.7321 118.617 17.0121L117.369 18.4401C117.201 18.2641 117.021 18.1121 116.829 17.9841C116.645 17.8481 116.441 17.7441 116.217 17.6721C115.993 17.6001 115.753 17.5641 115.497 17.5641C115.177 17.5641 114.873 17.6241 114.585 17.7441C114.305 17.8561 114.057 18.0201 113.841 18.2361C113.633 18.4441 113.469 18.7001 113.349 19.0041C113.229 19.3081 113.169 19.6481 113.169 20.0241C113.169 20.3921 113.229 20.7281 113.349 21.0321C113.469 21.3281 113.637 21.5841 113.853 21.8001C114.069 22.0161 114.329 22.1801 114.633 22.2921C114.945 22.4041 115.289 22.4601 115.665 22.4601C115.921 22.4601 116.165 22.4241 116.397 22.3521C116.629 22.2801 116.841 22.1841 117.033 22.0641C117.233 21.9361 117.409 21.7921 117.561 21.6321L118.545 23.1921C118.345 23.4161 118.077 23.6161 117.741 23.7921C117.413 23.9681 117.045 24.1081 116.637 24.2121C116.237 24.3081 115.833 24.3561 115.425 24.3561Z" fill="white"/>
<path d="M102.279 24.3561C101.607 24.3561 100.999 24.2481 100.455 24.0321C99.9109 23.8161 99.4429 23.5121 99.0509 23.1201C98.6589 22.7281 98.3589 22.2681 98.1509 21.7401C97.9429 21.2041 97.8389 20.6241 97.8389 20.0001C97.8389 19.3761 97.9469 18.8041 98.1629 18.2841C98.3869 17.7561 98.7029 17.2961 99.1109 16.9041C99.5189 16.5121 99.9989 16.2081 100.551 15.9921C101.111 15.7761 101.719 15.6681 102.375 15.6681C102.839 15.6681 103.275 15.7281 103.683 15.8481C104.099 15.9681 104.475 16.1321 104.811 16.3401C105.147 16.5481 105.431 16.7881 105.663 17.0601L104.427 18.3681C104.227 18.1761 104.019 18.0161 103.803 17.8881C103.595 17.7601 103.371 17.6601 103.131 17.5881C102.891 17.5081 102.635 17.4681 102.363 17.4681C102.011 17.4681 101.687 17.5321 101.391 17.6601C101.103 17.7881 100.847 17.9681 100.623 18.2001C100.407 18.4241 100.239 18.6921 100.119 19.0041C99.9989 19.3081 99.9389 19.6401 99.9389 20.0001C99.9389 20.3601 100.003 20.6961 100.131 21.0081C100.259 21.3201 100.435 21.5921 100.659 21.8241C100.883 22.0481 101.147 22.2281 101.451 22.3641C101.763 22.4921 102.095 22.5561 102.447 22.5561C102.695 22.5561 102.927 22.5161 103.143 22.4361C103.367 22.3561 103.559 22.2481 103.719 22.1121C103.879 21.9761 104.007 21.8161 104.103 21.6321C104.199 21.4401 104.247 21.2361 104.247 21.0201V20.7081L104.511 21.1161H102.195V19.5201H106.143C106.159 19.6081 106.171 19.7281 106.179 19.8801C106.187 20.0321 106.191 20.1801 106.191 20.3241C106.199 20.4681 106.203 20.5761 106.203 20.6481C106.203 21.1921 106.103 21.6921 105.903 22.1481C105.711 22.5961 105.439 22.9841 105.087 23.3121C104.735 23.6401 104.319 23.8961 103.839 24.0801C103.359 24.2641 102.839 24.3561 102.279 24.3561Z" fill="white"/>
<path d="M88.6992 24.2361V15.8361H90.5232L94.9272 21.8361L94.5312 21.7761C94.4912 21.5121 94.4592 21.2601 94.4352 21.0201C94.4112 20.7801 94.3872 20.5441 94.3632 20.3121C94.3472 20.0801 94.3312 19.8441 94.3152 19.6041C94.3072 19.3641 94.2992 19.1041 94.2912 18.8241C94.2912 18.5441 94.2912 18.2401 94.2912 17.9121V15.8361H96.2712V24.2361H94.4232L89.8272 18.0441L90.4392 18.1281C90.4792 18.5121 90.5112 18.8401 90.5352 19.1121C90.5672 19.3761 90.5912 19.6121 90.6072 19.8201C90.6312 20.0281 90.6472 20.2161 90.6552 20.3841C90.6632 20.5521 90.6672 20.7201 90.6672 20.8881C90.6752 21.0481 90.6792 21.2281 90.6792 21.4281V24.2361H88.6992Z" fill="white"/>
<path d="M81.875 24.2361V22.5201H83.291V17.5521H81.875V15.8361H86.759V17.5521H85.331V22.5201H86.759V24.2361H81.875Z" fill="white"/>
<path d="M74.6599 21.7761L74.1319 20.0601L78.2959 15.8361H80.7079L74.6599 21.7761ZM73.1719 24.2361V15.8361H75.2119V24.2361H73.1719ZM78.5599 24.2361L75.4399 20.1321L76.8199 18.9441L80.9359 24.2361H78.5599Z" fill="white"/>
<path d="M64.7461 24.2361V15.8361H68.5261C69.0621 15.8361 69.5461 15.9521 69.9781 16.1841C70.4181 16.4161 70.7621 16.7361 71.0101 17.1441C71.2581 17.5441 71.3821 18.0001 71.3821 18.5121C71.3821 19.0401 71.2581 19.5161 71.0101 19.9401C70.7621 20.3561 70.4221 20.6841 69.9901 20.9241C69.5581 21.1641 69.0701 21.2841 68.5261 21.2841H66.6901V24.2361H64.7461ZM69.4021 24.2361L67.2661 20.4441L69.3541 20.1441L71.7301 24.2361H69.4021ZM66.6901 19.7241H68.3461C68.5541 19.7241 68.7341 19.6801 68.8861 19.5921C69.0461 19.4961 69.1661 19.3641 69.2461 19.1961C69.3341 19.0281 69.3781 18.8361 69.3781 18.6201C69.3781 18.4041 69.3301 18.2161 69.2341 18.0561C69.1381 17.8881 68.9981 17.7601 68.8141 17.6721C68.6381 17.5841 68.4221 17.5401 68.1661 17.5401H66.6901V19.7241Z" fill="white"/>
<path d="M55.3461 24.2361L58.6701 15.8361H60.3981L63.6981 24.2361H61.6341L60.0501 19.9761C59.9861 19.8081 59.9221 19.6281 59.8581 19.4361C59.7941 19.2441 59.7301 19.0481 59.6661 18.8481C59.6021 18.6401 59.5381 18.4401 59.4741 18.2481C59.4181 18.0481 59.3701 17.8641 59.3301 17.6961L59.6901 17.6841C59.6421 17.8841 59.5861 18.0801 59.5221 18.2721C59.4661 18.4641 59.4061 18.6561 59.3421 18.8481C59.2861 19.0321 59.2221 19.2201 59.1501 19.4121C59.0781 19.5961 59.0101 19.7881 58.9461 19.9881L57.3621 24.2361H55.3461ZM56.9301 22.6281L57.5661 21.0921H61.4301L62.0541 22.6281H56.9301Z" fill="white"/>
<path d="M48 24.2361V15.8361H51.708C52.284 15.8361 52.772 15.9201 53.172 16.0881C53.572 16.2481 53.872 16.4841 54.072 16.7961C54.28 17.1001 54.384 17.4681 54.384 17.9001C54.384 18.3801 54.264 18.7841 54.024 19.1121C53.792 19.4401 53.452 19.6601 53.004 19.7721L52.98 19.5441C53.356 19.6241 53.68 19.7641 53.952 19.9641C54.232 20.1641 54.448 20.4121 54.6 20.7081C54.752 20.9961 54.828 21.3241 54.828 21.6921C54.828 22.1161 54.756 22.4881 54.612 22.8081C54.468 23.1201 54.26 23.3841 53.988 23.6001C53.716 23.8161 53.396 23.9761 53.028 24.0801C52.668 24.1841 52.268 24.2361 51.828 24.2361H48ZM49.92 22.5321H51.756C51.98 22.5321 52.168 22.4961 52.32 22.4241C52.48 22.3521 52.604 22.2481 52.692 22.1121C52.78 21.9681 52.824 21.7961 52.824 21.5961C52.824 21.4121 52.776 21.2561 52.68 21.1281C52.592 21.0001 52.464 20.9041 52.296 20.8401C52.128 20.7681 51.928 20.7321 51.696 20.7321H49.92V22.5321ZM49.92 19.2081H51.42C51.628 19.2081 51.804 19.1761 51.948 19.1121C52.1 19.0401 52.212 18.9441 52.284 18.8241C52.364 18.6961 52.404 18.5441 52.404 18.3681C52.404 18.1121 52.316 17.9121 52.14 17.7681C51.964 17.6161 51.7 17.5401 51.348 17.5401H49.92V19.2081Z" fill="white"/>
<path fill-rule="evenodd" clip-rule="evenodd" d="M144.925 28.356H48V27.356H144.925V28.356Z" fill="white"/>
<rect width="40" height="40" rx="4" fill="#EC8013"/>
<path d="M15.056 21V12.6H18.764C19.34 12.6 19.828 12.684 20.228 12.852C20.628 13.012 20.928 13.248 21.128 13.56C21.336 13.864 21.44 14.232 21.44 14.664C21.44 15.144 21.32 15.548 21.08 15.876C20.848 16.204 20.508 16.424 20.06 16.536L20.036 16.308C20.412 16.388 20.736 16.528 21.008 16.728C21.288 16.928 21.504 17.176 21.656 17.472C21.808 17.76 21.884 18.088 21.884 18.456C21.884 18.88 21.812 19.252 21.668 19.572C21.524 19.884 21.316 20.148 21.044 20.364C20.772 20.58 20.452 20.74 20.084 20.844C19.724 20.948 19.324 21 18.884 21H15.056ZM16.976 19.296H18.812C19.036 19.296 19.224 19.26 19.376 19.188C19.536 19.116 19.66 19.012 19.748 18.876C19.836 18.732 19.88 18.56 19.88 18.36C19.88 18.176 19.832 18.02 19.736 17.892C19.648 17.764 19.52 17.668 19.352 17.604C19.184 17.532 18.984 17.496 18.752 17.496H16.976V19.296ZM16.976 15.972H18.476C18.684 15.972 18.86 15.94 19.004 15.876C19.156 15.804 19.268 15.708 19.34 15.588C19.42 15.46 19.46 15.308 19.46 15.132C19.46 14.876 19.372 14.676 19.196 14.532C19.02 14.38 18.756 14.304 18.404 14.304H16.976V15.972Z" fill="black"/>
<path d="M11.1479 20.1561L6.49194 17.4921V16.3281L11.1479 13.6641L11.9399 15.1881L7.85994 17.3241V16.4961L11.9399 18.6441L11.1479 20.1561Z" fill="black"/>
<path d="M28.3967 26.1561L27.6167 24.6441L31.6847 22.4961V23.3241L27.6167 21.1881L28.3967 19.6641L33.0527 22.3281V23.4921L28.3967 26.1561Z" fill="black"/>
<path d="M20.0959 27.704L25.0879 17.6H26.9959L22.0279 27.704H20.0959Z" fill="black"/>
</svg>
