<svg width="145" height="40" viewBox="0 0 145 40" fill="none" xmlns="http://www.w3.org/2000/svg">
<rect width="40" height="40" rx="4" fill="#EC8013"/>
<path d="M15.056 21V12.6H18.764C19.34 12.6 19.828 12.684 20.228 12.852C20.628 13.012 20.928 13.248 21.128 13.56C21.336 13.864 21.44 14.232 21.44 14.664C21.44 15.144 21.32 15.548 21.08 15.876C20.848 16.204 20.508 16.424 20.06 16.536L20.036 16.308C20.412 16.388 20.736 16.528 21.008 16.728C21.288 16.928 21.504 17.176 21.656 17.472C21.808 17.76 21.884 18.088 21.884 18.456C21.884 18.88 21.812 19.252 21.668 19.572C21.524 19.884 21.316 20.148 21.044 20.364C20.772 20.58 20.452 20.74 20.084 20.844C19.724 20.948 19.324 21 18.884 21H15.056ZM16.976 19.296H18.812C19.036 19.296 19.224 19.26 19.376 19.188C19.536 19.116 19.66 19.012 19.748 18.876C19.836 18.732 19.88 18.56 19.88 18.36C19.88 18.176 19.832 18.02 19.736 17.892C19.648 17.764 19.52 17.668 19.352 17.604C19.184 17.532 18.984 17.496 18.752 17.496H16.976V19.296ZM16.976 15.972H18.476C18.684 15.972 18.86 15.94 19.004 15.876C19.156 15.804 19.268 15.708 19.34 15.588C19.42 15.46 19.46 15.308 19.46 15.132C19.46 14.876 19.372 14.676 19.196 14.532C19.02 14.38 18.756 14.304 18.404 14.304H16.976V15.972Z" fill="black"/>
<path d="M11.1479 20.156L6.49194 17.492V16.328L11.1479 13.664L11.9399 15.188L7.85994 17.324V16.496L11.9399 18.644L11.1479 20.156Z" fill="black"/>
<path d="M28.3967 26.156L27.6167 24.644L31.6847 22.496V23.324L27.6167 21.188L28.3967 19.664L33.0527 22.328V23.492L28.3967 26.156Z" fill="black"/>
<path d="M20.0959 27.704L25.0879 17.6H26.9959L22.0279 27.704H20.0959Z" fill="black"/>
<path d="M138.949 24.236V15.836H144.805V17.576H140.929V22.496H144.925V24.236H138.949ZM139.909 20.792V19.136H144.265V20.792H139.909Z" fill="#191919"/>
<path d="M129.68 24.236V15.836H133.196C133.812 15.836 134.376 15.94 134.888 16.148C135.4 16.348 135.84 16.636 136.208 17.012C136.584 17.388 136.872 17.832 137.072 18.344C137.272 18.856 137.372 19.42 137.372 20.036C137.372 20.652 137.272 21.22 137.072 21.74C136.872 22.252 136.584 22.696 136.208 23.072C135.84 23.44 135.4 23.728 134.888 23.936C134.376 24.136 133.812 24.236 133.196 24.236H129.68ZM131.72 22.844L131.444 22.436H133.136C133.472 22.436 133.772 22.38 134.036 22.268C134.3 22.148 134.524 21.984 134.708 21.776C134.9 21.568 135.048 21.316 135.152 21.02C135.256 20.724 135.308 20.396 135.308 20.036C135.308 19.676 135.256 19.348 135.152 19.052C135.048 18.756 134.9 18.504 134.708 18.296C134.524 18.088 134.3 17.928 134.036 17.816C133.772 17.696 133.472 17.636 133.136 17.636H131.408L131.72 17.252V22.844Z" fill="#191919"/>
<path d="M123.769 24.356C123.129 24.356 122.545 24.248 122.017 24.032C121.489 23.816 121.029 23.512 120.637 23.12C120.245 22.728 119.941 22.268 119.725 21.74C119.509 21.212 119.401 20.632 119.401 20C119.401 19.368 119.509 18.788 119.725 18.26C119.941 17.732 120.245 17.272 120.637 16.88C121.029 16.488 121.489 16.184 122.017 15.968C122.545 15.752 123.125 15.644 123.757 15.644C124.389 15.644 124.969 15.752 125.497 15.968C126.025 16.184 126.485 16.488 126.877 16.88C127.269 17.272 127.569 17.732 127.777 18.26C127.993 18.788 128.101 19.368 128.101 20C128.101 20.624 127.993 21.204 127.777 21.74C127.569 22.268 127.269 22.728 126.877 23.12C126.485 23.512 126.025 23.816 125.497 24.032C124.969 24.248 124.393 24.356 123.769 24.356ZM123.757 22.436C124.085 22.436 124.385 22.376 124.657 22.256C124.937 22.136 125.177 21.968 125.377 21.752C125.585 21.528 125.745 21.268 125.857 20.972C125.969 20.676 126.025 20.352 126.025 20C126.025 19.648 125.969 19.324 125.857 19.028C125.745 18.732 125.585 18.476 125.377 18.26C125.177 18.036 124.937 17.864 124.657 17.744C124.385 17.624 124.085 17.564 123.757 17.564C123.429 17.564 123.125 17.624 122.845 17.744C122.573 17.864 122.333 18.036 122.125 18.26C121.917 18.476 121.757 18.732 121.645 19.028C121.541 19.324 121.489 19.648 121.489 20C121.489 20.352 121.541 20.68 121.645 20.984C121.757 21.28 121.917 21.536 122.125 21.752C122.333 21.968 122.573 22.136 122.845 22.256C123.125 22.376 123.429 22.436 123.757 22.436Z" fill="#191919"/>
<path d="M115.425 24.356C114.793 24.356 114.209 24.252 113.673 24.044C113.145 23.828 112.685 23.528 112.293 23.144C111.901 22.752 111.597 22.292 111.381 21.764C111.173 21.228 111.069 20.64 111.069 20C111.069 19.376 111.181 18.8 111.405 18.272C111.629 17.744 111.937 17.288 112.329 16.904C112.729 16.512 113.197 16.208 113.733 15.992C114.277 15.776 114.869 15.668 115.509 15.668C115.909 15.668 116.301 15.72 116.685 15.824C117.069 15.928 117.425 16.084 117.753 16.292C118.089 16.492 118.377 16.732 118.617 17.012L117.369 18.44C117.201 18.264 117.021 18.112 116.829 17.984C116.645 17.848 116.441 17.744 116.217 17.672C115.993 17.6 115.753 17.564 115.497 17.564C115.177 17.564 114.873 17.624 114.585 17.744C114.305 17.856 114.057 18.02 113.841 18.236C113.633 18.444 113.469 18.7 113.349 19.004C113.229 19.308 113.169 19.648 113.169 20.024C113.169 20.392 113.229 20.728 113.349 21.032C113.469 21.328 113.637 21.584 113.853 21.8C114.069 22.016 114.329 22.18 114.633 22.292C114.945 22.404 115.289 22.46 115.665 22.46C115.921 22.46 116.165 22.424 116.397 22.352C116.629 22.28 116.841 22.184 117.033 22.064C117.233 21.936 117.409 21.792 117.561 21.632L118.545 23.192C118.345 23.416 118.077 23.616 117.741 23.792C117.413 23.968 117.045 24.108 116.637 24.212C116.237 24.308 115.833 24.356 115.425 24.356Z" fill="#191919"/>
<path d="M102.279 24.356C101.607 24.356 100.999 24.248 100.455 24.032C99.9109 23.816 99.4429 23.512 99.0509 23.12C98.6589 22.728 98.3589 22.268 98.1509 21.74C97.9429 21.204 97.8389 20.624 97.8389 20C97.8389 19.376 97.9469 18.804 98.1629 18.284C98.3869 17.756 98.7029 17.296 99.1109 16.904C99.5189 16.512 99.9989 16.208 100.551 15.992C101.111 15.776 101.719 15.668 102.375 15.668C102.839 15.668 103.275 15.728 103.683 15.848C104.099 15.968 104.475 16.132 104.811 16.34C105.147 16.548 105.431 16.788 105.663 17.06L104.427 18.368C104.227 18.176 104.019 18.016 103.803 17.888C103.595 17.76 103.371 17.66 103.131 17.588C102.891 17.508 102.635 17.468 102.363 17.468C102.011 17.468 101.687 17.532 101.391 17.66C101.103 17.788 100.847 17.968 100.623 18.2C100.407 18.424 100.239 18.692 100.119 19.004C99.9989 19.308 99.9389 19.64 99.9389 20C99.9389 20.36 100.003 20.696 100.131 21.008C100.259 21.32 100.435 21.592 100.659 21.824C100.883 22.048 101.147 22.228 101.451 22.364C101.763 22.492 102.095 22.556 102.447 22.556C102.695 22.556 102.927 22.516 103.143 22.436C103.367 22.356 103.559 22.248 103.719 22.112C103.879 21.976 104.007 21.816 104.103 21.632C104.199 21.44 104.247 21.236 104.247 21.02V20.708L104.511 21.116H102.195V19.52H106.143C106.159 19.608 106.171 19.728 106.179 19.88C106.187 20.032 106.191 20.18 106.191 20.324C106.199 20.468 106.203 20.576 106.203 20.648C106.203 21.192 106.103 21.692 105.903 22.148C105.711 22.596 105.439 22.984 105.087 23.312C104.735 23.64 104.319 23.896 103.839 24.08C103.359 24.264 102.839 24.356 102.279 24.356Z" fill="#191919"/>
<path d="M88.6992 24.236V15.836H90.5232L94.9272 21.836L94.5312 21.776C94.4912 21.512 94.4592 21.26 94.4352 21.02C94.4112 20.78 94.3872 20.544 94.3632 20.312C94.3472 20.08 94.3312 19.844 94.3152 19.604C94.3072 19.364 94.2992 19.104 94.2912 18.824C94.2912 18.544 94.2912 18.24 94.2912 17.912V15.836H96.2712V24.236H94.4232L89.8272 18.044L90.4392 18.128C90.4792 18.512 90.5112 18.84 90.5352 19.112C90.5672 19.376 90.5912 19.612 90.6072 19.82C90.6312 20.028 90.6472 20.216 90.6552 20.384C90.6632 20.552 90.6672 20.72 90.6672 20.888C90.6752 21.048 90.6792 21.228 90.6792 21.428V24.236H88.6992Z" fill="#191919"/>
<path d="M81.875 24.236V22.52H83.291V17.552H81.875V15.836H86.759V17.552H85.331V22.52H86.759V24.236H81.875Z" fill="#191919"/>
<path d="M74.6599 21.776L74.1319 20.06L78.2959 15.836H80.7079L74.6599 21.776ZM73.1719 24.236V15.836H75.2119V24.236H73.1719ZM78.5599 24.236L75.4399 20.132L76.8199 18.944L80.9359 24.236H78.5599Z" fill="#191919"/>
<path d="M64.7461 24.236V15.836H68.5261C69.0621 15.836 69.5461 15.952 69.9781 16.184C70.4181 16.416 70.7621 16.736 71.0101 17.144C71.2581 17.544 71.3821 18 71.3821 18.512C71.3821 19.04 71.2581 19.516 71.0101 19.94C70.7621 20.356 70.4221 20.684 69.9901 20.924C69.5581 21.164 69.0701 21.284 68.5261 21.284H66.6901V24.236H64.7461ZM69.4021 24.236L67.2661 20.444L69.3541 20.144L71.7301 24.236H69.4021ZM66.6901 19.724H68.3461C68.5541 19.724 68.7341 19.68 68.8861 19.592C69.0461 19.496 69.1661 19.364 69.2461 19.196C69.3341 19.028 69.3781 18.836 69.3781 18.62C69.3781 18.404 69.3301 18.216 69.2341 18.056C69.1381 17.888 68.9981 17.76 68.8141 17.672C68.6381 17.584 68.4221 17.54 68.1661 17.54H66.6901V19.724Z" fill="#191919"/>
<path d="M55.3461 24.236L58.6701 15.836H60.3981L63.6981 24.236H61.6341L60.0501 19.976C59.9861 19.808 59.9221 19.628 59.8581 19.436C59.7941 19.244 59.7301 19.048 59.6661 18.848C59.6021 18.64 59.5381 18.44 59.4741 18.248C59.4181 18.048 59.3701 17.864 59.3301 17.696L59.6901 17.684C59.6421 17.884 59.5861 18.08 59.5221 18.272C59.4661 18.464 59.4061 18.656 59.3421 18.848C59.2861 19.032 59.2221 19.22 59.1501 19.412C59.0781 19.596 59.0101 19.788 58.9461 19.988L57.3621 24.236H55.3461ZM56.9301 22.628L57.5661 21.092H61.4301L62.0541 22.628H56.9301Z" fill="#191919"/>
<path d="M48 24.236V15.836H51.708C52.284 15.836 52.772 15.92 53.172 16.088C53.572 16.248 53.872 16.484 54.072 16.796C54.28 17.1 54.384 17.468 54.384 17.9C54.384 18.38 54.264 18.784 54.024 19.112C53.792 19.44 53.452 19.66 53.004 19.772L52.98 19.544C53.356 19.624 53.68 19.764 53.952 19.964C54.232 20.164 54.448 20.412 54.6 20.708C54.752 20.996 54.828 21.324 54.828 21.692C54.828 22.116 54.756 22.488 54.612 22.808C54.468 23.12 54.26 23.384 53.988 23.6C53.716 23.816 53.396 23.976 53.028 24.08C52.668 24.184 52.268 24.236 51.828 24.236H48ZM49.92 22.532H51.756C51.98 22.532 52.168 22.496 52.32 22.424C52.48 22.352 52.604 22.248 52.692 22.112C52.78 21.968 52.824 21.796 52.824 21.596C52.824 21.412 52.776 21.256 52.68 21.128C52.592 21 52.464 20.904 52.296 20.84C52.128 20.768 51.928 20.732 51.696 20.732H49.92V22.532ZM49.92 19.208H51.42C51.628 19.208 51.804 19.176 51.948 19.112C52.1 19.04 52.212 18.944 52.284 18.824C52.364 18.696 52.404 18.544 52.404 18.368C52.404 18.112 52.316 17.912 52.14 17.768C51.964 17.616 51.7 17.54 51.348 17.54H49.92V19.208Z" fill="#191919"/>
<path fill-rule="evenodd" clip-rule="evenodd" d="M144.925 28.356H48V26.856H144.925V28.356Z" fill="#191919"/>
</svg>
